<svg width="384" height="370" viewBox="0 0 384 370" fill="none" xmlns="http://www.w3.org/2000/svg">
<path d="M34.51 88.5801H32.51C32.51 82.8101 37.2 78.1201 42.97 78.1201H367.21C374.93 78.1201 381.21 71.8401 381.21 64.1201V49.6201C381.21 41.9001 374.93 35.6201 367.21 35.6201H45.58V33.6201H367.21C376.03 33.6201 383.21 40.8001 383.21 49.6201V64.1201C383.21 72.9401 376.03 80.1201 367.21 80.1201H42.97C38.3 80.1201 34.51 83.9201 34.51 88.5801Z" fill="#426A80"/>
<path d="M34.51 145.6H32.51C32.51 139.83 37.2 135.14 42.97 135.14H367.21C374.93 135.14 381.21 128.86 381.21 121.14V106.64C381.21 98.9199 374.93 92.6399 367.21 92.6399H45.58V90.6399H367.21C376.03 90.6399 383.21 97.8199 383.21 106.64V121.14C383.21 129.96 376.03 137.14 367.21 137.14H42.97C38.3 137.14 34.51 140.94 34.51 145.6Z" fill="#426A80"/>
<path d="M34.51 202.17H32.51C32.51 196.4 37.2 191.71 42.97 191.71H367.21C374.93 191.71 381.21 185.43 381.21 177.71V163.21C381.21 155.49 374.93 149.21 367.21 149.21H45.58V147.21H367.21C376.03 147.21 383.21 154.39 383.21 163.21V177.71C383.21 186.53 376.03 193.71 367.21 193.71H42.97C38.3 193.71 34.51 197.5 34.51 202.17Z" fill="#426A80"/>
<path d="M34.51 258.9H32.51C32.51 253.13 37.2 248.44 42.97 248.44H367.21C374.93 248.44 381.21 242.16 381.21 234.44V219.94C381.21 212.22 374.93 205.94 367.21 205.94H45.58V203.94H367.21C376.03 203.94 383.21 211.12 383.21 219.94V234.44C383.21 243.26 376.03 250.44 367.21 250.44H42.97C38.3 250.44 34.51 254.24 34.51 258.9Z" fill="#426A80"/>
<path d="M34.51 315.83H32.51C32.51 310.06 37.2 305.37 42.97 305.37H367.21C374.93 305.37 381.21 299.09 381.21 291.37V276.87C381.21 269.15 374.93 262.87 367.21 262.87H45.58V260.87H367.21C376.03 260.87 383.21 268.05 383.21 276.87V291.37C383.21 300.19 376.03 307.37 367.21 307.37H42.97C38.3 307.36 34.51 311.16 34.51 315.83Z" fill="#426A80"/>
<path d="M367.21 369.08H33.51L15.93 369.01C7.15 368.97 0 361.83 0 353.09V15.92C0 7.14 7.18 0 16 0H148.85C157.67 0 164.85 7.14 164.85 15.92C164.85 16.06 164.86 16.42 164.88 16.94C165.21 25.72 164.86 26.79 164.33 27.34C164.11 27.57 163.82 27.7 163.51 27.7H148.13V25.71H162.88C163.01 24.81 163.09 22.52 162.88 17.03C162.86 16.48 162.85 16.08 162.85 15.94C162.85 8.26 156.57 2.02 148.85 2.02H16C8.28 2.02 2 8.27 2 15.94V353.11C2 360.75 8.25999 367 15.94 367.03L33.51 367.1H367.21C374.93 367.1 381.21 360.06 381.21 351.4V335.26C381.21 326.6 374.93 319.56 367.21 319.56H45.58V317.57H367.21C376.03 317.57 383.21 325.51 383.21 335.26V351.4C383.21 361.15 376.04 369.08 367.21 369.08Z" fill="#426A80"/>
<path d="M14.3299 48.1401L14.3399 48.1501C18.1799 51.8001 18.2699 57.9001 14.5299 61.6601L13.1899 63.0101C7.26994 68.9701 11.4899 79.1201 19.8999 79.1201H40.5399C43.0499 79.1201 45.4599 78.1201 47.2399 76.3401L61.38 62.1501C65.06 58.4601 65.06 52.4901 61.38 48.8101L47.2399 34.6201C45.4699 32.8401 43.0599 31.8401 40.5399 31.8401H20.8399C12.3199 31.8401 8.14994 42.2601 14.3299 48.1401Z" fill="#F1687D"/>
<path d="M14.34 104.88L14.35 104.89C18.19 108.54 18.28 114.64 14.54 118.4L13.2 119.75C7.27995 125.71 11.5 135.86 19.91 135.86H40.55C43.06 135.86 45.47 134.86 47.25 133.08L61.38 118.89C65.05 115.2 65.05 109.24 61.38 105.55L47.25 91.3601C45.48 89.5801 43.07 88.5801 40.55 88.5801H20.8499C12.3199 88.5801 8.14995 99.0001 14.34 104.88Z" fill="#F1687D"/>
<path d="M14.34 161.62L14.35 161.63C18.19 165.28 18.28 171.38 14.54 175.14L13.21 176.48C7.28996 182.44 11.51 192.59 19.92 192.59H40.55C43.06 192.59 45.47 191.59 47.25 189.81L61.39 175.62C65.07 171.93 65.07 165.96 61.39 162.28L47.25 148.09C45.48 146.31 43.07 145.31 40.55 145.31H20.86C12.32 145.32 8.14996 155.74 14.34 161.62Z" fill="#F1687D"/>
<path d="M14.35 218.37C18.19 222.02 18.28 228.12 14.54 231.88L13.21 233.22C7.28996 239.18 11.51 249.33 19.92 249.33H40.56C43.07 249.33 45.48 248.33 47.26 246.55L61.39 232.37C65.07 228.68 65.07 222.72 61.39 219.03L47.26 204.84C45.49 203.06 43.08 202.06 40.56 202.06H20.86C12.32 202.06 8.15996 212.48 14.35 218.37Z" fill="#F1687D"/>
<path d="M14.35 275.1C18.19 278.75 18.28 284.85 14.54 288.61L13.21 289.95C7.28996 295.91 11.51 306.06 19.92 306.06H40.56C43.07 306.06 45.48 305.06 47.26 303.28L61.39 289.1C65.07 285.41 65.07 279.45 61.39 275.76L47.26 261.57C45.49 259.79 43.08 258.79 40.56 258.79H20.86C12.32 258.79 8.15996 269.21 14.35 275.1Z" fill="#F1687D"/>
<path d="M14.35 331.7C18.19 335.35 18.28 341.45 14.54 345.21L13.21 346.55C7.28996 352.51 11.51 362.66 19.92 362.66H40.56C43.07 362.66 45.48 361.66 47.26 359.88L61.39 345.7C65.07 342.01 65.07 336.05 61.39 332.36L47.26 318.17C45.49 316.39 43.08 315.39 40.56 315.39H20.86C12.32 315.39 8.15996 325.81 14.35 331.7Z" fill="#F1687D"/>
<path d="M39.84 69.16H34.41V54.29L34.46 51.85L34.55 49.18C33.65 50.08 33.02 50.67 32.67 50.96L29.72 53.33L27.1 50.06L35.38 43.47H39.84V69.16V69.16Z" fill="white"/>
<path d="M44.37 125.69H26.41V121.91L32.86 115.39C34.77 113.43 36.02 112.08 36.6 111.32C37.18 110.56 37.61 109.86 37.87 109.22C38.13 108.58 38.26 107.91 38.26 107.22C38.26 106.19 37.98 105.42 37.41 104.92C36.84 104.42 36.08 104.16 35.13 104.16C34.13 104.16 33.17 104.39 32.23 104.85C31.29 105.31 30.31 105.96 29.29 106.8L26.34 103.3C27.61 102.22 28.65 101.46 29.49 101.01C30.33 100.56 31.23 100.22 32.21 99.9801C33.19 99.7401 34.3 99.6201 35.51 99.6201C37.12 99.6201 38.53 99.9101 39.76 100.5C40.99 101.09 41.95 101.91 42.63 102.96C43.31 104.01 43.65 105.22 43.65 106.58C43.65 107.76 43.44 108.87 43.03 109.91C42.62 110.95 41.97 112.01 41.1 113.1C40.23 114.19 38.69 115.74 36.49 117.76L33.19 120.87V121.12H44.39V125.69H44.37Z" fill="white"/>
<path d="M43.8699 162.26C43.8699 163.87 43.38 165.23 42.41 166.36C41.44 167.49 40.07 168.26 38.31 168.68V168.79C40.38 169.05 41.95 169.68 43.02 170.68C44.09 171.68 44.6199 173.03 44.6199 174.73C44.6199 177.2 43.7199 179.13 41.9299 180.5C40.1399 181.87 37.58 182.57 34.25 182.57C31.46 182.57 28.99 182.11 26.83 181.18V176.56C27.83 177.06 28.9199 177.47 30.1199 177.79C31.3199 178.11 32.5 178.26 33.67 178.26C35.46 178.26 36.79 177.96 37.64 177.35C38.49 176.74 38.92 175.76 38.92 174.41C38.92 173.2 38.43 172.35 37.44 171.84C36.45 171.33 34.89 171.08 32.7299 171.08H30.78V166.91H32.77C34.76 166.91 36.22 166.65 37.14 166.13C38.06 165.61 38.52 164.71 38.52 163.45C38.52 161.5 37.3 160.53 34.86 160.53C34.02 160.53 33.16 160.67 32.28 160.95C31.4 161.23 30.4399 161.72 29.3699 162.41L26.86 158.67C29.2 156.98 31.9999 156.14 35.2399 156.14C37.8999 156.14 39.9999 156.68 41.5399 157.76C43.0799 158.84 43.8699 160.34 43.8699 162.26Z" fill="white"/>
<path d="M44.95 233.75H41.86V239.08H36.55V233.75H25.58V229.97L36.8499 213.38H41.86V229.53H44.95V233.75ZM36.55 229.54V225.18C36.55 224.45 36.58 223.4 36.64 222.02C36.7 220.64 36.75 219.83 36.78 219.61H36.64C36.21 220.57 35.68 221.51 35.08 222.42L30.3699 229.54H36.55V229.54Z" fill="white"/>
<path d="M35.76 279.62C38.24 279.62 40.22 280.32 41.69 281.71C43.16 283.1 43.9 285.01 43.9 287.44C43.9 290.31 43.02 292.52 41.25 294.07C39.48 295.62 36.95 296.39 33.66 296.39C30.8 296.39 28.49 295.93 26.73 295V290.31C27.66 290.8 28.73 291.2 29.96 291.51C31.19 291.82 32.36 291.98 33.46 291.98C36.78 291.98 38.43 290.62 38.43 287.9C38.43 285.31 36.71 284.02 33.28 284.02C32.66 284.02 31.97 284.08 31.22 284.2C30.47 284.32 29.86 284.45 29.39 284.6L27.23 283.44L28.2 270.34H42.14V274.95H32.96L32.49 279.99L33.11 279.87C33.82 279.71 34.7 279.62 35.76 279.62Z" fill="white"/>
<path d="M26.34 341.72C26.34 336.63 27.42 332.85 29.57 330.36C31.72 327.87 34.94 326.63 39.23 326.63C40.69 326.63 41.84 326.72 42.68 326.89V331.23C41.64 331 40.61 330.88 39.59 330.88C37.73 330.88 36.21 331.16 35.03 331.72C33.85 332.28 32.97 333.11 32.38 334.22C31.79 335.33 31.45 336.89 31.34 338.91H31.57C32.73 336.92 34.59 335.92 37.14 335.92C39.44 335.92 41.24 336.64 42.54 338.08C43.84 339.52 44.49 341.51 44.49 344.06C44.49 346.8 43.72 348.97 42.17 350.57C40.62 352.17 38.48 352.97 35.74 352.97C33.84 352.97 32.19 352.53 30.77 351.65C29.35 350.77 28.27 349.49 27.5 347.8C26.73 346.11 26.34 344.1 26.34 341.72ZM35.62 348.65C36.78 348.65 37.67 348.26 38.29 347.48C38.91 346.7 39.22 345.59 39.22 344.15C39.22 342.9 38.93 341.91 38.35 341.19C37.77 340.47 36.89 340.11 35.72 340.11C34.62 340.11 33.68 340.47 32.9 341.18C32.12 341.89 31.73 342.73 31.73 343.68C31.73 345.07 32.1 346.25 32.83 347.21C33.56 348.17 34.49 348.65 35.62 348.65Z" fill="white"/>
<path d="M31.99 7.46021V18.5502C31.99 19.8202 31.71 20.9302 31.14 21.8802C30.57 22.8302 29.76 23.5602 28.68 24.0702C27.6 24.5802 26.3401 24.8302 24.8801 24.8302C22.6801 24.8302 20.97 24.2702 19.75 23.1402C18.53 22.0102 17.92 20.4702 17.92 18.5102V7.4702H21.54V17.9602C21.54 19.2802 21.81 20.2502 22.34 20.8702C22.87 21.4902 23.75 21.8002 24.98 21.8002C26.17 21.8002 27.03 21.4902 27.56 20.8702C28.09 20.2502 28.36 19.2702 28.36 17.9502V7.4902H31.99V7.46021Z" fill="#F1687D"/>
<path d="M45.0501 20.7002C45.0501 22.0402 44.5801 23.0702 43.6501 23.7702C42.7201 24.4702 41.3201 24.8202 39.4601 24.8202C38.5101 24.8202 37.6901 24.7602 37.0201 24.6302C36.3501 24.5002 35.7201 24.3102 35.1301 24.0602V21.1102C35.7901 21.4202 36.5401 21.6802 37.3701 21.9002C38.2001 22.1202 38.9301 22.2202 39.5701 22.2202C40.8701 22.2202 41.5201 21.8402 41.5201 21.1002C41.5201 20.8202 41.4301 20.5902 41.2601 20.4102C41.0901 20.2302 40.7901 20.0302 40.3701 19.8102C39.9501 19.5902 39.3901 19.3302 38.6801 19.0302C37.6701 18.6102 36.9301 18.2202 36.4601 17.8602C35.9901 17.5002 35.6401 17.0902 35.4301 16.6202C35.2201 16.1502 35.1101 15.5802 35.1101 14.9002C35.1101 13.7402 35.5601 12.8402 36.4601 12.2002C37.3601 11.5602 38.6401 11.2402 40.3001 11.2402C41.8801 11.2402 43.4101 11.5802 44.9101 12.2702L43.8301 14.8502C43.1701 14.5702 42.5601 14.3402 41.9901 14.1602C41.4201 13.9802 40.8401 13.8902 40.2401 13.8902C39.1901 13.8902 38.6601 14.1802 38.6601 14.7502C38.6601 15.0702 38.8301 15.3502 39.1701 15.5802C39.5101 15.8102 40.2501 16.1602 41.4001 16.6202C42.4201 17.0302 43.1701 17.4202 43.6501 17.7802C44.1301 18.1402 44.4801 18.5502 44.7001 19.0202C44.9201 19.4902 45.0501 20.0502 45.0501 20.7002Z" fill="#F1687D"/>
<path d="M53.7701 24.8302C51.6601 24.8302 50.01 24.2502 48.82 23.0802C47.63 21.9102 47.04 20.2702 47.04 18.1302C47.04 15.9302 47.59 14.2402 48.69 13.0402C49.79 11.8402 51.31 11.2402 53.24 11.2402C55.09 11.2402 56.53 11.7702 57.56 12.8202C58.59 13.8702 59.11 15.3302 59.11 17.1902V18.9202H50.66C50.7 19.9402 51 20.7302 51.56 21.3002C52.12 21.8702 52.91 22.1602 53.93 22.1602C54.72 22.1602 55.47 22.0802 56.17 21.9102C56.87 21.7402 57.61 21.4802 58.37 21.1202V23.8902C57.75 24.2002 57.08 24.4302 56.37 24.5902C55.66 24.7502 54.7901 24.8302 53.7701 24.8302ZM53.26 13.7902C52.5 13.7902 51.91 14.0302 51.48 14.5102C51.05 14.9902 50.8 15.6702 50.74 16.5502H55.76C55.74 15.6702 55.51 14.9902 55.07 14.5102C54.63 14.0302 54.02 13.7902 53.26 13.7902Z" fill="#F1687D"/>
<path d="M69.33 11.25C69.81 11.25 70.22 11.29 70.54 11.36L70.27 14.71C69.98 14.63 69.63 14.59 69.22 14.59C68.08 14.59 67.19 14.88 66.55 15.47C65.91 16.06 65.59 16.88 65.59 17.93V24.6H62.02V11.5H64.73L65.26 13.7H65.44C65.85 12.97 66.4 12.37 67.09 11.92C67.78 11.47 68.52 11.25 69.33 11.25Z" fill="#F1687D"/>
<path d="M86.04 24.5902H82.41V10.4802H77.76V7.46021H90.7V10.4802H86.05V24.5902H86.04Z" fill="#F1687D"/>
<path d="M101.37 24.5902L100.68 22.8102H100.59C99.9901 23.5702 99.3701 24.0902 98.7301 24.3902C98.0901 24.6902 97.2601 24.8302 96.2401 24.8302C94.9801 24.8302 93.9901 24.4702 93.2701 23.7502C92.5501 23.0302 92.1901 22.0102 92.1901 20.6802C92.1901 19.2902 92.6801 18.2602 93.6501 17.6002C94.6201 16.9402 96.0901 16.5702 98.0501 16.5002L100.32 16.4302V15.8602C100.32 14.5302 99.6401 13.8702 98.2801 13.8702C97.2301 13.8702 96.0001 14.1902 94.5901 14.8202L93.4101 12.4102C94.9201 11.6202 96.5901 11.2302 98.4301 11.2302C100.19 11.2302 101.54 11.6102 102.47 12.3802C103.4 13.1502 103.88 14.3102 103.88 15.8702V24.6002H101.37V24.5902ZM100.32 18.5202L98.9401 18.5702C97.9001 18.6002 97.1301 18.7902 96.6201 19.1302C96.1101 19.4702 95.8601 20.0002 95.8601 20.7002C95.8601 21.7102 96.4401 22.2102 97.5901 22.2102C98.4201 22.2102 99.0801 21.9702 99.5801 21.5002C100.08 21.0302 100.32 20.3902 100.32 19.6002V18.5202V18.5202Z" fill="#F1687D"/>
<path d="M116.69 20.7002C116.69 22.0402 116.22 23.0702 115.29 23.7702C114.36 24.4702 112.96 24.8202 111.1 24.8202C110.15 24.8202 109.33 24.7602 108.66 24.6302C107.99 24.5002 107.36 24.3102 106.77 24.0602V21.1102C107.43 21.4202 108.18 21.6802 109.01 21.9002C109.84 22.1202 110.57 22.2202 111.21 22.2202C112.51 22.2202 113.16 21.8402 113.16 21.1002C113.16 20.8202 113.07 20.5902 112.9 20.4102C112.73 20.2302 112.43 20.0302 112.01 19.8102C111.59 19.5902 111.03 19.3302 110.32 19.0302C109.31 18.6102 108.57 18.2202 108.1 17.8602C107.63 17.5002 107.28 17.0902 107.07 16.6202C106.86 16.1502 106.75 15.5802 106.75 14.9002C106.75 13.7402 107.2 12.8402 108.1 12.2002C109 11.5602 110.28 11.2402 111.94 11.2402C113.52 11.2402 115.05 11.5802 116.55 12.2702L115.47 14.8502C114.81 14.5702 114.2 14.3402 113.63 14.1602C113.06 13.9802 112.48 13.8902 111.88 13.8902C110.83 13.8902 110.3 14.1802 110.3 14.7502C110.3 15.0702 110.47 15.3502 110.81 15.5802C111.15 15.8102 111.89 16.1602 113.04 16.6202C114.06 17.0302 114.81 17.4202 115.29 17.7802C115.77 18.1402 116.12 18.5502 116.34 19.0202C116.56 19.4902 116.69 20.0502 116.69 20.7002Z" fill="#F1687D"/>
<path d="M122.91 17.4701L124.47 15.4801L128.14 11.5001H132.17L126.97 17.1801L132.49 24.6001H128.37L124.6 19.2901L123.06 20.5201V24.6001H119.49V6.37012H123.06V14.5001L122.87 17.4801H122.91V17.4701Z" fill="#F1687D"/>
<path d="M143.5 20.7002C143.5 22.0402 143.03 23.0702 142.1 23.7702C141.17 24.4702 139.77 24.8202 137.91 24.8202C136.96 24.8202 136.14 24.7602 135.47 24.6302C134.8 24.5002 134.17 24.3102 133.58 24.0602V21.1102C134.24 21.4202 134.99 21.6802 135.82 21.9002C136.65 22.1202 137.38 22.2202 138.02 22.2202C139.32 22.2202 139.97 21.8402 139.97 21.1002C139.97 20.8202 139.88 20.5902 139.71 20.4102C139.54 20.2302 139.24 20.0302 138.82 19.8102C138.4 19.5902 137.84 19.3302 137.13 19.0302C136.12 18.6102 135.38 18.2202 134.91 17.8602C134.44 17.5002 134.09 17.0902 133.88 16.6202C133.67 16.1502 133.56 15.5802 133.56 14.9002C133.56 13.7402 134.01 12.8402 134.91 12.2002C135.81 11.5602 137.09 11.2402 138.75 11.2402C140.33 11.2402 141.86 11.5802 143.36 12.2702L142.28 14.8502C141.62 14.5702 141.01 14.3402 140.44 14.1602C139.87 13.9802 139.29 13.8902 138.69 13.8902C137.64 13.8902 137.11 14.1802 137.11 14.7502C137.11 15.0702 137.28 15.3502 137.62 15.5802C137.96 15.8102 138.7 16.1602 139.85 16.6202C140.87 17.0302 141.62 17.4202 142.1 17.7802C142.58 18.1402 142.93 18.5502 143.15 19.0202C143.37 19.4902 143.5 20.0502 143.5 20.7002Z" fill="#F1687D"/>
<path d="M83.83 58.6299C83.83 59.9199 83.37 60.9299 82.44 61.6799C81.51 62.4299 80.22 62.7899 78.57 62.7899C77.05 62.7899 75.7 62.4999 74.53 61.9299V59.1199C75.49 59.5499 76.31 59.8499 76.98 60.0299C77.65 60.2099 78.26 60.2899 78.81 60.2899C79.47 60.2899 79.98 60.1599 80.34 59.9099C80.7 59.6599 80.87 59.2799 80.87 58.7799C80.87 58.4999 80.79 58.2499 80.64 58.0299C80.49 57.8099 80.25 57.5999 79.95 57.3999C79.65 57.1999 79.03 56.8799 78.1 56.4299C77.23 56.0199 76.57 55.6299 76.14 55.2499C75.71 54.8699 75.36 54.4299 75.1 53.9299C74.84 53.4299 74.71 52.8399 74.71 52.1699C74.71 50.9099 75.14 49.9099 75.99 49.1899C76.84 48.4699 78.03 48.1099 79.54 48.1099C80.28 48.1099 80.99 48.1999 81.66 48.3699C82.33 48.5399 83.04 48.7899 83.77 49.1099L82.79 51.4599C82.03 51.1499 81.4 50.9299 80.9 50.8099C80.4 50.6899 79.91 50.6199 79.43 50.6199C78.86 50.6199 78.42 50.7499 78.11 51.0199C77.8 51.2899 77.65 51.6399 77.65 52.0599C77.65 52.3299 77.71 52.5599 77.84 52.7599C77.97 52.9599 78.16 53.1499 78.43 53.3399C78.7 53.5299 79.34 53.8599 80.35 54.3399C81.68 54.9799 82.6 55.6199 83.09 56.2599C83.58 56.8999 83.83 57.6999 83.83 58.6299Z" fill="#426A80"/>
<path d="M91.12 62.79C89.36 62.79 87.99 62.31 87 61.33C86.01 60.35 85.52 58.99 85.52 57.21C85.52 55.38 85.98 53.97 86.89 52.97C87.8 51.97 89.07 51.47 90.68 51.47C92.22 51.47 93.42 51.91 94.28 52.79C95.14 53.67 95.57 54.88 95.57 56.43V57.88H88.53C88.56 58.73 88.81 59.39 89.28 59.86C89.75 60.33 90.41 60.57 91.25 60.57C91.91 60.57 92.53 60.5 93.12 60.36C93.71 60.22 94.32 60.01 94.96 59.71V62.01C94.44 62.27 93.88 62.46 93.29 62.59C92.7 62.72 91.97 62.79 91.12 62.79ZM90.7 53.59C90.07 53.59 89.57 53.79 89.22 54.19C88.87 54.59 88.66 55.16 88.6 55.89H92.78C92.77 55.15 92.57 54.59 92.2 54.19C91.83 53.79 91.33 53.59 90.7 53.59Z" fill="#426A80"/>
<path d="M104.93 62.59L104.35 61.11H104.27C103.77 61.74 103.25 62.18 102.72 62.42C102.19 62.66 101.5 62.79 100.64 62.79C99.59 62.79 98.77 62.49 98.16 61.89C97.55 61.29 97.26 60.44 97.26 59.33C97.26 58.17 97.67 57.32 98.48 56.77C99.29 56.22 100.51 55.92 102.15 55.86L104.04 55.8V55.32C104.04 54.21 103.47 53.66 102.34 53.66C101.47 53.66 100.44 53.92 99.26 54.45L98.27 52.44C99.53 51.78 100.92 51.45 102.45 51.45C103.91 51.45 105.04 51.77 105.82 52.41C106.6 53.05 106.99 54.02 106.99 55.32V62.6H104.93V62.59ZM104.05 57.53L102.9 57.57C102.03 57.6 101.39 57.75 100.97 58.04C100.55 58.33 100.34 58.76 100.34 59.35C100.34 60.19 100.82 60.61 101.79 60.61C102.48 60.61 103.03 60.41 103.45 60.01C103.87 59.61 104.07 59.09 104.07 58.43V57.53H104.05Z" fill="#426A80"/>
<path d="M116.17 51.47C116.57 51.47 116.91 51.5 117.18 51.56L116.96 54.35C116.72 54.29 116.43 54.25 116.08 54.25C115.13 54.25 114.39 54.49 113.86 54.98C113.33 55.47 113.06 56.15 113.06 57.03V62.59H110.08V51.67H112.34L112.78 53.51H112.93C113.27 52.9 113.73 52.41 114.3 52.03C114.87 51.65 115.49 51.47 116.17 51.47Z" fill="#426A80"/>
<path d="M123.59 62.79C120.19 62.79 118.49 60.92 118.49 57.19C118.49 55.33 118.95 53.92 119.88 52.94C120.81 51.96 122.13 51.47 123.85 51.47C125.11 51.47 126.25 51.72 127.25 52.21L126.37 54.51C125.9 54.32 125.47 54.17 125.06 54.05C124.65 53.93 124.25 53.87 123.85 53.87C122.3 53.87 121.53 54.97 121.53 57.17C121.53 59.31 122.3 60.37 123.85 60.37C124.42 60.37 124.95 60.29 125.44 60.14C125.93 59.99 126.42 59.75 126.9 59.42V61.97C126.42 62.28 125.93 62.49 125.44 62.6C124.95 62.71 124.34 62.79 123.59 62.79Z" fill="#426A80"/>
<path d="M139.52 62.5899H136.54V56.2099C136.54 54.6299 135.95 53.8499 134.78 53.8499C133.95 53.8499 133.34 54.1299 132.97 54.6999C132.6 55.2699 132.41 56.1799 132.41 57.4499V62.5899H129.43V47.3899H132.41V50.4899C132.41 50.7299 132.39 51.2999 132.34 52.1899L132.27 53.0699H132.43C133.09 51.9999 134.15 51.4699 135.59 51.4699C136.87 51.4699 137.85 51.8199 138.51 52.5099C139.17 53.1999 139.51 54.1899 139.51 55.4799V62.5899H139.52Z" fill="#426A80"/>
<path d="M154.72 62.59L154.14 61.11H154.06C153.56 61.74 153.04 62.18 152.51 62.42C151.98 62.66 151.29 62.79 150.43 62.79C149.38 62.79 148.56 62.49 147.95 61.89C147.34 61.29 147.05 60.44 147.05 59.33C147.05 58.17 147.46 57.32 148.27 56.77C149.08 56.22 150.3 55.92 151.94 55.86L153.83 55.8V55.32C153.83 54.21 153.26 53.66 152.13 53.66C151.26 53.66 150.23 53.92 149.05 54.45L148.06 52.44C149.32 51.78 150.71 51.45 152.24 51.45C153.7 51.45 154.83 51.77 155.61 52.41C156.39 53.05 156.78 54.02 156.78 55.32V62.6H154.72V62.59ZM153.84 57.53L152.69 57.57C151.82 57.6 151.18 57.75 150.76 58.04C150.34 58.33 150.13 58.76 150.13 59.35C150.13 60.19 150.61 60.61 151.58 60.61C152.27 60.61 152.82 60.41 153.24 60.01C153.66 59.61 153.86 59.09 153.86 58.43V57.53H153.84Z" fill="#426A80"/>
<path d="M169.94 62.59H166.96V56.21C166.96 55.42 166.82 54.83 166.54 54.44C166.26 54.05 165.81 53.85 165.2 53.85C164.37 53.85 163.76 54.13 163.39 54.68C163.02 55.23 162.83 56.16 162.83 57.45V62.59H159.85V51.67H162.13L162.53 53.07H162.7C163.03 52.54 163.49 52.14 164.07 51.87C164.65 51.6 165.32 51.46 166.06 51.46C167.33 51.46 168.29 51.8 168.95 52.49C169.61 53.18 169.94 54.17 169.94 55.46V62.59V62.59Z" fill="#426A80"/>
<path d="M185.14 62.59L184.56 61.11H184.48C183.98 61.74 183.46 62.18 182.93 62.42C182.4 62.66 181.71 62.79 180.85 62.79C179.8 62.79 178.98 62.49 178.37 61.89C177.76 61.29 177.47 60.44 177.47 59.33C177.47 58.17 177.88 57.32 178.69 56.77C179.5 56.22 180.72 55.92 182.36 55.86L184.25 55.8V55.32C184.25 54.21 183.68 53.66 182.55 53.66C181.68 53.66 180.65 53.92 179.47 54.45L178.48 52.44C179.74 51.78 181.13 51.45 182.66 51.45C184.12 51.45 185.25 51.77 186.03 52.41C186.81 53.05 187.2 54.02 187.2 55.32V62.6H185.14V62.59ZM184.26 57.53L183.11 57.57C182.24 57.6 181.6 57.75 181.18 58.04C180.76 58.33 180.55 58.76 180.55 59.35C180.55 60.19 181.03 60.61 182 60.61C182.69 60.61 183.24 60.41 183.66 60.01C184.08 59.61 184.28 59.09 184.28 58.43V57.53H184.26Z" fill="#426A80"/>
<path d="M196.38 51.47C196.78 51.47 197.12 51.5 197.39 51.56L197.17 54.35C196.93 54.29 196.64 54.25 196.29 54.25C195.34 54.25 194.6 54.49 194.07 54.98C193.54 55.47 193.27 56.15 193.27 57.03V62.59H190.29V51.67H192.55L192.99 53.51H193.14C193.48 52.9 193.94 52.41 194.51 52.03C195.08 51.65 195.7 51.47 196.38 51.47Z" fill="#426A80"/>
<path d="M203.96 60.4199C204.48 60.4199 205.11 60.3099 205.84 60.0799V62.2999C205.1 62.6299 204.19 62.7999 203.11 62.7999C201.92 62.7999 201.05 62.4999 200.51 61.8999C199.97 61.2999 199.69 60.3899 199.69 59.1899V53.9299H198.26V52.6699L199.9 51.6699L200.76 49.3699H202.66V51.6899H205.72V53.9299H202.66V59.1899C202.66 59.6099 202.78 59.9299 203.02 60.1299C203.26 60.3299 203.57 60.4199 203.96 60.4199Z" fill="#426A80"/>
<path d="M207.92 48.8499C207.92 47.8799 208.46 47.3899 209.54 47.3899C210.62 47.3899 211.16 47.8699 211.16 48.8499C211.16 49.3099 211.02 49.6699 210.75 49.9299C210.48 50.1899 210.07 50.3199 209.53 50.3199C208.46 50.3199 207.92 49.8299 207.92 48.8499ZM211.02 62.5899H208.04V51.6699H211.02V62.5899Z" fill="#426A80"/>
<path d="M218.58 62.79C215.18 62.79 213.48 60.92 213.48 57.19C213.48 55.33 213.94 53.92 214.87 52.94C215.8 51.96 217.12 51.47 218.84 51.47C220.1 51.47 221.24 51.72 222.24 52.21L221.36 54.51C220.89 54.32 220.46 54.17 220.05 54.05C219.64 53.93 219.24 53.87 218.84 53.87C217.29 53.87 216.52 54.97 216.52 57.17C216.52 59.31 217.29 60.37 218.84 60.37C219.41 60.37 219.94 60.29 220.43 60.14C220.92 59.99 221.41 59.75 221.89 59.42V61.97C221.41 62.28 220.92 62.49 220.43 62.6C219.94 62.71 219.33 62.79 218.58 62.79Z" fill="#426A80"/>
<path d="M227.41 62.5899H224.43V47.3899H227.41V62.5899Z" fill="#426A80"/>
<path d="M235.48 62.79C233.72 62.79 232.35 62.31 231.36 61.33C230.37 60.35 229.88 58.99 229.88 57.21C229.88 55.38 230.34 53.97 231.25 52.97C232.16 51.97 233.43 51.47 235.04 51.47C236.58 51.47 237.78 51.91 238.64 52.79C239.5 53.67 239.93 54.88 239.93 56.43V57.88H232.89C232.92 58.73 233.17 59.39 233.64 59.86C234.11 60.33 234.77 60.57 235.61 60.57C236.27 60.57 236.89 60.5 237.48 60.36C238.07 60.22 238.68 60.01 239.32 59.71V62.01C238.8 62.27 238.24 62.46 237.65 62.59C237.06 62.72 236.33 62.79 235.48 62.79ZM235.06 53.59C234.43 53.59 233.93 53.79 233.58 54.19C233.23 54.59 233.02 55.16 232.96 55.89H237.14C237.13 55.15 236.93 54.59 236.56 54.19C236.19 53.79 235.69 53.59 235.06 53.59Z" fill="#426A80"/>
<path d="M83.54 105.54H86.6L81.75 119.82H78.45L73.61 105.54H76.67L79.36 114.04C79.51 114.54 79.66 115.13 79.82 115.79C79.98 116.45 80.08 116.92 80.12 117.18C80.19 116.58 80.44 115.53 80.85 114.04L83.54 105.54Z" fill="#426A80"/>
<path d="M88.04 106.08C88.04 105.11 88.58 104.62 89.66 104.62C90.74 104.62 91.28 105.1 91.28 106.08C91.28 106.54 91.14 106.9 90.87 107.16C90.6 107.42 90.19 107.55 89.65 107.55C88.58 107.55 88.04 107.06 88.04 106.08ZM91.14 119.82H88.16V108.9H91.14V119.82Z" fill="#426A80"/>
<path d="M99.21 120.02C97.45 120.02 96.08 119.54 95.09 118.56C94.1 117.58 93.61 116.22 93.61 114.44C93.61 112.61 94.07 111.2 94.98 110.2C95.89 109.2 97.16 108.7 98.77 108.7C100.31 108.7 101.51 109.14 102.37 110.02C103.23 110.9 103.66 112.11 103.66 113.66V115.11H96.62C96.65 115.96 96.9 116.62 97.37 117.09C97.84 117.56 98.5 117.8 99.34 117.8C100 117.8 100.62 117.73 101.21 117.59C101.8 117.45 102.41 117.24 103.05 116.94V119.24C102.53 119.5 101.97 119.69 101.38 119.82C100.79 119.95 100.06 120.02 99.21 120.02ZM98.79 110.82C98.16 110.82 97.66 111.02 97.31 111.42C96.96 111.82 96.75 112.39 96.69 113.12H100.87C100.86 112.38 100.66 111.82 100.29 111.42C99.92 111.02 99.42 110.82 98.79 110.82Z" fill="#426A80"/>
<path d="M115.06 119.82L114.22 116L113.09 111.18H113.02L111.03 119.82H107.83L104.72 108.9H107.69L108.95 113.73C109.15 114.6 109.36 115.79 109.57 117.31H109.63C109.66 116.82 109.77 116.03 109.97 114.96L110.13 114.13L111.48 108.9H114.76L116.04 114.13C116.07 114.27 116.11 114.48 116.16 114.76C116.21 115.04 116.27 115.34 116.32 115.65C116.37 115.96 116.42 116.27 116.46 116.58C116.5 116.89 116.53 117.13 116.53 117.31H116.59C116.65 116.84 116.75 116.2 116.9 115.38C117.05 114.56 117.16 114.01 117.22 113.72L118.53 108.89H121.45L118.31 119.81H115.06V119.82Z" fill="#426A80"/>
<path d="M135.33 119.82L134.75 118.34H134.67C134.17 118.97 133.65 119.41 133.12 119.65C132.59 119.89 131.9 120.02 131.04 120.02C129.99 120.02 129.17 119.72 128.56 119.12C127.95 118.52 127.66 117.67 127.66 116.56C127.66 115.4 128.07 114.55 128.88 114C129.69 113.45 130.91 113.15 132.55 113.09L134.44 113.03V112.55C134.44 111.44 133.87 110.89 132.74 110.89C131.87 110.89 130.84 111.15 129.66 111.68L128.67 109.67C129.93 109.01 131.32 108.68 132.85 108.68C134.31 108.68 135.44 109 136.22 109.64C137 110.28 137.39 111.25 137.39 112.55V119.83H135.33V119.82ZM134.45 114.76L133.3 114.8C132.43 114.83 131.79 114.98 131.37 115.27C130.95 115.56 130.74 115.99 130.74 116.58C130.74 117.42 131.22 117.84 132.19 117.84C132.88 117.84 133.43 117.64 133.85 117.24C134.27 116.84 134.47 116.32 134.47 115.66V114.76H134.45Z" fill="#426A80"/>
<path d="M150.56 119.82H147.58V113.44C147.58 112.65 147.44 112.06 147.16 111.67C146.88 111.28 146.43 111.08 145.82 111.08C144.99 111.08 144.38 111.36 144.01 111.91C143.64 112.46 143.45 113.39 143.45 114.68V119.82H140.47V108.9H142.75L143.15 110.3H143.32C143.65 109.77 144.11 109.37 144.69 109.1C145.27 108.83 145.94 108.69 146.68 108.69C147.95 108.69 148.91 109.03 149.57 109.72C150.23 110.41 150.56 111.4 150.56 112.69V119.82V119.82Z" fill="#426A80"/>
<path d="M165.75 119.82L165.17 118.34H165.09C164.59 118.97 164.07 119.41 163.54 119.65C163.01 119.89 162.32 120.02 161.46 120.02C160.41 120.02 159.59 119.72 158.98 119.12C158.37 118.52 158.08 117.67 158.08 116.56C158.08 115.4 158.49 114.55 159.3 114C160.11 113.45 161.33 113.15 162.97 113.09L164.86 113.03V112.55C164.86 111.44 164.29 110.89 163.16 110.89C162.29 110.89 161.26 111.15 160.08 111.68L159.09 109.67C160.35 109.01 161.74 108.68 163.27 108.68C164.73 108.68 165.86 109 166.64 109.64C167.42 110.28 167.81 111.25 167.81 112.55V119.83H165.75V119.82ZM164.87 114.76L163.72 114.8C162.85 114.83 162.21 114.98 161.79 115.27C161.37 115.56 161.16 115.99 161.16 116.58C161.16 117.42 161.64 117.84 162.61 117.84C163.3 117.84 163.85 117.64 164.27 117.24C164.69 116.84 164.89 116.32 164.89 115.66V114.76H164.87Z" fill="#426A80"/>
<path d="M176.99 108.7C177.39 108.7 177.73 108.73 178 108.79L177.78 111.58C177.54 111.52 177.25 111.48 176.9 111.48C175.95 111.48 175.21 111.72 174.68 112.21C174.15 112.7 173.88 113.38 173.88 114.26V119.82H170.9V108.9H173.16L173.6 110.74H173.75C174.09 110.13 174.55 109.64 175.12 109.26C175.69 108.88 176.31 108.7 176.99 108.7Z" fill="#426A80"/>
<path d="M184.58 117.64C185.1 117.64 185.73 117.53 186.46 117.3V119.52C185.72 119.85 184.81 120.02 183.73 120.02C182.54 120.02 181.67 119.72 181.13 119.12C180.59 118.52 180.31 117.61 180.31 116.41V111.15H178.88V109.89L180.52 108.89L181.38 106.59H183.28V108.91H186.34V111.15H183.28V116.41C183.28 116.83 183.4 117.15 183.64 117.35C183.88 117.55 184.19 117.64 184.58 117.64Z" fill="#426A80"/>
<path d="M188.53 106.08C188.53 105.11 189.07 104.62 190.15 104.62C191.23 104.62 191.77 105.1 191.77 106.08C191.77 106.54 191.63 106.9 191.36 107.16C191.09 107.42 190.68 107.55 190.14 107.55C189.07 107.55 188.53 107.06 188.53 106.08ZM191.64 119.82H188.66V108.9H191.64V119.82Z" fill="#426A80"/>
<path d="M199.2 120.02C195.8 120.02 194.1 118.15 194.1 114.42C194.1 112.56 194.56 111.15 195.49 110.17C196.42 109.19 197.74 108.7 199.46 108.7C200.72 108.7 201.86 108.95 202.86 109.44L201.98 111.74C201.51 111.55 201.08 111.4 200.67 111.28C200.26 111.16 199.86 111.1 199.46 111.1C197.91 111.1 197.14 112.2 197.14 114.4C197.14 116.54 197.91 117.6 199.46 117.6C200.03 117.6 200.56 117.52 201.05 117.37C201.54 117.22 202.03 116.98 202.51 116.65V119.2C202.03 119.51 201.54 119.72 201.05 119.83C200.56 119.94 199.95 120.02 199.2 120.02Z" fill="#426A80"/>
<path d="M208.03 119.82H205.05V104.62H208.03V119.82Z" fill="#426A80"/>
<path d="M216.09 120.02C214.33 120.02 212.96 119.54 211.97 118.56C210.98 117.58 210.49 116.22 210.49 114.44C210.49 112.61 210.95 111.2 211.86 110.2C212.77 109.2 214.04 108.7 215.65 108.7C217.19 108.7 218.39 109.14 219.25 110.02C220.11 110.9 220.54 112.11 220.54 113.66V115.11H213.5C213.53 115.96 213.78 116.62 214.25 117.09C214.72 117.56 215.38 117.8 216.22 117.8C216.88 117.8 217.5 117.73 218.09 117.59C218.68 117.45 219.29 117.24 219.93 116.94V119.24C219.41 119.5 218.85 119.69 218.26 119.82C217.67 119.95 216.95 120.02 216.09 120.02ZM215.67 110.82C215.04 110.82 214.54 111.02 214.19 111.42C213.84 111.82 213.63 112.39 213.57 113.12H217.75C217.74 112.38 217.54 111.82 217.17 111.42C216.8 111.02 216.3 110.82 215.67 110.82Z" fill="#426A80"/>
<path d="M77.8 177.91H74.8199V163.63H83V166.11H77.7899V169.79H82.63V172.26H77.7899V177.91H77.8Z" fill="#426A80"/>
<path d="M85.4299 164.17C85.4299 163.2 85.9699 162.71 87.0499 162.71C88.1299 162.71 88.6699 163.19 88.6699 164.17C88.6699 164.63 88.5299 164.99 88.2599 165.25C87.9899 165.51 87.5799 165.64 87.0399 165.64C85.9699 165.63 85.4299 165.15 85.4299 164.17ZM88.5399 177.91H85.5599V166.99H88.5399V177.91Z" fill="#426A80"/>
<path d="M94.6399 177.91H91.6599V162.71H94.6399V177.91Z" fill="#426A80"/>
<path d="M102.37 175.73C102.89 175.73 103.52 175.62 104.25 175.39V177.61C103.51 177.94 102.6 178.11 101.52 178.11C100.33 178.11 99.4599 177.81 98.9199 177.21C98.3799 176.61 98.0999 175.7 98.0999 174.5V169.24H96.6699V167.98L98.3099 166.98L99.1699 164.68H101.07V167H104.13V169.24H101.07V174.5C101.07 174.92 101.19 175.24 101.43 175.44C101.67 175.64 101.98 175.73 102.37 175.73Z" fill="#426A80"/>
<path d="M111.39 178.1C109.63 178.1 108.26 177.62 107.27 176.64C106.28 175.66 105.79 174.3 105.79 172.52C105.79 170.69 106.25 169.28 107.16 168.28C108.07 167.28 109.34 166.78 110.95 166.78C112.49 166.78 113.69 167.22 114.55 168.1C115.41 168.98 115.84 170.19 115.84 171.74V173.19H108.8C108.83 174.04 109.08 174.7 109.55 175.17C110.02 175.64 110.68 175.88 111.52 175.88C112.18 175.88 112.8 175.81 113.39 175.67C113.98 175.53 114.59 175.32 115.23 175.02V177.32C114.71 177.58 114.15 177.77 113.56 177.9C112.97 178.03 112.24 178.1 111.39 178.1ZM110.97 168.9C110.34 168.9 109.84 169.1 109.49 169.5C109.14 169.9 108.93 170.47 108.87 171.2H113.05C113.04 170.46 112.84 169.9 112.47 169.5C112.1 169.1 111.6 168.9 110.97 168.9Z" fill="#426A80"/>
<path d="M124.36 166.79C124.76 166.79 125.1 166.82 125.37 166.88L125.15 169.67C124.91 169.61 124.62 169.57 124.27 169.57C123.32 169.57 122.58 169.81 122.05 170.3C121.52 170.79 121.25 171.47 121.25 172.35V177.91H118.27V166.99H120.53L120.97 168.83H121.12C121.46 168.22 121.92 167.73 122.49 167.35C123.06 166.97 123.68 166.79 124.36 166.79Z" fill="#426A80"/>
<path d="M140.16 174.67C140.16 175.79 139.77 176.64 138.99 177.23C138.21 177.82 137.05 178.11 135.5 178.11C134.71 178.11 134.03 178.06 133.47 177.95C132.91 177.84 132.39 177.68 131.9 177.48V175.02C132.45 175.28 133.08 175.5 133.77 175.67C134.46 175.84 135.07 175.93 135.6 175.93C136.68 175.93 137.22 175.62 137.22 174.99C137.22 174.76 137.15 174.57 137.01 174.42C136.87 174.27 136.62 174.11 136.27 173.92C135.92 173.73 135.45 173.52 134.86 173.27C134.02 172.92 133.4 172.59 133.01 172.29C132.62 171.99 132.33 171.65 132.15 171.26C131.97 170.87 131.88 170.4 131.88 169.83C131.88 168.86 132.26 168.11 133.01 167.58C133.76 167.05 134.83 166.78 136.21 166.78C137.52 166.78 138.8 167.07 140.05 167.64L139.15 169.79C138.6 169.56 138.09 169.36 137.62 169.21C137.15 169.06 136.66 168.99 136.16 168.99C135.28 168.99 134.84 169.23 134.84 169.7C134.84 169.97 134.98 170.2 135.26 170.39C135.54 170.58 136.16 170.87 137.12 171.26C137.97 171.61 138.6 171.93 139 172.23C139.4 172.53 139.69 172.87 139.88 173.27C140.07 173.67 140.16 174.13 140.16 174.67Z" fill="#426A80"/>
<path d="M147.42 178.1C145.66 178.1 144.29 177.62 143.3 176.64C142.31 175.66 141.82 174.3 141.82 172.52C141.82 170.69 142.28 169.28 143.19 168.28C144.1 167.28 145.37 166.78 146.98 166.78C148.52 166.78 149.72 167.22 150.58 168.1C151.44 168.98 151.87 170.19 151.87 171.74V173.19H144.83C144.86 174.04 145.11 174.7 145.58 175.17C146.05 175.64 146.71 175.88 147.55 175.88C148.21 175.88 148.83 175.81 149.42 175.67C150.01 175.53 150.62 175.32 151.26 175.02V177.32C150.74 177.58 150.18 177.77 149.59 177.9C149 178.03 148.28 178.1 147.42 178.1ZM147.01 168.9C146.38 168.9 145.88 169.1 145.53 169.5C145.18 169.9 144.97 170.47 144.91 171.2H149.09C149.08 170.46 148.88 169.9 148.51 169.5C148.14 169.1 147.64 168.9 147.01 168.9Z" fill="#426A80"/>
<path d="M161.23 177.91L160.65 176.43H160.57C160.07 177.06 159.55 177.5 159.02 177.74C158.49 177.98 157.8 178.11 156.94 178.11C155.89 178.11 155.07 177.81 154.46 177.21C153.85 176.61 153.56 175.76 153.56 174.65C153.56 173.49 153.97 172.64 154.78 172.09C155.59 171.54 156.81 171.24 158.45 171.18L160.34 171.12V170.64C160.34 169.53 159.77 168.98 158.64 168.98C157.77 168.98 156.74 169.24 155.56 169.77L154.57 167.76C155.83 167.1 157.22 166.77 158.75 166.77C160.21 166.77 161.34 167.09 162.12 167.73C162.9 168.37 163.29 169.34 163.29 170.64V177.92H161.23V177.91ZM160.35 172.85L159.2 172.89C158.33 172.92 157.69 173.07 157.27 173.36C156.85 173.65 156.64 174.08 156.64 174.67C156.64 175.51 157.12 175.93 158.09 175.93C158.78 175.93 159.33 175.73 159.75 175.33C160.17 174.93 160.37 174.41 160.37 173.75V172.85H160.35Z" fill="#426A80"/>
<path d="M172.47 166.79C172.87 166.79 173.21 166.82 173.48 166.88L173.26 169.67C173.02 169.61 172.73 169.57 172.38 169.57C171.43 169.57 170.69 169.81 170.16 170.3C169.63 170.79 169.36 171.47 169.36 172.35V177.91H166.38V166.99H168.64L169.08 168.83H169.23C169.57 168.22 170.03 167.73 170.6 167.35C171.17 166.97 171.8 166.79 172.47 166.79Z" fill="#426A80"/>
<path d="M179.9 178.1C176.5 178.1 174.8 176.23 174.8 172.5C174.8 170.64 175.26 169.23 176.19 168.25C177.12 167.27 178.44 166.78 180.16 166.78C181.42 166.78 182.56 167.03 183.56 167.52L182.68 169.82C182.21 169.63 181.78 169.48 181.37 169.36C180.96 169.24 180.56 169.18 180.16 169.18C178.61 169.18 177.84 170.28 177.84 172.48C177.84 174.62 178.61 175.68 180.16 175.68C180.73 175.68 181.26 175.6 181.75 175.45C182.24 175.3 182.73 175.06 183.21 174.73V177.28C182.73 177.59 182.24 177.8 181.75 177.91C181.26 178.02 180.64 178.1 179.9 178.1Z" fill="#426A80"/>
<path d="M195.82 177.91H192.84V171.53C192.84 169.95 192.25 169.17 191.08 169.17C190.25 169.17 189.64 169.45 189.27 170.02C188.9 170.59 188.71 171.5 188.71 172.77V177.91H185.73V162.71H188.71V165.81C188.71 166.05 188.69 166.62 188.64 167.51L188.57 168.39H188.73C189.39 167.32 190.45 166.79 191.89 166.79C193.17 166.79 194.15 167.14 194.81 167.83C195.47 168.52 195.81 169.51 195.81 170.8V177.91H195.82Z" fill="#426A80"/>
<path d="M210.18 166.79C210.58 166.79 210.92 166.82 211.19 166.88L210.97 169.67C210.73 169.61 210.44 169.57 210.09 169.57C209.14 169.57 208.4 169.81 207.87 170.3C207.34 170.79 207.07 171.47 207.07 172.35V177.91H204.09V166.99H206.35L206.79 168.83H206.94C207.28 168.22 207.74 167.73 208.31 167.35C208.88 166.97 209.5 166.79 210.18 166.79Z" fill="#426A80"/>
<path d="M218.11 178.1C216.35 178.1 214.98 177.62 213.99 176.64C213 175.66 212.51 174.3 212.51 172.52C212.51 170.69 212.97 169.28 213.88 168.28C214.79 167.28 216.06 166.78 217.67 166.78C219.21 166.78 220.41 167.22 221.27 168.1C222.13 168.98 222.56 170.19 222.56 171.74V173.19H215.52C215.55 174.04 215.8 174.7 216.27 175.17C216.74 175.64 217.4 175.88 218.24 175.88C218.9 175.88 219.52 175.81 220.11 175.67C220.7 175.53 221.31 175.32 221.95 175.02V177.32C221.43 177.58 220.87 177.77 220.28 177.9C219.69 178.03 218.96 178.1 218.11 178.1ZM217.69 168.9C217.06 168.9 216.56 169.1 216.21 169.5C215.86 169.9 215.65 170.47 215.59 171.2H219.77C219.76 170.46 219.56 169.9 219.19 169.5C218.82 169.1 218.32 168.9 217.69 168.9Z" fill="#426A80"/>
<path d="M232.6 174.67C232.6 175.79 232.21 176.64 231.43 177.23C230.65 177.82 229.49 178.11 227.94 178.11C227.15 178.11 226.47 178.06 225.91 177.95C225.35 177.84 224.83 177.68 224.34 177.48V175.02C224.89 175.28 225.52 175.5 226.21 175.67C226.9 175.84 227.51 175.93 228.04 175.93C229.12 175.93 229.66 175.62 229.66 174.99C229.66 174.76 229.59 174.57 229.45 174.42C229.31 174.27 229.06 174.11 228.71 173.92C228.36 173.73 227.89 173.52 227.3 173.27C226.46 172.92 225.84 172.59 225.45 172.29C225.06 171.99 224.77 171.65 224.59 171.26C224.41 170.87 224.32 170.4 224.32 169.83C224.32 168.86 224.7 168.11 225.45 167.58C226.2 167.05 227.27 166.78 228.65 166.78C229.97 166.78 231.24 167.07 232.49 167.64L231.59 169.79C231.04 169.56 230.53 169.36 230.06 169.21C229.59 169.06 229.1 168.99 228.6 168.99C227.72 168.99 227.28 169.23 227.28 169.7C227.28 169.97 227.42 170.2 227.7 170.39C227.98 170.58 228.6 170.87 229.56 171.26C230.41 171.61 231.04 171.93 231.44 172.23C231.84 172.53 232.13 172.87 232.32 173.27C232.51 173.67 232.6 174.13 232.6 174.67Z" fill="#426A80"/>
<path d="M242.66 177.91L242.26 176.51H242.1C241.78 177.02 241.33 177.41 240.74 177.69C240.15 177.97 239.49 178.11 238.74 178.11C237.46 178.11 236.49 177.77 235.84 177.08C235.19 176.39 234.86 175.41 234.86 174.12V167H237.84V173.38C237.84 174.17 237.98 174.76 238.26 175.15C238.54 175.54 238.99 175.74 239.6 175.74C240.43 175.74 241.04 175.46 241.41 174.91C241.78 174.36 241.97 173.43 241.97 172.14V167H244.95V177.92H242.66V177.91Z" fill="#426A80"/>
<path d="M251.05 177.91H248.07V162.71H251.05V177.91Z" fill="#426A80"/>
<path d="M258.77 175.73C259.29 175.73 259.92 175.62 260.65 175.39V177.61C259.91 177.94 259 178.11 257.92 178.11C256.73 178.11 255.86 177.81 255.32 177.21C254.78 176.61 254.5 175.7 254.5 174.5V169.24H253.07V167.98L254.71 166.98L255.57 164.68H257.47V167H260.53V169.24H257.47V174.5C257.47 174.92 257.59 175.24 257.83 175.44C258.07 175.64 258.38 175.73 258.77 175.73Z" fill="#426A80"/>
<path d="M270.47 174.67C270.47 175.79 270.08 176.64 269.3 177.23C268.52 177.82 267.36 178.11 265.81 178.11C265.02 178.11 264.34 178.06 263.78 177.95C263.22 177.84 262.7 177.68 262.21 177.48V175.02C262.76 175.28 263.39 175.5 264.08 175.67C264.77 175.84 265.38 175.93 265.91 175.93C266.99 175.93 267.53 175.62 267.53 174.99C267.53 174.76 267.46 174.57 267.32 174.42C267.18 174.27 266.93 174.11 266.58 173.92C266.23 173.73 265.76 173.52 265.17 173.27C264.33 172.92 263.71 172.59 263.32 172.29C262.93 171.99 262.64 171.65 262.46 171.26C262.28 170.87 262.19 170.4 262.19 169.83C262.19 168.86 262.57 168.11 263.32 167.58C264.07 167.05 265.14 166.78 266.52 166.78C267.84 166.78 269.11 167.07 270.36 167.64L269.46 169.79C268.91 169.56 268.4 169.36 267.93 169.21C267.46 169.06 266.97 168.99 266.47 168.99C265.59 168.99 265.15 169.23 265.15 169.7C265.15 169.97 265.29 170.2 265.57 170.39C265.85 170.58 266.47 170.87 267.43 171.26C268.28 171.61 268.91 171.93 269.31 172.23C269.71 172.53 270 172.87 270.19 173.27C270.38 173.67 270.47 174.13 270.47 174.67Z" fill="#426A80"/>
<path d="M84.76 223.47C84.76 225.01 84.28 226.18 83.32 227C82.36 227.82 80.99 228.22 79.22 228.22H77.92V233.3H74.89V219.02H79.45C81.18 219.02 82.5 219.39 83.4 220.14C84.3 220.89 84.76 222 84.76 223.47ZM77.93 225.74H78.93C79.86 225.74 80.56 225.56 81.02 225.19C81.48 224.82 81.71 224.29 81.71 223.58C81.71 222.87 81.52 222.35 81.13 222.01C80.74 221.67 80.14 221.5 79.31 221.5H77.93V225.74Z" fill="#426A80"/>
<path d="M90.2 233.3H87.22V218.1H90.2V233.3Z" fill="#426A80"/>
<path d="M100.26 233.3L99.68 231.82H99.6C99.1 232.45 98.58 232.89 98.05 233.13C97.52 233.37 96.83 233.5 95.97 233.5C94.92 233.5 94.1 233.2 93.49 232.6C92.88 232 92.59 231.15 92.59 230.04C92.59 228.88 93 228.03 93.81 227.48C94.62 226.93 95.84 226.63 97.48 226.57L99.37 226.51V226.03C99.37 224.92 98.8 224.37 97.67 224.37C96.8 224.37 95.77 224.63 94.59 225.16L93.6 223.15C94.86 222.49 96.25 222.16 97.78 222.16C99.24 222.16 100.37 222.48 101.15 223.12C101.93 223.76 102.32 224.73 102.32 226.03V233.31H100.26V233.3ZM99.38 228.24L98.23 228.28C97.36 228.31 96.72 228.46 96.3 228.75C95.88 229.04 95.67 229.47 95.67 230.06C95.67 230.9 96.15 231.32 97.12 231.32C97.81 231.32 98.36 231.12 98.78 230.72C99.2 230.32 99.4 229.8 99.4 229.14V228.24H99.38Z" fill="#426A80"/>
<path d="M103.84 222.38H107.1L109.16 228.52C109.34 229.05 109.46 229.69 109.52 230.41H109.58C109.65 229.74 109.79 229.11 110 228.52L112.02 222.38H115.21L110.59 234.69C110.17 235.83 109.56 236.68 108.78 237.25C108 237.82 107.08 238.1 106.03 238.1C105.52 238.1 105.01 238.04 104.52 237.93V235.57C104.88 235.65 105.27 235.7 105.69 235.7C106.22 235.7 106.68 235.54 107.07 235.22C107.46 234.9 107.77 234.41 107.99 233.76L108.17 233.22L103.84 222.38Z" fill="#426A80"/>
<path d="M128.91 233.3L128.33 231.82H128.25C127.75 232.45 127.23 232.89 126.7 233.13C126.17 233.37 125.48 233.5 124.62 233.5C123.57 233.5 122.75 233.2 122.14 232.6C121.53 232 121.24 231.15 121.24 230.04C121.24 228.88 121.65 228.03 122.46 227.48C123.27 226.93 124.49 226.63 126.13 226.57L128.02 226.51V226.03C128.02 224.92 127.45 224.37 126.32 224.37C125.45 224.37 124.42 224.63 123.24 225.16L122.25 223.15C123.51 222.49 124.9 222.16 126.43 222.16C127.89 222.16 129.02 222.48 129.8 223.12C130.58 223.76 130.97 224.73 130.97 226.03V233.31H128.91V233.3ZM128.03 228.24L126.88 228.28C126.01 228.31 125.37 228.46 124.95 228.75C124.53 229.04 124.32 229.47 124.32 230.06C124.32 230.9 124.8 231.32 125.77 231.32C126.46 231.32 127.01 231.12 127.43 230.72C127.85 230.32 128.05 229.8 128.05 229.14V228.24H128.03Z" fill="#426A80"/>
<path d="M149.35 223.47C149.35 225.01 148.87 226.18 147.91 227C146.95 227.82 145.58 228.22 143.81 228.22H142.51V233.3H139.48V219.02H144.04C145.77 219.02 147.09 219.39 147.99 220.14C148.89 220.89 149.35 222 149.35 223.47ZM142.52 225.74H143.52C144.45 225.74 145.15 225.56 145.61 225.19C146.07 224.82 146.3 224.29 146.3 223.58C146.3 222.87 146.11 222.35 145.72 222.01C145.33 221.67 144.73 221.5 143.9 221.5H142.52V225.74Z" fill="#426A80"/>
<path d="M161.74 227.82C161.74 229.6 161.27 230.99 160.33 231.99C159.39 232.99 158.09 233.49 156.41 233.49C155.36 233.49 154.44 233.26 153.64 232.8C152.84 232.34 152.22 231.68 151.79 230.82C151.36 229.96 151.15 228.96 151.15 227.81C151.15 226.03 151.62 224.64 152.55 223.65C153.48 222.66 154.79 222.17 156.48 222.17C157.53 222.17 158.45 222.4 159.25 222.85C160.05 223.3 160.67 223.96 161.1 224.81C161.53 225.66 161.74 226.67 161.74 227.82ZM154.19 227.82C154.19 228.9 154.37 229.72 154.72 230.27C155.07 230.82 155.65 231.1 156.45 231.1C157.24 231.1 157.82 230.83 158.16 230.27C158.5 229.71 158.68 228.9 158.68 227.81C158.68 226.73 158.5 225.92 158.15 225.38C157.8 224.84 157.22 224.57 156.42 224.57C155.63 224.57 155.05 224.84 154.7 225.38C154.35 225.92 154.19 226.73 154.19 227.82Z" fill="#426A80"/>
<path d="M167.65 233.49C166.37 233.49 165.36 232.99 164.63 232C163.9 231.01 163.53 229.62 163.53 227.86C163.53 226.07 163.9 224.67 164.65 223.68C165.4 222.69 166.42 222.18 167.73 222.18C169.1 222.18 170.15 222.71 170.87 223.78H170.97C170.82 222.97 170.75 222.24 170.75 221.6V218.1H173.74V233.3H171.45L170.87 231.88H170.74C170.07 232.96 169.04 233.49 167.65 233.49ZM168.7 231.12C169.46 231.12 170.02 230.9 170.37 230.46C170.72 230.02 170.92 229.27 170.95 228.2V227.88C170.95 226.71 170.77 225.87 170.41 225.36C170.05 224.85 169.46 224.6 168.65 224.6C167.99 224.6 167.47 224.88 167.1 225.44C166.73 226 166.55 226.82 166.55 227.9C166.55 228.98 166.74 229.78 167.11 230.32C167.48 230.86 168.01 231.12 168.7 231.12Z" fill="#426A80"/>
<path d="M181.29 233.49C177.89 233.49 176.19 231.62 176.19 227.89C176.19 226.03 176.65 224.62 177.58 223.64C178.51 222.66 179.83 222.17 181.55 222.17C182.81 222.17 183.95 222.42 184.95 222.91L184.07 225.21C183.6 225.02 183.17 224.87 182.76 224.75C182.35 224.63 181.95 224.57 181.55 224.57C180 224.57 179.23 225.67 179.23 227.87C179.23 230.01 180 231.07 181.55 231.07C182.12 231.07 182.65 230.99 183.14 230.84C183.63 230.69 184.12 230.45 184.6 230.12V232.67C184.12 232.98 183.63 233.19 183.14 233.3C182.65 233.41 182.03 233.49 181.29 233.49Z" fill="#426A80"/>
<path d="M194.07 233.3L193.49 231.82H193.41C192.91 232.45 192.39 232.89 191.86 233.13C191.33 233.37 190.64 233.5 189.78 233.5C188.73 233.5 187.91 233.2 187.3 232.6C186.69 232 186.4 231.15 186.4 230.04C186.4 228.88 186.81 228.03 187.62 227.48C188.43 226.93 189.65 226.63 191.29 226.57L193.18 226.51V226.03C193.18 224.92 192.61 224.37 191.48 224.37C190.61 224.37 189.58 224.63 188.4 225.16L187.41 223.15C188.67 222.49 190.06 222.16 191.59 222.16C193.05 222.16 194.18 222.48 194.96 223.12C195.74 223.76 196.13 224.73 196.13 226.03V233.31H194.07V233.3ZM193.19 228.24L192.04 228.28C191.17 228.31 190.53 228.46 190.11 228.75C189.69 229.04 189.48 229.47 189.48 230.06C189.48 230.9 189.96 231.32 190.93 231.32C191.62 231.32 192.17 231.12 192.59 230.72C193.01 230.32 193.21 229.8 193.21 229.14V228.24H193.19Z" fill="#426A80"/>
<path d="M206.83 230.06C206.83 231.18 206.44 232.03 205.66 232.62C204.88 233.21 203.72 233.5 202.17 233.5C201.38 233.5 200.7 233.45 200.14 233.34C199.58 233.23 199.06 233.07 198.57 232.87V230.41C199.12 230.67 199.75 230.89 200.44 231.06C201.13 231.23 201.74 231.32 202.27 231.32C203.35 231.32 203.89 231.01 203.89 230.38C203.89 230.15 203.82 229.96 203.68 229.81C203.54 229.66 203.29 229.5 202.94 229.31C202.59 229.12 202.12 228.91 201.53 228.66C200.69 228.31 200.07 227.98 199.68 227.68C199.29 227.38 199 227.04 198.82 226.65C198.64 226.26 198.55 225.79 198.55 225.22C198.55 224.25 198.93 223.5 199.68 222.97C200.43 222.44 201.5 222.17 202.88 222.17C204.19 222.17 205.47 222.46 206.72 223.03L205.82 225.18C205.27 224.95 204.76 224.75 204.29 224.6C203.82 224.45 203.33 224.38 202.83 224.38C201.95 224.38 201.51 224.62 201.51 225.09C201.51 225.36 201.65 225.59 201.93 225.78C202.21 225.97 202.83 226.26 203.79 226.65C204.64 227 205.27 227.32 205.67 227.62C206.07 227.92 206.36 228.26 206.55 228.66C206.74 229.06 206.83 229.51 206.83 230.06Z" fill="#426A80"/>
<path d="M213.76 231.12C214.28 231.12 214.91 231.01 215.64 230.78V233C214.9 233.33 213.99 233.5 212.91 233.5C211.72 233.5 210.85 233.2 210.31 232.6C209.77 232 209.49 231.09 209.49 229.89V224.63H208.06V223.37L209.7 222.37L210.56 220.07H212.46V222.39H215.52V224.63H212.46V229.89C212.46 230.31 212.58 230.63 212.82 230.83C213.06 231.03 213.37 231.12 213.76 231.12Z" fill="#426A80"/>
<path d="M80.2399 282.01H85.8999V289.41C84.9799 289.71 84.1199 289.92 83.3099 290.04C82.4999 290.16 81.6699 290.22 80.8199 290.22C78.6699 290.22 77.0199 289.59 75.8799 288.32C74.7399 287.05 74.1799 285.24 74.1799 282.87C74.1799 280.57 74.8399 278.77 76.1599 277.48C77.4799 276.19 79.3099 275.55 81.6399 275.55C83.0999 275.55 84.5199 275.84 85.8799 276.43L84.8699 278.85C83.8299 278.33 82.7399 278.07 81.6199 278.07C80.3099 278.07 79.2599 278.51 78.4799 279.39C77.6999 280.27 77.2999 281.45 77.2999 282.93C77.2999 284.48 77.6199 285.66 78.2499 286.48C78.8799 287.3 79.8099 287.71 81.0199 287.71C81.6499 287.71 82.2899 287.65 82.9399 287.51V284.53H80.2299V282.01H80.2399Z" fill="#426A80"/>
<path d="M94.0099 290.22C92.2499 290.22 90.8799 289.74 89.8899 288.76C88.8999 287.79 88.4099 286.42 88.4099 284.64C88.4099 282.81 88.8699 281.4 89.7799 280.4C90.6899 279.4 91.9599 278.9 93.5699 278.9C95.1099 278.9 96.3099 279.34 97.1699 280.22C98.0299 281.1 98.4599 282.31 98.4599 283.86V285.31H91.4199C91.4499 286.16 91.6999 286.82 92.1699 287.29C92.6399 287.77 93.2999 288 94.1399 288C94.7999 288 95.4199 287.93 96.0099 287.79C96.5999 287.65 97.2099 287.44 97.8499 287.14V289.44C97.3299 289.7 96.7699 289.89 96.1799 290.02C95.5899 290.15 94.8599 290.22 94.0099 290.22ZM93.5899 281.02C92.9599 281.02 92.4599 281.22 92.1099 281.62C91.7599 282.02 91.5499 282.59 91.4899 283.32H95.6699C95.6599 282.58 95.4599 282.02 95.0899 281.62C94.7199 281.22 94.2199 281.02 93.5899 281.02Z" fill="#426A80"/>
<path d="M105.48 287.85C106 287.85 106.63 287.74 107.36 287.51V289.73C106.62 290.06 105.71 290.23 104.63 290.23C103.44 290.23 102.57 289.93 102.03 289.33C101.49 288.73 101.21 287.83 101.21 286.62V281.36H99.7799V280.1L101.42 279.1L102.28 276.8H104.18V279.12H107.24V281.36H104.18V286.62C104.18 287.04 104.3 287.36 104.54 287.56C104.78 287.75 105.09 287.85 105.48 287.85Z" fill="#426A80"/>
<path d="M120.83 278.91C122.12 278.91 123.13 279.41 123.86 280.42C124.59 281.43 124.95 282.8 124.95 284.56C124.95 286.36 124.57 287.76 123.82 288.75C123.07 289.74 122.04 290.23 120.75 290.23C119.47 290.23 118.46 289.77 117.73 288.83H117.52L117.02 290.03H114.74V274.83H117.72V278.37C117.72 278.82 117.68 279.54 117.6 280.53H117.72C118.43 279.45 119.47 278.91 120.83 278.91ZM119.88 281.29C119.14 281.29 118.61 281.52 118.27 281.97C117.93 282.42 117.76 283.17 117.74 284.21V284.53C117.74 285.7 117.91 286.54 118.26 287.05C118.61 287.56 119.16 287.81 119.92 287.81C120.53 287.81 121.02 287.53 121.38 286.97C121.74 286.41 121.92 285.59 121.92 284.51C121.92 283.43 121.74 282.63 121.37 282.09C121 281.55 120.51 281.29 119.88 281.29Z" fill="#426A80"/>
<path d="M134.35 290.03L133.77 288.55H133.69C133.19 289.18 132.67 289.62 132.14 289.86C131.61 290.1 130.92 290.23 130.06 290.23C129.01 290.23 128.19 289.93 127.58 289.33C126.98 288.73 126.68 287.88 126.68 286.77C126.68 285.61 127.09 284.76 127.9 284.21C128.71 283.66 129.93 283.36 131.57 283.3L133.46 283.24V282.76C133.46 281.65 132.89 281.1 131.76 281.1C130.89 281.1 129.86 281.36 128.68 281.89L127.69 279.88C128.95 279.22 130.34 278.89 131.87 278.89C133.33 278.89 134.46 279.21 135.24 279.85C136.02 280.49 136.41 281.46 136.41 282.76V290.04H134.35V290.03ZM133.47 284.97L132.32 285.01C131.45 285.04 130.81 285.19 130.39 285.48C129.97 285.77 129.76 286.2 129.76 286.79C129.76 287.63 130.24 288.05 131.21 288.05C131.9 288.05 132.45 287.85 132.87 287.45C133.28 287.05 133.49 286.53 133.49 285.87V284.97H133.47Z" fill="#426A80"/>
<path d="M143.93 290.22C140.53 290.22 138.83 288.35 138.83 284.62C138.83 282.76 139.29 281.35 140.22 280.37C141.14 279.39 142.47 278.9 144.19 278.9C145.45 278.9 146.59 279.15 147.59 279.64L146.71 281.94C146.24 281.75 145.81 281.6 145.4 281.48C145 281.36 144.59 281.3 144.19 281.3C142.64 281.3 141.87 282.4 141.87 284.6C141.87 286.74 142.64 287.8 144.19 287.8C144.76 287.8 145.29 287.72 145.78 287.57C146.27 287.42 146.76 287.18 147.24 286.85V289.4C146.76 289.71 146.27 289.92 145.78 290.03C145.29 290.14 144.68 290.22 143.93 290.22Z" fill="#426A80"/>
<path d="M152.64 284.09L153.94 282.43L157 279.11H160.36L156.02 283.85L160.62 290.03H157.18L154.04 285.61L152.76 286.64V290.04H149.78V274.84H152.76V281.62L152.6 284.1H152.64V284.09Z" fill="#426A80"/>
<path d="M171.98 287.85C172.5 287.85 173.13 287.74 173.86 287.51V289.73C173.12 290.06 172.21 290.23 171.13 290.23C169.94 290.23 169.07 289.93 168.53 289.33C167.99 288.73 167.71 287.83 167.71 286.62V281.36H166.28V280.1L167.92 279.1L168.78 276.8H170.68V279.12H173.74V281.36H170.68V286.62C170.68 287.04 170.8 287.36 171.04 287.56C171.27 287.75 171.59 287.85 171.98 287.85Z" fill="#426A80"/>
<path d="M185.98 284.55C185.98 286.33 185.51 287.72 184.57 288.72C183.63 289.72 182.33 290.22 180.65 290.22C179.6 290.22 178.68 289.99 177.88 289.53C177.08 289.07 176.46 288.41 176.03 287.55C175.6 286.69 175.39 285.69 175.39 284.54C175.39 282.76 175.86 281.37 176.79 280.38C177.72 279.39 179.03 278.9 180.72 278.9C181.77 278.9 182.69 279.13 183.49 279.58C184.29 280.04 184.91 280.69 185.34 281.54C185.76 282.41 185.98 283.4 185.98 284.55ZM178.43 284.55C178.43 285.63 178.61 286.45 178.96 287C179.31 287.55 179.89 287.83 180.69 287.83C181.48 287.83 182.06 287.56 182.4 287C182.75 286.45 182.92 285.63 182.92 284.54C182.92 283.46 182.74 282.65 182.39 282.11C182.04 281.57 181.46 281.3 180.66 281.3C179.87 281.3 179.29 281.57 178.94 282.11C178.59 282.65 178.43 283.46 178.43 284.55Z" fill="#426A80"/>
<path d="M203.71 290.03H200.73V283.65C200.73 282.07 200.14 281.29 198.97 281.29C198.14 281.29 197.53 281.57 197.16 282.14C196.79 282.71 196.6 283.62 196.6 284.89V290.03H193.62V274.83H196.6V277.93C196.6 278.17 196.58 278.74 196.53 279.63L196.46 280.51H196.62C197.28 279.44 198.34 278.91 199.78 278.91C201.06 278.91 202.04 279.26 202.7 279.95C203.36 280.64 203.7 281.63 203.7 282.92V290.03H203.71Z" fill="#426A80"/>
<path d="M216.7 284.55C216.7 286.33 216.23 287.72 215.29 288.72C214.35 289.72 213.05 290.22 211.37 290.22C210.32 290.22 209.4 289.99 208.6 289.53C207.8 289.07 207.18 288.41 206.75 287.55C206.32 286.69 206.11 285.69 206.11 284.54C206.11 282.76 206.58 281.37 207.51 280.38C208.44 279.39 209.75 278.9 211.44 278.9C212.49 278.9 213.41 279.13 214.21 279.58C215.01 280.04 215.63 280.69 216.06 281.54C216.49 282.41 216.7 283.4 216.7 284.55ZM209.15 284.55C209.15 285.63 209.33 286.45 209.68 287C210.03 287.55 210.61 287.83 211.41 287.83C212.2 287.83 212.78 287.56 213.12 287C213.47 286.45 213.64 285.63 213.64 284.54C213.64 283.46 213.46 282.65 213.11 282.11C212.76 281.57 212.18 281.3 211.38 281.3C210.59 281.3 210.01 281.57 209.66 282.11C209.31 282.65 209.15 283.46 209.15 284.55Z" fill="#426A80"/>
<path d="M228.94 290.03H225.96V283.65C225.96 282.86 225.83 282.27 225.56 281.88C225.3 281.49 224.88 281.29 224.31 281.29C223.55 281.29 223 281.57 222.65 282.13C222.3 282.69 222.13 283.61 222.13 284.89V290.03H219.15V279.11H221.43L221.83 280.51H222C222.29 280.01 222.72 279.62 223.27 279.33C223.82 279.04 224.46 278.91 225.17 278.91C226.8 278.91 227.91 279.44 228.49 280.51H228.75C229.04 280 229.47 279.61 230.04 279.33C230.61 279.05 231.25 278.91 231.97 278.91C233.21 278.91 234.14 279.23 234.78 279.86C235.42 280.49 235.73 281.51 235.73 282.91V290.03H232.74V283.65C232.74 282.86 232.61 282.27 232.34 281.88C232.08 281.49 231.66 281.29 231.09 281.29C230.36 281.29 229.82 281.55 229.45 282.07C229.09 282.59 228.91 283.42 228.91 284.55V290.03H228.94Z" fill="#426A80"/>
<path d="M243.74 290.22C241.98 290.22 240.61 289.74 239.62 288.76C238.63 287.79 238.14 286.42 238.14 284.64C238.14 282.81 238.6 281.4 239.51 280.4C240.43 279.4 241.69 278.9 243.3 278.9C244.84 278.9 246.04 279.34 246.9 280.22C247.76 281.1 248.19 282.31 248.19 283.86V285.31H241.15C241.18 286.16 241.43 286.82 241.9 287.29C242.37 287.77 243.03 288 243.87 288C244.53 288 245.15 287.93 245.74 287.79C246.33 287.65 246.94 287.44 247.58 287.14V289.44C247.06 289.7 246.5 289.89 245.91 290.02C245.32 290.15 244.6 290.22 243.74 290.22ZM243.32 281.02C242.69 281.02 242.19 281.22 241.84 281.62C241.49 282.02 241.28 282.59 241.22 283.32H245.4C245.39 282.58 245.19 282.02 244.82 281.62C244.45 281.22 243.95 281.02 243.32 281.02Z" fill="#426A80"/>
<path d="M256.61 290.22C255.33 290.22 254.32 289.76 253.59 288.82H253.43C253.53 289.73 253.59 290.26 253.59 290.4V294.82H250.61V279.1H253.03L253.45 280.52H253.59C254.29 279.44 255.32 278.9 256.69 278.9C257.98 278.9 258.99 279.4 259.72 280.39C260.45 281.38 260.81 282.77 260.81 284.54C260.81 285.71 260.64 286.72 260.3 287.58C259.96 288.44 259.47 289.09 258.84 289.54C258.21 289.99 257.47 290.22 256.61 290.22ZM255.74 281.29C255 281.29 254.47 281.52 254.13 281.97C253.79 282.42 253.62 283.17 253.6 284.21V284.53C253.6 285.7 253.77 286.54 254.12 287.05C254.47 287.56 255.02 287.81 255.78 287.81C257.11 287.81 257.78 286.71 257.78 284.51C257.78 283.44 257.62 282.63 257.29 282.09C256.96 281.55 256.44 281.29 255.74 281.29Z" fill="#426A80"/>
<path d="M270.21 290.03L269.63 288.55H269.55C269.05 289.18 268.53 289.62 268 289.86C267.47 290.1 266.78 290.23 265.92 290.23C264.87 290.23 264.05 289.93 263.44 289.33C262.84 288.73 262.54 287.88 262.54 286.77C262.54 285.61 262.95 284.76 263.76 284.21C264.57 283.66 265.79 283.36 267.43 283.3L269.32 283.24V282.76C269.32 281.65 268.75 281.1 267.62 281.1C266.75 281.1 265.72 281.36 264.54 281.89L263.55 279.88C264.81 279.22 266.2 278.89 267.73 278.89C269.19 278.89 270.32 279.21 271.1 279.85C271.88 280.49 272.27 281.46 272.27 282.76V290.04H270.21V290.03ZM269.33 284.97L268.18 285.01C267.31 285.04 266.67 285.19 266.25 285.48C265.83 285.77 265.62 286.2 265.62 286.79C265.62 287.63 266.1 288.05 267.07 288.05C267.76 288.05 268.31 287.85 268.73 287.45C269.14 287.05 269.35 286.53 269.35 285.87V284.97H269.33Z" fill="#426A80"/>
<path d="M284.86 279.11V280.62L283.15 281.06C283.46 281.55 283.62 282.1 283.62 282.7C283.62 283.87 283.21 284.78 282.39 285.44C281.57 286.1 280.44 286.42 278.99 286.42L278.45 286.39L278.01 286.34C277.7 286.57 277.55 286.84 277.55 287.12C277.55 287.55 278.1 287.76 279.19 287.76H281.05C282.25 287.76 283.16 288.02 283.79 288.53C284.42 289.04 284.73 289.8 284.73 290.8C284.73 292.08 284.2 293.07 283.13 293.77C282.06 294.47 280.54 294.82 278.55 294.82C277.03 294.82 275.86 294.56 275.06 294.02C274.26 293.49 273.85 292.75 273.85 291.79C273.85 291.13 274.06 290.58 274.47 290.14C274.88 289.7 275.48 289.38 276.28 289.19C275.97 289.06 275.71 288.85 275.48 288.55C275.25 288.25 275.14 287.94 275.14 287.61C275.14 287.19 275.26 286.85 275.5 286.57C275.74 286.29 276.09 286.02 276.54 285.75C275.97 285.5 275.51 285.11 275.18 284.56C274.85 284.01 274.68 283.37 274.68 282.63C274.68 281.44 275.07 280.52 275.84 279.87C276.61 279.22 277.72 278.89 279.16 278.89C279.47 278.89 279.83 278.92 280.25 278.97C280.67 279.03 280.94 279.07 281.06 279.09H284.86V279.11ZM276.43 291.57C276.43 291.98 276.63 292.3 277.02 292.54C277.41 292.78 277.97 292.89 278.68 292.89C279.75 292.89 280.58 292.74 281.19 292.45C281.8 292.16 282.1 291.76 282.1 291.25C282.1 290.84 281.92 290.56 281.56 290.4C281.2 290.24 280.65 290.17 279.9 290.17H278.36C277.81 290.17 277.36 290.3 276.99 290.56C276.61 290.81 276.43 291.15 276.43 291.57ZM277.51 282.68C277.51 283.27 277.64 283.74 277.92 284.09C278.19 284.44 278.6 284.61 279.16 284.61C279.72 284.61 280.13 284.44 280.39 284.09C280.65 283.75 280.78 283.28 280.78 282.68C280.78 281.37 280.24 280.71 279.16 280.71C278.06 280.71 277.51 281.37 277.51 282.68Z" fill="#426A80"/>
<path d="M291.59 290.22C289.83 290.22 288.46 289.74 287.47 288.76C286.48 287.79 285.99 286.42 285.99 284.64C285.99 282.81 286.45 281.4 287.36 280.4C288.28 279.4 289.54 278.9 291.15 278.9C292.69 278.9 293.89 279.34 294.75 280.22C295.61 281.1 296.04 282.31 296.04 283.86V285.31H289C289.03 286.16 289.28 286.82 289.75 287.29C290.22 287.77 290.88 288 291.72 288C292.38 288 293 287.93 293.59 287.79C294.18 287.65 294.79 287.44 295.43 287.14V289.44C294.91 289.7 294.35 289.89 293.76 290.02C293.17 290.15 292.45 290.22 291.59 290.22ZM291.17 281.02C290.54 281.02 290.04 281.22 289.69 281.62C289.34 282.02 289.13 282.59 289.07 283.32H293.25C293.24 282.58 293.04 282.02 292.67 281.62C292.3 281.22 291.81 281.02 291.17 281.02Z" fill="#426A80"/>
<path d="M80.88 336.18C79.74 336.18 78.86 336.61 78.23 337.46C77.6 338.31 77.29 339.51 77.29 341.04C77.29 344.22 78.48 345.82 80.87 345.82C81.87 345.82 83.09 345.57 84.51 345.07V347.61C83.34 348.1 82.03 348.34 80.58 348.34C78.5 348.34 76.91 347.71 75.81 346.45C74.71 345.19 74.16 343.38 74.16 341.03C74.16 339.55 74.43 338.25 74.97 337.13C75.51 336.01 76.29 335.16 77.3 334.56C78.31 333.96 79.5 333.67 80.86 333.67C82.25 333.67 83.64 334 85.04 334.68L84.06 337.14C83.53 336.89 82.99 336.66 82.45 336.48C81.91 336.3 81.4 336.18 80.88 336.18Z" fill="#426A80"/>
<path d="M90.3101 348.14H87.3301V332.94H90.3101V348.14Z" fill="#426A80"/>
<path d="M93.3 334.4C93.3 333.43 93.84 332.94 94.92 332.94C96 332.94 96.54 333.43 96.54 334.4C96.54 334.86 96.4001 335.22 96.1301 335.48C95.8601 335.74 95.45 335.87 94.91 335.87C93.84 335.86 93.3 335.38 93.3 334.4ZM96.41 348.14H93.43V337.22H96.41V348.14Z" fill="#426A80"/>
<path d="M103.97 348.33C100.57 348.33 98.87 346.46 98.87 342.73C98.87 340.87 99.33 339.46 100.26 338.48C101.19 337.5 102.51 337.01 104.23 337.01C105.49 337.01 106.63 337.26 107.63 337.75L106.75 340.05C106.28 339.86 105.85 339.71 105.44 339.59C105.03 339.47 104.63 339.41 104.23 339.41C102.68 339.41 101.91 340.51 101.91 342.71C101.91 344.85 102.68 345.91 104.23 345.91C104.8 345.91 105.33 345.83 105.82 345.68C106.31 345.53 106.8 345.29 107.28 344.96V347.51C106.8 347.82 106.31 348.03 105.82 348.14C105.33 348.25 104.72 348.33 103.97 348.33Z" fill="#426A80"/>
<path d="M112.68 342.2L113.98 340.54L117.04 337.22H120.4L116.06 341.96L120.66 348.14H117.22L114.08 343.72L112.8 344.75V348.15H109.82V332.95H112.8V339.73L112.64 342.21H112.68V342.2Z" fill="#426A80"/>
<path d="M132.36 348.33C130.6 348.33 129.23 347.84 128.24 346.87C127.25 345.9 126.76 344.53 126.76 342.75C126.76 340.92 127.22 339.51 128.13 338.51C129.04 337.51 130.31 337.01 131.92 337.01C133.46 337.01 134.66 337.45 135.52 338.33C136.38 339.21 136.81 340.42 136.81 341.97V343.42H129.77C129.8 344.27 130.05 344.93 130.52 345.4C130.99 345.87 131.65 346.11 132.49 346.11C133.15 346.11 133.77 346.04 134.36 345.9C134.95 345.76 135.56 345.55 136.2 345.25V347.55C135.68 347.81 135.12 348 134.53 348.13C133.94 348.26 133.21 348.33 132.36 348.33ZM131.94 339.14C131.31 339.14 130.81 339.34 130.46 339.74C130.11 340.14 129.9 340.71 129.84 341.44H134.02C134.01 340.7 133.81 340.14 133.44 339.74C133.07 339.34 132.57 339.14 131.94 339.14Z" fill="#426A80"/>
<path d="M141.47 342.56L137.95 337.22H141.33L143.45 340.7L145.59 337.22H148.97L145.42 342.56L149.14 348.14H145.75L143.46 344.4L141.16 348.14H137.78L141.47 342.56Z" fill="#426A80"/>
<path d="M155.39 345.96C155.91 345.96 156.54 345.85 157.27 345.62V347.84C156.53 348.17 155.62 348.34 154.54 348.34C153.35 348.34 152.48 348.04 151.94 347.44C151.4 346.84 151.12 345.93 151.12 344.73V339.47H149.69V338.21L151.33 337.21L152.19 334.91H154.09V337.23H157.15V339.47H154.09V344.73C154.09 345.15 154.21 345.47 154.45 345.67C154.69 345.87 155 345.96 155.39 345.96Z" fill="#426A80"/>
<path d="M164.42 348.33C162.66 348.33 161.29 347.84 160.3 346.87C159.31 345.9 158.82 344.53 158.82 342.75C158.82 340.92 159.28 339.51 160.19 338.51C161.1 337.51 162.37 337.01 163.98 337.01C165.52 337.01 166.72 337.45 167.58 338.33C168.44 339.21 168.87 340.42 168.87 341.97V343.42H161.83C161.86 344.27 162.11 344.93 162.58 345.4C163.05 345.87 163.71 346.11 164.55 346.11C165.21 346.11 165.83 346.04 166.42 345.9C167.01 345.76 167.62 345.55 168.26 345.25V347.55C167.74 347.81 167.18 348 166.59 348.13C166 348.26 165.27 348.33 164.42 348.33ZM164 339.14C163.37 339.14 162.87 339.34 162.52 339.74C162.17 340.14 161.96 340.71 161.9 341.44H166.08C166.07 340.7 165.87 340.14 165.5 339.74C165.13 339.34 164.63 339.14 164 339.14Z" fill="#426A80"/>
<path d="M177.39 337.02C177.79 337.02 178.13 337.05 178.4 337.11L178.18 339.9C177.94 339.83 177.65 339.8 177.3 339.8C176.35 339.8 175.61 340.04 175.08 340.53C174.55 341.02 174.28 341.7 174.28 342.58V348.14H171.3V337.22H173.56L174 339.06H174.15C174.49 338.45 174.95 337.96 175.52 337.58C176.09 337.2 176.71 337.02 177.39 337.02Z" fill="#426A80"/>
<path d="M190.45 348.14H187.47V341.76C187.47 340.97 187.33 340.38 187.05 339.99C186.77 339.6 186.32 339.4 185.71 339.4C184.88 339.4 184.27 339.68 183.9 340.23C183.53 340.78 183.34 341.71 183.34 343V348.14H180.36V337.22H182.64L183.04 338.62H183.21C183.54 338.09 184 337.69 184.58 337.42C185.16 337.15 185.83 337.01 186.57 337.01C187.84 337.01 188.8 337.35 189.46 338.04C190.12 338.73 190.45 339.72 190.45 341.01V348.14V348.14Z" fill="#426A80"/>
<path d="M200.45 348.14L199.87 346.66H199.79C199.29 347.29 198.77 347.73 198.24 347.97C197.71 348.21 197.02 348.34 196.16 348.34C195.11 348.34 194.29 348.04 193.68 347.44C193.07 346.84 192.78 345.99 192.78 344.88C192.78 343.72 193.19 342.87 194 342.32C194.81 341.77 196.03 341.47 197.67 341.41L199.56 341.35V340.87C199.56 339.76 198.99 339.21 197.86 339.21C196.99 339.21 195.96 339.47 194.78 340L193.79 337.99C195.05 337.33 196.44 337 197.97 337C199.43 337 200.56 337.32 201.34 337.96C202.12 338.6 202.51 339.57 202.51 340.87V348.15H200.45V348.14ZM199.57 343.08L198.42 343.12C197.55 343.15 196.91 343.3 196.49 343.59C196.07 343.88 195.86 344.31 195.86 344.9C195.86 345.74 196.34 346.16 197.31 346.16C198 346.16 198.55 345.96 198.97 345.56C199.39 345.16 199.59 344.64 199.59 343.98V343.08H199.57Z" fill="#426A80"/>
<path d="M208.58 348.14H205.6V332.94H208.58V348.14Z" fill="#426A80"/>
<path d="M219.88 348.14H216.9V332.94H219.88V348.14Z" fill="#426A80"/>
<path d="M222.87 334.4C222.87 333.43 223.41 332.94 224.49 332.94C225.57 332.94 226.11 333.43 226.11 334.4C226.11 334.86 225.97 335.22 225.7 335.48C225.43 335.74 225.02 335.87 224.48 335.87C223.41 335.86 222.87 335.38 222.87 334.4ZM225.98 348.14H223V337.22H225.98V348.14Z" fill="#426A80"/>
<path d="M239.18 348.14H236.2V341.76C236.2 340.97 236.06 340.38 235.78 339.99C235.5 339.6 235.05 339.4 234.44 339.4C233.61 339.4 233 339.68 232.63 340.23C232.26 340.78 232.07 341.71 232.07 343V348.14H229.09V337.22H231.37L231.77 338.62H231.94C232.27 338.09 232.73 337.69 233.31 337.42C233.89 337.15 234.56 337.01 235.3 337.01C236.57 337.01 237.53 337.35 238.19 338.04C238.85 338.73 239.18 339.72 239.18 341.01V348.14V348.14Z" fill="#426A80"/>
<path d="M245.11 342.2L246.41 340.54L249.47 337.22H252.83L248.49 341.96L253.09 348.14H249.65L246.51 343.72L245.23 344.75V348.15H242.25V332.95H245.23V339.73L245.07 342.21H245.11V342.2Z" fill="#426A80"/>
<path d="M265.88 339.46H263.3V348.14H260.32V339.46H258.68V338.02L260.32 337.22V336.42C260.32 335.18 260.63 334.27 261.24 333.7C261.85 333.13 262.83 332.84 264.18 332.84C265.21 332.84 266.12 332.99 266.92 333.3L266.16 335.49C265.56 335.3 265.01 335.21 264.5 335.21C264.08 335.21 263.77 335.34 263.58 335.59C263.39 335.84 263.3 336.16 263.3 336.55V337.23H265.88V339.46Z" fill="#426A80"/>
<path d="M273.68 337.02C274.08 337.02 274.42 337.05 274.69 337.11L274.47 339.9C274.23 339.83 273.94 339.8 273.59 339.8C272.64 339.8 271.9 340.04 271.37 340.53C270.84 341.02 270.57 341.7 270.57 342.58V348.14H267.59V337.22H269.85L270.29 339.06H270.44C270.78 338.45 271.24 337.96 271.81 337.58C272.38 337.2 273.01 337.02 273.68 337.02Z" fill="#426A80"/>
<path d="M286.59 342.66C286.59 344.44 286.12 345.83 285.18 346.83C284.24 347.83 282.94 348.33 281.26 348.33C280.21 348.33 279.29 348.1 278.49 347.64C277.69 347.18 277.07 346.52 276.64 345.66C276.21 344.8 276 343.8 276 342.65C276 340.87 276.47 339.48 277.4 338.49C278.33 337.5 279.64 337.01 281.33 337.01C282.38 337.01 283.3 337.24 284.1 337.69C284.9 338.14 285.52 338.8 285.95 339.65C286.38 340.5 286.59 341.52 286.59 342.66ZM279.05 342.66C279.05 343.74 279.23 344.56 279.58 345.11C279.93 345.66 280.51 345.94 281.31 345.94C282.1 345.94 282.68 345.67 283.02 345.11C283.36 344.55 283.54 343.74 283.54 342.65C283.54 341.57 283.36 340.76 283.01 340.22C282.66 339.68 282.08 339.41 281.28 339.41C280.49 339.41 279.91 339.68 279.56 340.22C279.21 340.76 279.05 341.57 279.05 342.66Z" fill="#426A80"/>
<path d="M298.83 348.14H295.85V341.76C295.85 340.97 295.72 340.38 295.45 339.99C295.18 339.6 294.77 339.4 294.2 339.4C293.44 339.4 292.88 339.68 292.54 340.24C292.2 340.8 292.02 341.72 292.02 343V348.14H289.06V337.22H291.34L291.74 338.62H291.91C292.2 338.12 292.63 337.73 293.18 337.44C293.73 337.15 294.37 337.02 295.08 337.02C296.71 337.02 297.82 337.55 298.4 338.62H298.66C298.95 338.11 299.38 337.72 299.95 337.44C300.52 337.16 301.16 337.02 301.88 337.02C303.12 337.02 304.05 337.34 304.69 337.97C305.33 338.6 305.64 339.62 305.64 341.02V348.14H302.65V341.76C302.65 340.97 302.52 340.38 302.25 339.99C301.98 339.6 301.57 339.4 301 339.4C300.27 339.4 299.73 339.66 299.36 340.18C298.99 340.7 298.82 341.53 298.82 342.66V348.14H298.83Z" fill="#426A80"/>
<path d="M319.92 339.46H317.34V348.14H314.36V339.46H312.72V338.02L314.36 337.22V336.42C314.36 335.18 314.67 334.27 315.28 333.7C315.89 333.13 316.87 332.84 318.22 332.84C319.25 332.84 320.16 332.99 320.96 333.3L320.2 335.49C319.6 335.3 319.05 335.21 318.54 335.21C318.12 335.21 317.81 335.34 317.62 335.59C317.43 335.84 317.34 336.16 317.34 336.55V337.23H319.92V339.46Z" fill="#426A80"/>
<path d="M331.56 342.66C331.56 344.44 331.09 345.83 330.15 346.83C329.21 347.83 327.91 348.33 326.23 348.33C325.18 348.33 324.26 348.1 323.46 347.64C322.66 347.18 322.04 346.52 321.61 345.66C321.18 344.8 320.97 343.8 320.97 342.65C320.97 340.87 321.44 339.48 322.37 338.49C323.3 337.5 324.61 337.01 326.3 337.01C327.35 337.01 328.27 337.24 329.07 337.69C329.87 338.14 330.49 338.8 330.92 339.65C331.35 340.5 331.56 341.52 331.56 342.66ZM324.01 342.66C324.01 343.74 324.19 344.56 324.54 345.11C324.89 345.66 325.47 345.94 326.27 345.94C327.06 345.94 327.64 345.67 327.98 345.11C328.32 344.55 328.5 343.74 328.5 342.65C328.5 341.57 328.32 340.76 327.97 340.22C327.62 339.68 327.04 339.41 326.24 339.41C325.45 339.41 324.87 339.68 324.52 340.22C324.17 340.76 324.01 341.57 324.01 342.66Z" fill="#426A80"/>
<path d="M343.94 342.66C343.94 344.44 343.47 345.83 342.53 346.83C341.59 347.83 340.29 348.33 338.61 348.33C337.56 348.33 336.64 348.1 335.84 347.64C335.04 347.18 334.42 346.52 333.99 345.66C333.56 344.8 333.35 343.8 333.35 342.65C333.35 340.87 333.82 339.48 334.75 338.49C335.68 337.5 336.99 337.01 338.68 337.01C339.73 337.01 340.65 337.24 341.45 337.69C342.25 338.14 342.87 338.8 343.3 339.65C343.73 340.5 343.94 341.52 343.94 342.66ZM336.39 342.66C336.39 343.74 336.57 344.56 336.92 345.11C337.27 345.66 337.85 345.94 338.65 345.94C339.44 345.94 340.02 345.67 340.36 345.11C340.7 344.55 340.88 343.74 340.88 342.65C340.88 341.57 340.7 340.76 340.35 340.22C340 339.68 339.42 339.41 338.62 339.41C337.83 339.41 337.25 339.68 336.9 340.22C336.55 340.76 336.39 341.57 336.39 342.66Z" fill="#426A80"/>
<path d="M351 345.96C351.52 345.96 352.15 345.85 352.88 345.62V347.84C352.14 348.17 351.23 348.34 350.15 348.34C348.96 348.34 348.09 348.04 347.55 347.44C347.01 346.84 346.73 345.93 346.73 344.73V339.47H345.3V338.21L346.94 337.21L347.8 334.91H349.7V337.23H352.76V339.47H349.7V344.73C349.7 345.15 349.82 345.47 350.06 345.67C350.3 345.87 350.61 345.96 351 345.96Z" fill="#426A80"/>
<path d="M360.02 348.33C358.26 348.33 356.89 347.84 355.9 346.87C354.91 345.9 354.42 344.53 354.42 342.75C354.42 340.92 354.88 339.51 355.79 338.51C356.7 337.51 357.97 337.01 359.58 337.01C361.12 337.01 362.32 337.45 363.18 338.33C364.04 339.21 364.47 340.42 364.47 341.97V343.42H357.43C357.46 344.27 357.71 344.93 358.18 345.4C358.65 345.87 359.31 346.11 360.15 346.11C360.81 346.11 361.43 346.04 362.02 345.9C362.61 345.76 363.22 345.55 363.86 345.25V347.55C363.34 347.81 362.78 348 362.19 348.13C361.6 348.26 360.87 348.33 360.02 348.33ZM359.6 339.14C358.97 339.14 358.47 339.34 358.12 339.74C357.77 340.14 357.56 340.71 357.5 341.44H361.68C361.67 340.7 361.47 340.14 361.1 339.74C360.73 339.34 360.23 339.14 359.6 339.14Z" fill="#426A80"/>
<path d="M372.99 337.02C373.39 337.02 373.73 337.05 374 337.11L373.78 339.9C373.54 339.83 373.25 339.8 372.9 339.8C371.95 339.8 371.21 340.04 370.68 340.53C370.15 341.02 369.88 341.7 369.88 342.58V348.14H366.9V337.22H369.16L369.6 339.06H369.75C370.09 338.45 370.55 337.96 371.12 337.58C371.69 337.2 372.31 337.02 372.99 337.02Z" fill="#426A80"/>
</svg>
