<svg width="430" height="85" viewBox="0 0 430 85" fill="none" xmlns="http://www.w3.org/2000/svg">
<path d="M64 50L367.5 50.5" stroke="#416980" stroke-width="2" stroke-dasharray="4 4"/>
<circle cx="35" cy="50" r="34" fill="white" stroke="#416980" stroke-width="2"/>
<path d="M159 50C159 68.7777 143.778 84 125 84C106.222 84 91 68.7777 91 50C91 31.2223 106.222 16 125 16C143.778 16 159 31.2223 159 50Z" fill="white" stroke="#416980" stroke-width="2"/>
<circle cx="215" cy="50" r="34" fill="white" stroke="#416980" stroke-width="2"/>
<circle cx="305" cy="50" r="34" fill="white" stroke="#416980" stroke-width="2"/>
<circle cx="395" cy="50" r="34" fill="white" stroke="#416980" stroke-width="2"/>
<path d="M12.2224 54.084C12.0464 54.084 11.9104 54.036 11.8144 53.94C11.7184 53.836 11.6704 53.692 11.6704 53.508V46.104C11.6704 45.92 11.7184 45.78 11.8144 45.684C11.9184 45.588 12.0584 45.54 12.2344 45.54H15.0904C16.0024 45.54 16.7024 45.756 17.1904 46.188C17.6864 46.612 17.9344 47.216 17.9344 48C17.9344 48.512 17.8224 48.952 17.5984 49.32C17.3744 49.68 17.0504 49.956 16.6264 50.148C16.2024 50.34 15.6904 50.436 15.0904 50.436L15.2104 50.268H15.4744C15.7944 50.268 16.0704 50.348 16.3024 50.508C16.5424 50.668 16.7544 50.924 16.9384 51.276L18.0424 53.304C18.1144 53.432 18.1464 53.556 18.1384 53.676C18.1304 53.796 18.0864 53.896 18.0064 53.976C17.9264 54.048 17.8104 54.084 17.6584 54.084C17.4984 54.084 17.3704 54.052 17.2744 53.988C17.1784 53.916 17.0944 53.812 17.0224 53.676L15.7264 51.3C15.5504 50.964 15.3504 50.744 15.1264 50.64C14.9024 50.528 14.6024 50.472 14.2264 50.472H12.7864V53.508C12.7864 53.692 12.7384 53.836 12.6424 53.94C12.5544 54.036 12.4144 54.084 12.2224 54.084ZM12.7864 49.608H14.9104C15.5504 49.608 16.0304 49.476 16.3504 49.212C16.6704 48.94 16.8304 48.544 16.8304 48.024C16.8304 47.504 16.6704 47.112 16.3504 46.848C16.0304 46.584 15.5504 46.452 14.9104 46.452H12.7864V49.608ZM22.16 54.108C21.528 54.108 20.984 53.988 20.528 53.748C20.08 53.5 19.732 53.152 19.484 52.704C19.236 52.248 19.112 51.712 19.112 51.096C19.112 50.488 19.232 49.956 19.472 49.5C19.72 49.044 20.056 48.688 20.48 48.432C20.912 48.176 21.404 48.048 21.956 48.048C22.348 48.048 22.7 48.116 23.012 48.252C23.332 48.38 23.604 48.568 23.828 48.816C24.052 49.064 24.22 49.368 24.332 49.728C24.452 50.08 24.512 50.48 24.512 50.928C24.512 51.056 24.472 51.156 24.392 51.228C24.32 51.292 24.212 51.324 24.068 51.324H19.964V50.628H23.792L23.588 50.796C23.588 50.38 23.524 50.028 23.396 49.74C23.276 49.444 23.096 49.22 22.856 49.068C22.624 48.916 22.332 48.84 21.98 48.84C21.596 48.84 21.268 48.932 20.996 49.116C20.724 49.292 20.516 49.544 20.372 49.872C20.228 50.192 20.156 50.564 20.156 50.988V51.06C20.156 51.78 20.328 52.324 20.672 52.692C21.016 53.06 21.512 53.244 22.16 53.244C22.416 53.244 22.676 53.212 22.94 53.148C23.212 53.084 23.472 52.968 23.72 52.8C23.84 52.728 23.948 52.696 24.044 52.704C24.148 52.704 24.232 52.736 24.296 52.8C24.36 52.856 24.4 52.928 24.416 53.016C24.432 53.096 24.42 53.184 24.38 53.28C24.34 53.376 24.264 53.46 24.152 53.532C23.888 53.716 23.572 53.86 23.204 53.964C22.844 54.06 22.496 54.108 22.16 54.108ZM27.8861 54.108C27.5261 54.108 27.1621 54.068 26.7941 53.988C26.4341 53.9 26.0941 53.752 25.7741 53.544C25.6861 53.488 25.6221 53.42 25.5821 53.34C25.5501 53.252 25.5381 53.168 25.5461 53.088C25.5621 53 25.5981 52.924 25.6541 52.86C25.7101 52.796 25.7781 52.76 25.8581 52.752C25.9461 52.736 26.0381 52.756 26.1341 52.812C26.4461 52.988 26.7461 53.112 27.0341 53.184C27.3301 53.256 27.6221 53.292 27.9101 53.292C28.3501 53.292 28.6821 53.212 28.9061 53.052C29.1301 52.892 29.2421 52.68 29.2421 52.416C29.2421 52.192 29.1661 52.02 29.0141 51.9C28.8701 51.772 28.6421 51.676 28.3301 51.612L27.2141 51.384C26.7181 51.272 26.3421 51.088 26.0861 50.832C25.8381 50.568 25.7141 50.232 25.7141 49.824C25.7141 49.464 25.8101 49.152 26.0021 48.888C26.2021 48.616 26.4781 48.408 26.8301 48.264C27.1821 48.12 27.5861 48.048 28.0421 48.048C28.3941 48.048 28.7261 48.096 29.0381 48.192C29.3581 48.28 29.6461 48.416 29.9021 48.6C29.9981 48.656 30.0581 48.728 30.0821 48.816C30.1141 48.896 30.1181 48.98 30.0941 49.068C30.0781 49.148 30.0421 49.216 29.9861 49.272C29.9301 49.328 29.8581 49.364 29.7701 49.38C29.6821 49.388 29.5861 49.364 29.4821 49.308C29.2501 49.148 29.0101 49.036 28.7621 48.972C28.5221 48.9 28.2821 48.864 28.0421 48.864C27.6101 48.864 27.2821 48.948 27.0581 49.116C26.8421 49.284 26.7341 49.504 26.7341 49.776C26.7341 49.984 26.7981 50.156 26.9261 50.292C27.0621 50.428 27.2741 50.528 27.5621 50.592L28.6781 50.82C29.1981 50.932 29.5901 51.112 29.8541 51.36C30.1181 51.6 30.2501 51.928 30.2501 52.344C30.2501 52.888 30.0341 53.32 29.6021 53.64C29.1781 53.952 28.6061 54.108 27.8861 54.108ZM34.3709 54.108C33.7389 54.108 33.1949 53.988 32.7389 53.748C32.2909 53.5 31.9429 53.152 31.6949 52.704C31.4469 52.248 31.3229 51.712 31.3229 51.096C31.3229 50.488 31.4429 49.956 31.6829 49.5C31.9309 49.044 32.2669 48.688 32.6909 48.432C33.1229 48.176 33.6149 48.048 34.1669 48.048C34.5589 48.048 34.9109 48.116 35.2229 48.252C35.5429 48.38 35.8149 48.568 36.0389 48.816C36.2629 49.064 36.4309 49.368 36.5429 49.728C36.6629 50.08 36.7229 50.48 36.7229 50.928C36.7229 51.056 36.6829 51.156 36.6029 51.228C36.5309 51.292 36.4229 51.324 36.2789 51.324H32.1749V50.628H36.0029L35.7989 50.796C35.7989 50.38 35.7349 50.028 35.6069 49.74C35.4869 49.444 35.3069 49.22 35.0669 49.068C34.8349 48.916 34.5429 48.84 34.1909 48.84C33.8069 48.84 33.4789 48.932 33.2069 49.116C32.9349 49.292 32.7269 49.544 32.5829 49.872C32.4389 50.192 32.3669 50.564 32.3669 50.988V51.06C32.3669 51.78 32.5389 52.324 32.8829 52.692C33.2269 53.06 33.7229 53.244 34.3709 53.244C34.6269 53.244 34.8869 53.212 35.1509 53.148C35.4229 53.084 35.6829 52.968 35.9309 52.8C36.0509 52.728 36.1589 52.696 36.2549 52.704C36.3589 52.704 36.4429 52.736 36.5069 52.8C36.5709 52.856 36.6109 52.928 36.6269 53.016C36.6429 53.096 36.6309 53.184 36.5909 53.28C36.5509 53.376 36.4749 53.46 36.3629 53.532C36.0989 53.716 35.7829 53.86 35.4149 53.964C35.0549 54.06 34.7069 54.108 34.3709 54.108ZM39.9411 54.108C39.5411 54.108 39.1771 54.028 38.8491 53.868C38.5291 53.708 38.2771 53.492 38.0931 53.22C37.9171 52.948 37.8291 52.644 37.8291 52.308C37.8291 51.876 37.9371 51.536 38.1531 51.288C38.3691 51.04 38.7331 50.864 39.2451 50.76C39.7571 50.648 40.4451 50.592 41.3091 50.592H41.8731V51.288H41.3331C40.7171 51.288 40.2291 51.316 39.8691 51.372C39.5171 51.428 39.2691 51.528 39.1251 51.672C38.9811 51.808 38.9091 52 38.9091 52.248C38.9091 52.56 39.0171 52.816 39.2331 53.016C39.4571 53.216 39.7611 53.316 40.1451 53.316C40.4491 53.316 40.7171 53.244 40.9491 53.1C41.1811 52.948 41.3651 52.748 41.5011 52.5C41.6371 52.244 41.7051 51.952 41.7051 51.624V50.244C41.7051 49.772 41.6091 49.432 41.4171 49.224C41.2251 49.008 40.9011 48.9 40.4451 48.9C40.1811 48.9 39.9091 48.936 39.6291 49.008C39.3491 49.08 39.0571 49.192 38.7531 49.344C38.6331 49.4 38.5291 49.42 38.4411 49.404C38.3531 49.38 38.2811 49.332 38.2251 49.26C38.1771 49.18 38.1491 49.096 38.1411 49.008C38.1411 48.912 38.1611 48.82 38.2011 48.732C38.2491 48.644 38.3291 48.58 38.4411 48.54C38.7931 48.364 39.1411 48.24 39.4851 48.168C39.8371 48.088 40.1651 48.048 40.4691 48.048C40.9891 48.048 41.4171 48.132 41.7531 48.3C42.0891 48.46 42.3411 48.712 42.5091 49.056C42.6771 49.392 42.7611 49.824 42.7611 50.352V53.52C42.7611 53.704 42.7171 53.844 42.6291 53.94C42.5411 54.036 42.4131 54.084 42.2451 54.084C42.0851 54.084 41.9571 54.036 41.8611 53.94C41.7731 53.844 41.7291 53.704 41.7291 53.52V52.668H41.8371C41.7731 52.964 41.6531 53.22 41.4771 53.436C41.3011 53.652 41.0811 53.82 40.8171 53.94C40.5611 54.052 40.2691 54.108 39.9411 54.108ZM45.0435 54.084C44.8595 54.084 44.7195 54.036 44.6235 53.94C44.5275 53.844 44.4795 53.704 44.4795 53.52V48.624C44.4795 48.44 44.5275 48.304 44.6235 48.216C44.7195 48.12 44.8515 48.072 45.0195 48.072C45.1875 48.072 45.3155 48.12 45.4035 48.216C45.4995 48.304 45.5475 48.44 45.5475 48.624V49.548H45.4275C45.5555 49.068 45.7955 48.704 46.1475 48.456C46.4995 48.208 46.9435 48.068 47.4795 48.036C47.6075 48.028 47.7115 48.06 47.7915 48.132C47.8715 48.196 47.9155 48.308 47.9235 48.468C47.9315 48.62 47.8955 48.744 47.8155 48.84C47.7355 48.928 47.6115 48.98 47.4435 48.996L47.2275 49.008C46.6995 49.064 46.2915 49.236 46.0035 49.524C45.7235 49.812 45.5835 50.208 45.5835 50.712V53.52C45.5835 53.704 45.5355 53.844 45.4395 53.94C45.3515 54.036 45.2195 54.084 45.0435 54.084ZM51.3123 54.108C50.7203 54.108 50.2083 53.984 49.7763 53.736C49.3443 53.48 49.0123 53.124 48.7803 52.668C48.5483 52.204 48.4323 51.66 48.4323 51.036C48.4323 50.572 48.4963 50.156 48.6243 49.788C48.7603 49.42 48.9523 49.108 49.2003 48.852C49.4483 48.588 49.7483 48.388 50.1003 48.252C50.4603 48.116 50.8643 48.048 51.3123 48.048C51.5923 48.048 51.8883 48.092 52.2003 48.18C52.5123 48.268 52.8003 48.412 53.0643 48.612C53.1523 48.676 53.2083 48.752 53.2323 48.84C53.2563 48.92 53.2563 49.004 53.2323 49.092C53.2163 49.18 53.1763 49.256 53.1123 49.32C53.0563 49.376 52.9803 49.408 52.8843 49.416C52.7963 49.424 52.7003 49.396 52.5963 49.332C52.4043 49.188 52.2003 49.084 51.9843 49.02C51.7763 48.956 51.5763 48.924 51.3843 48.924C51.0883 48.924 50.8243 48.972 50.5923 49.068C50.3683 49.164 50.1763 49.304 50.0163 49.488C49.8643 49.664 49.7483 49.884 49.6683 50.148C49.5883 50.404 49.5483 50.704 49.5483 51.048C49.5483 51.728 49.7083 52.264 50.0283 52.656C50.3483 53.04 50.8003 53.232 51.3843 53.232C51.5763 53.232 51.7763 53.204 51.9843 53.148C52.1923 53.084 52.3963 52.98 52.5963 52.836C52.7003 52.772 52.7963 52.748 52.8843 52.764C52.9723 52.772 53.0443 52.808 53.1003 52.872C53.1643 52.928 53.2043 53 53.2203 53.088C53.2363 53.168 53.2283 53.252 53.1963 53.34C53.1723 53.428 53.1163 53.5 53.0283 53.556C52.7723 53.748 52.4923 53.888 52.1883 53.976C51.8843 54.064 51.5923 54.108 51.3123 54.108ZM54.8984 54.084C54.7304 54.084 54.5984 54.036 54.5024 53.94C54.4064 53.844 54.3584 53.704 54.3584 53.52V46.008C54.3584 45.824 54.4064 45.688 54.5024 45.6C54.5984 45.504 54.7304 45.456 54.8984 45.456C55.0744 45.456 55.2104 45.504 55.3064 45.6C55.4024 45.688 55.4504 45.824 55.4504 46.008V49.428H55.2944C55.4624 48.972 55.7344 48.628 56.1104 48.396C56.4944 48.164 56.9304 48.048 57.4184 48.048C57.8904 48.048 58.2784 48.136 58.5824 48.312C58.8864 48.48 59.1144 48.736 59.2664 49.08C59.4184 49.424 59.4944 49.856 59.4944 50.376V53.52C59.4944 53.704 59.4464 53.844 59.3504 53.94C59.2624 54.036 59.1304 54.084 58.9544 54.084C58.7784 54.084 58.6424 54.036 58.5464 53.94C58.4504 53.844 58.4024 53.704 58.4024 53.52V50.436C58.4024 49.916 58.3024 49.536 58.1024 49.296C57.9024 49.056 57.5824 48.936 57.1424 48.936C56.6304 48.936 56.2184 49.096 55.9064 49.416C55.6024 49.728 55.4504 50.152 55.4504 50.688V53.52C55.4504 53.896 55.2664 54.084 54.8984 54.084Z" fill="black"/>
<path d="M100.247 53C100.055 53 99.907 52.948 99.803 52.844C99.699 52.74 99.647 52.592 99.647 52.4V45.14C99.647 44.948 99.699 44.8 99.803 44.696C99.907 44.592 100.055 44.54 100.247 44.54H102.563C103.947 44.54 105.011 44.904 105.755 45.632C106.507 46.352 106.883 47.396 106.883 48.764C106.883 49.444 106.787 50.048 106.595 50.576C106.403 51.104 106.123 51.548 105.755 51.908C105.387 52.26 104.935 52.532 104.399 52.724C103.871 52.908 103.259 53 102.563 53H100.247ZM100.763 52.052H102.491C103.035 52.052 103.507 51.984 103.907 51.848C104.307 51.712 104.639 51.508 104.903 51.236C105.175 50.964 105.379 50.624 105.515 50.216C105.651 49.8 105.719 49.316 105.719 48.764C105.719 47.668 105.447 46.848 104.903 46.304C104.367 45.76 103.563 45.488 102.491 45.488H100.763V52.052ZM111.168 53.108C110.536 53.108 109.992 52.988 109.536 52.748C109.088 52.5 108.74 52.152 108.492 51.704C108.244 51.248 108.12 50.712 108.12 50.096C108.12 49.488 108.24 48.956 108.48 48.5C108.728 48.044 109.064 47.688 109.488 47.432C109.92 47.176 110.412 47.048 110.964 47.048C111.356 47.048 111.708 47.116 112.02 47.252C112.34 47.38 112.612 47.568 112.836 47.816C113.06 48.064 113.228 48.368 113.34 48.728C113.46 49.08 113.52 49.48 113.52 49.928C113.52 50.056 113.48 50.156 113.4 50.228C113.328 50.292 113.22 50.324 113.076 50.324H108.972V49.628H112.8L112.596 49.796C112.596 49.38 112.532 49.028 112.404 48.74C112.284 48.444 112.104 48.22 111.864 48.068C111.632 47.916 111.34 47.84 110.988 47.84C110.604 47.84 110.276 47.932 110.004 48.116C109.732 48.292 109.524 48.544 109.38 48.872C109.236 49.192 109.164 49.564 109.164 49.988V50.06C109.164 50.78 109.336 51.324 109.68 51.692C110.024 52.06 110.52 52.244 111.168 52.244C111.424 52.244 111.684 52.212 111.948 52.148C112.22 52.084 112.48 51.968 112.728 51.8C112.848 51.728 112.956 51.696 113.052 51.704C113.156 51.704 113.24 51.736 113.304 51.8C113.368 51.856 113.408 51.928 113.424 52.016C113.44 52.096 113.428 52.184 113.388 52.28C113.348 52.376 113.272 52.46 113.16 52.532C112.896 52.716 112.58 52.86 112.212 52.964C111.852 53.06 111.504 53.108 111.168 53.108ZM115.754 53.084C115.578 53.084 115.442 53.036 115.346 52.94C115.25 52.844 115.202 52.704 115.202 52.52V47.996H114.482C114.338 47.996 114.226 47.96 114.146 47.888C114.066 47.808 114.026 47.704 114.026 47.576C114.026 47.44 114.066 47.336 114.146 47.264C114.226 47.192 114.338 47.156 114.482 47.156H115.502L115.202 47.444V47C115.202 46.232 115.386 45.648 115.754 45.248C116.13 44.848 116.686 44.612 117.422 44.54L117.77 44.516C117.906 44.5 118.014 44.52 118.094 44.576C118.174 44.624 118.226 44.688 118.25 44.768C118.282 44.848 118.286 44.932 118.262 45.02C118.246 45.108 118.21 45.184 118.154 45.248C118.098 45.312 118.026 45.344 117.938 45.344L117.602 45.368C117.146 45.4 116.814 45.54 116.606 45.788C116.398 46.036 116.294 46.392 116.294 46.856V47.336L116.138 47.156H119.414C119.59 47.156 119.722 47.208 119.81 47.312C119.906 47.408 119.954 47.552 119.954 47.744V52.472C119.954 52.656 119.91 52.8 119.822 52.904C119.734 53.008 119.598 53.06 119.414 53.06C119.238 53.06 119.102 53.008 119.006 52.904C118.91 52.8 118.862 52.656 118.862 52.472V47.996H116.294V52.52C116.294 52.896 116.114 53.084 115.754 53.084ZM119.426 45.8C119.218 45.8 119.054 45.744 118.934 45.632C118.814 45.512 118.754 45.356 118.754 45.164C118.754 44.956 118.814 44.8 118.934 44.696C119.054 44.584 119.218 44.528 119.426 44.528C119.65 44.528 119.818 44.584 119.93 44.696C120.05 44.8 120.11 44.956 120.11 45.164C120.11 45.356 120.05 45.512 119.93 45.632C119.818 45.744 119.65 45.8 119.426 45.8ZM122.25 53.084C122.082 53.084 121.95 53.036 121.854 52.94C121.758 52.844 121.71 52.704 121.71 52.52V47.624C121.71 47.44 121.758 47.304 121.854 47.216C121.95 47.12 122.082 47.072 122.25 47.072C122.418 47.072 122.546 47.12 122.634 47.216C122.73 47.304 122.778 47.44 122.778 47.624V48.608L122.646 48.428C122.814 47.972 123.086 47.628 123.462 47.396C123.846 47.164 124.282 47.048 124.77 47.048C125.242 47.048 125.63 47.132 125.934 47.3C126.238 47.468 126.466 47.724 126.618 48.068C126.77 48.412 126.846 48.848 126.846 49.376V52.52C126.846 52.704 126.798 52.844 126.702 52.94C126.614 53.036 126.482 53.084 126.306 53.084C126.13 53.084 125.994 53.036 125.898 52.94C125.802 52.844 125.754 52.704 125.754 52.52V49.436C125.754 48.916 125.654 48.536 125.454 48.296C125.254 48.056 124.934 47.936 124.494 47.936C123.982 47.936 123.57 48.096 123.258 48.416C122.954 48.728 122.802 49.152 122.802 49.688V52.52C122.802 52.896 122.618 53.084 122.25 53.084ZM129.117 53.06C128.949 53.06 128.817 53.008 128.721 52.904C128.625 52.8 128.577 52.656 128.577 52.472V47.684C128.577 47.492 128.625 47.348 128.721 47.252C128.817 47.148 128.949 47.096 129.117 47.096C129.293 47.096 129.429 47.148 129.525 47.252C129.621 47.348 129.669 47.492 129.669 47.684V52.472C129.669 52.656 129.621 52.8 129.525 52.904C129.437 53.008 129.301 53.06 129.117 53.06ZM129.117 45.8C128.901 45.8 128.729 45.744 128.601 45.632C128.481 45.512 128.421 45.356 128.421 45.164C128.421 44.956 128.481 44.8 128.601 44.696C128.729 44.584 128.901 44.528 129.117 44.528C129.349 44.528 129.521 44.584 129.633 44.696C129.753 44.8 129.813 44.956 129.813 45.164C129.813 45.356 129.753 45.512 129.633 45.632C129.521 45.744 129.349 45.8 129.117 45.8ZM133.849 53.108C133.377 53.108 132.981 53.024 132.661 52.856C132.349 52.688 132.113 52.444 131.953 52.124C131.801 51.804 131.725 51.412 131.725 50.948V47.996H130.957C130.813 47.996 130.701 47.96 130.621 47.888C130.541 47.808 130.501 47.704 130.501 47.576C130.501 47.44 130.541 47.336 130.621 47.264C130.701 47.192 130.813 47.156 130.957 47.156H131.725V45.848C131.725 45.664 131.773 45.528 131.869 45.44C131.965 45.344 132.101 45.296 132.277 45.296C132.453 45.296 132.585 45.344 132.673 45.44C132.769 45.528 132.817 45.664 132.817 45.848V47.156H134.269C134.421 47.156 134.537 47.192 134.617 47.264C134.697 47.336 134.737 47.44 134.737 47.576C134.737 47.704 134.697 47.808 134.617 47.888C134.537 47.96 134.421 47.996 134.269 47.996H132.817V50.852C132.817 51.292 132.909 51.624 133.093 51.848C133.277 52.072 133.581 52.184 134.005 52.184C134.157 52.184 134.285 52.172 134.389 52.148C134.493 52.116 134.585 52.1 134.665 52.1C134.737 52.092 134.797 52.116 134.845 52.172C134.901 52.228 134.929 52.332 134.929 52.484C134.929 52.596 134.909 52.7 134.869 52.796C134.837 52.884 134.769 52.944 134.665 52.976C134.569 53.008 134.441 53.036 134.281 53.06C134.121 53.092 133.977 53.108 133.849 53.108ZM136.359 53.06C136.191 53.06 136.059 53.008 135.963 52.904C135.867 52.8 135.819 52.656 135.819 52.472V47.684C135.819 47.492 135.867 47.348 135.963 47.252C136.059 47.148 136.191 47.096 136.359 47.096C136.535 47.096 136.671 47.148 136.767 47.252C136.863 47.348 136.911 47.492 136.911 47.684V52.472C136.911 52.656 136.863 52.8 136.767 52.904C136.679 53.008 136.543 53.06 136.359 53.06ZM136.359 45.8C136.143 45.8 135.971 45.744 135.843 45.632C135.723 45.512 135.663 45.356 135.663 45.164C135.663 44.956 135.723 44.8 135.843 44.696C135.971 44.584 136.143 44.528 136.359 44.528C136.591 44.528 136.763 44.584 136.875 44.696C136.995 44.8 137.055 44.956 137.055 45.164C137.055 45.356 136.995 45.512 136.875 45.632C136.763 45.744 136.591 45.8 136.359 45.8ZM141.151 53.108C140.575 53.108 140.075 52.984 139.651 52.736C139.227 52.488 138.899 52.136 138.667 51.68C138.435 51.224 138.319 50.688 138.319 50.072C138.319 49.608 138.383 49.192 138.511 48.824C138.647 48.448 138.839 48.128 139.087 47.864C139.335 47.6 139.631 47.4 139.975 47.264C140.327 47.12 140.719 47.048 141.151 47.048C141.727 47.048 142.227 47.172 142.651 47.42C143.075 47.668 143.403 48.02 143.635 48.476C143.867 48.924 143.983 49.456 143.983 50.072C143.983 50.536 143.915 50.956 143.779 51.332C143.651 51.708 143.463 52.028 143.215 52.292C142.967 52.556 142.667 52.76 142.315 52.904C141.971 53.04 141.583 53.108 141.151 53.108ZM141.151 52.244C141.503 52.244 141.807 52.16 142.063 51.992C142.327 51.824 142.527 51.58 142.663 51.26C142.807 50.94 142.879 50.544 142.879 50.072C142.879 49.368 142.723 48.832 142.411 48.464C142.099 48.096 141.679 47.912 141.151 47.912C140.807 47.912 140.503 47.996 140.239 48.164C139.983 48.324 139.783 48.564 139.639 48.884C139.495 49.204 139.423 49.6 139.423 50.072C139.423 50.776 139.579 51.316 139.891 51.692C140.211 52.06 140.631 52.244 141.151 52.244ZM145.922 53.084C145.754 53.084 145.622 53.036 145.526 52.94C145.43 52.844 145.382 52.704 145.382 52.52V47.624C145.382 47.44 145.43 47.304 145.526 47.216C145.622 47.12 145.754 47.072 145.922 47.072C146.09 47.072 146.218 47.12 146.306 47.216C146.402 47.304 146.45 47.44 146.45 47.624V48.608L146.318 48.428C146.486 47.972 146.758 47.628 147.134 47.396C147.518 47.164 147.954 47.048 148.442 47.048C148.914 47.048 149.302 47.132 149.606 47.3C149.91 47.468 150.138 47.724 150.29 48.068C150.442 48.412 150.518 48.848 150.518 49.376V52.52C150.518 52.704 150.47 52.844 150.374 52.94C150.286 53.036 150.154 53.084 149.978 53.084C149.802 53.084 149.666 53.036 149.57 52.94C149.474 52.844 149.426 52.704 149.426 52.52V49.436C149.426 48.916 149.326 48.536 149.126 48.296C148.926 48.056 148.606 47.936 148.166 47.936C147.654 47.936 147.242 48.096 146.93 48.416C146.626 48.728 146.474 49.152 146.474 49.688V52.52C146.474 52.896 146.29 53.084 145.922 53.084Z" fill="black"/>
<path d="M194.664 53.084C194.488 53.084 194.352 53.036 194.256 52.94C194.16 52.836 194.112 52.692 194.112 52.508V45.032C194.112 44.84 194.16 44.696 194.256 44.6C194.352 44.504 194.488 44.456 194.664 44.456C194.848 44.456 194.988 44.504 195.084 44.6C195.18 44.696 195.228 44.84 195.228 45.032V52.508C195.228 52.692 195.18 52.836 195.084 52.94C194.996 53.036 194.856 53.084 194.664 53.084ZM199.34 53.108C198.828 53.108 198.376 52.988 197.984 52.748C197.6 52.5 197.3 52.148 197.084 51.692C196.868 51.228 196.76 50.688 196.76 50.072C196.76 49.448 196.864 48.912 197.072 48.464C197.288 48.008 197.588 47.66 197.972 47.42C198.364 47.172 198.82 47.048 199.34 47.048C199.86 47.048 200.308 47.18 200.684 47.444C201.06 47.7 201.312 48.044 201.44 48.476H201.308V45.008C201.308 44.824 201.352 44.688 201.44 44.6C201.536 44.504 201.672 44.456 201.848 44.456C202.024 44.456 202.16 44.504 202.256 44.6C202.352 44.688 202.4 44.824 202.4 45.008V52.52C202.4 52.704 202.352 52.844 202.256 52.94C202.16 53.036 202.024 53.084 201.848 53.084C201.68 53.084 201.548 53.036 201.452 52.94C201.356 52.844 201.308 52.704 201.308 52.52V51.428L201.44 51.644C201.32 52.092 201.068 52.448 200.684 52.712C200.308 52.976 199.86 53.108 199.34 53.108ZM199.592 52.244C199.944 52.244 200.248 52.16 200.504 51.992C200.768 51.824 200.968 51.58 201.104 51.26C201.248 50.94 201.32 50.544 201.32 50.072C201.32 49.368 201.164 48.832 200.852 48.464C200.54 48.096 200.12 47.912 199.592 47.912C199.248 47.912 198.944 47.996 198.68 48.164C198.424 48.324 198.224 48.564 198.08 48.884C197.936 49.204 197.864 49.6 197.864 50.072C197.864 50.776 198.02 51.316 198.332 51.692C198.652 52.06 199.072 52.244 199.592 52.244ZM206.851 53.108C206.219 53.108 205.675 52.988 205.219 52.748C204.771 52.5 204.423 52.152 204.175 51.704C203.927 51.248 203.803 50.712 203.803 50.096C203.803 49.488 203.923 48.956 204.163 48.5C204.411 48.044 204.747 47.688 205.171 47.432C205.603 47.176 206.095 47.048 206.647 47.048C207.039 47.048 207.391 47.116 207.703 47.252C208.023 47.38 208.295 47.568 208.519 47.816C208.743 48.064 208.911 48.368 209.023 48.728C209.143 49.08 209.203 49.48 209.203 49.928C209.203 50.056 209.163 50.156 209.083 50.228C209.011 50.292 208.903 50.324 208.759 50.324H204.655V49.628H208.483L208.279 49.796C208.279 49.38 208.215 49.028 208.087 48.74C207.967 48.444 207.787 48.22 207.547 48.068C207.315 47.916 207.023 47.84 206.671 47.84C206.287 47.84 205.959 47.932 205.687 48.116C205.415 48.292 205.207 48.544 205.063 48.872C204.919 49.192 204.847 49.564 204.847 49.988V50.06C204.847 50.78 205.019 51.324 205.363 51.692C205.707 52.06 206.203 52.244 206.851 52.244C207.107 52.244 207.367 52.212 207.631 52.148C207.903 52.084 208.163 51.968 208.411 51.8C208.531 51.728 208.639 51.696 208.735 51.704C208.839 51.704 208.923 51.736 208.987 51.8C209.051 51.856 209.091 51.928 209.107 52.016C209.123 52.096 209.111 52.184 209.071 52.28C209.031 52.376 208.955 52.46 208.843 52.532C208.579 52.716 208.263 52.86 207.895 52.964C207.535 53.06 207.187 53.108 206.851 53.108ZM212.422 53.108C212.022 53.108 211.658 53.028 211.33 52.868C211.01 52.708 210.758 52.492 210.574 52.22C210.398 51.948 210.31 51.644 210.31 51.308C210.31 50.876 210.418 50.536 210.634 50.288C210.85 50.04 211.214 49.864 211.726 49.76C212.238 49.648 212.926 49.592 213.79 49.592H214.354V50.288H213.814C213.198 50.288 212.71 50.316 212.35 50.372C211.998 50.428 211.75 50.528 211.606 50.672C211.462 50.808 211.39 51 211.39 51.248C211.39 51.56 211.498 51.816 211.714 52.016C211.938 52.216 212.242 52.316 212.626 52.316C212.93 52.316 213.198 52.244 213.43 52.1C213.662 51.948 213.846 51.748 213.982 51.5C214.118 51.244 214.186 50.952 214.186 50.624V49.244C214.186 48.772 214.09 48.432 213.898 48.224C213.706 48.008 213.382 47.9 212.926 47.9C212.662 47.9 212.39 47.936 212.11 48.008C211.83 48.08 211.538 48.192 211.234 48.344C211.114 48.4 211.01 48.42 210.922 48.404C210.834 48.38 210.762 48.332 210.706 48.26C210.658 48.18 210.63 48.096 210.622 48.008C210.622 47.912 210.642 47.82 210.682 47.732C210.73 47.644 210.81 47.58 210.922 47.54C211.274 47.364 211.622 47.24 211.966 47.168C212.318 47.088 212.646 47.048 212.95 47.048C213.47 47.048 213.898 47.132 214.234 47.3C214.57 47.46 214.822 47.712 214.99 48.056C215.158 48.392 215.242 48.824 215.242 49.352V52.52C215.242 52.704 215.198 52.844 215.11 52.94C215.022 53.036 214.894 53.084 214.726 53.084C214.566 53.084 214.438 53.036 214.342 52.94C214.254 52.844 214.21 52.704 214.21 52.52V51.668H214.318C214.254 51.964 214.134 52.22 213.958 52.436C213.782 52.652 213.562 52.82 213.298 52.94C213.042 53.052 212.75 53.108 212.422 53.108ZM219.384 53.108C218.912 53.108 218.516 53.024 218.196 52.856C217.884 52.688 217.648 52.444 217.488 52.124C217.336 51.804 217.26 51.412 217.26 50.948V47.996H216.492C216.348 47.996 216.236 47.96 216.156 47.888C216.076 47.808 216.036 47.704 216.036 47.576C216.036 47.44 216.076 47.336 216.156 47.264C216.236 47.192 216.348 47.156 216.492 47.156H217.26V45.848C217.26 45.664 217.308 45.528 217.404 45.44C217.5 45.344 217.636 45.296 217.812 45.296C217.988 45.296 218.12 45.344 218.208 45.44C218.304 45.528 218.352 45.664 218.352 45.848V47.156H219.804C219.956 47.156 220.072 47.192 220.152 47.264C220.232 47.336 220.272 47.44 220.272 47.576C220.272 47.704 220.232 47.808 220.152 47.888C220.072 47.96 219.956 47.996 219.804 47.996H218.352V50.852C218.352 51.292 218.444 51.624 218.628 51.848C218.812 52.072 219.116 52.184 219.54 52.184C219.692 52.184 219.82 52.172 219.924 52.148C220.028 52.116 220.12 52.1 220.2 52.1C220.272 52.092 220.332 52.116 220.38 52.172C220.436 52.228 220.464 52.332 220.464 52.484C220.464 52.596 220.444 52.7 220.404 52.796C220.372 52.884 220.304 52.944 220.2 52.976C220.104 53.008 219.976 53.036 219.816 53.06C219.656 53.092 219.512 53.108 219.384 53.108ZM221.895 53.06C221.727 53.06 221.595 53.008 221.499 52.904C221.403 52.8 221.355 52.656 221.355 52.472V47.684C221.355 47.492 221.403 47.348 221.499 47.252C221.595 47.148 221.727 47.096 221.895 47.096C222.071 47.096 222.207 47.148 222.303 47.252C222.399 47.348 222.447 47.492 222.447 47.684V52.472C222.447 52.656 222.399 52.8 222.303 52.904C222.215 53.008 222.079 53.06 221.895 53.06ZM221.895 45.8C221.679 45.8 221.507 45.744 221.379 45.632C221.259 45.512 221.199 45.356 221.199 45.164C221.199 44.956 221.259 44.8 221.379 44.696C221.507 44.584 221.679 44.528 221.895 44.528C222.127 44.528 222.299 44.584 222.411 44.696C222.531 44.8 222.591 44.956 222.591 45.164C222.591 45.356 222.531 45.512 222.411 45.632C222.299 45.744 222.127 45.8 221.895 45.8ZM226.686 53.108C226.11 53.108 225.61 52.984 225.186 52.736C224.762 52.488 224.434 52.136 224.202 51.68C223.97 51.224 223.854 50.688 223.854 50.072C223.854 49.608 223.918 49.192 224.046 48.824C224.182 48.448 224.374 48.128 224.622 47.864C224.87 47.6 225.166 47.4 225.51 47.264C225.862 47.12 226.254 47.048 226.686 47.048C227.262 47.048 227.762 47.172 228.186 47.42C228.61 47.668 228.938 48.02 229.17 48.476C229.402 48.924 229.518 49.456 229.518 50.072C229.518 50.536 229.45 50.956 229.314 51.332C229.186 51.708 228.998 52.028 228.75 52.292C228.502 52.556 228.202 52.76 227.85 52.904C227.506 53.04 227.118 53.108 226.686 53.108ZM226.686 52.244C227.038 52.244 227.342 52.16 227.598 51.992C227.862 51.824 228.062 51.58 228.198 51.26C228.342 50.94 228.414 50.544 228.414 50.072C228.414 49.368 228.258 48.832 227.946 48.464C227.634 48.096 227.214 47.912 226.686 47.912C226.342 47.912 226.038 47.996 225.774 48.164C225.518 48.324 225.318 48.564 225.174 48.884C225.03 49.204 224.958 49.6 224.958 50.072C224.958 50.776 225.114 51.316 225.426 51.692C225.746 52.06 226.166 52.244 226.686 52.244ZM231.457 53.084C231.289 53.084 231.157 53.036 231.061 52.94C230.965 52.844 230.917 52.704 230.917 52.52V47.624C230.917 47.44 230.965 47.304 231.061 47.216C231.157 47.12 231.289 47.072 231.457 47.072C231.625 47.072 231.753 47.12 231.841 47.216C231.937 47.304 231.985 47.44 231.985 47.624V48.608L231.853 48.428C232.021 47.972 232.293 47.628 232.669 47.396C233.053 47.164 233.489 47.048 233.977 47.048C234.449 47.048 234.837 47.132 235.141 47.3C235.445 47.468 235.673 47.724 235.825 48.068C235.977 48.412 236.053 48.848 236.053 49.376V52.52C236.053 52.704 236.005 52.844 235.909 52.94C235.821 53.036 235.689 53.084 235.513 53.084C235.337 53.084 235.201 53.036 235.105 52.94C235.009 52.844 234.961 52.704 234.961 52.52V49.436C234.961 48.916 234.861 48.536 234.661 48.296C234.461 48.056 234.141 47.936 233.701 47.936C233.189 47.936 232.777 48.096 232.465 48.416C232.161 48.728 232.009 49.152 232.009 49.688V52.52C232.009 52.896 231.825 53.084 231.457 53.084Z" fill="black"/>
<path d="M277.674 49.084C277.498 49.084 277.362 49.036 277.266 48.94C277.17 48.836 277.122 48.692 277.122 48.508V41.032C277.122 40.84 277.17 40.696 277.266 40.6C277.362 40.504 277.498 40.456 277.674 40.456C277.858 40.456 277.998 40.504 278.094 40.6C278.19 40.696 278.238 40.84 278.238 41.032V48.508C278.238 48.692 278.19 48.836 278.094 48.94C278.006 49.036 277.866 49.084 277.674 49.084ZM280.658 49.084C280.49 49.084 280.358 49.036 280.262 48.94C280.166 48.844 280.118 48.704 280.118 48.52V43.624C280.118 43.44 280.166 43.304 280.262 43.216C280.358 43.12 280.49 43.072 280.658 43.072C280.826 43.072 280.954 43.12 281.042 43.216C281.138 43.304 281.186 43.44 281.186 43.624V44.608L281.054 44.428C281.222 43.972 281.494 43.628 281.87 43.396C282.254 43.164 282.69 43.048 283.178 43.048C283.65 43.048 284.038 43.132 284.342 43.3C284.646 43.468 284.874 43.724 285.026 44.068C285.178 44.412 285.254 44.848 285.254 45.376V48.52C285.254 48.704 285.206 48.844 285.11 48.94C285.022 49.036 284.89 49.084 284.714 49.084C284.538 49.084 284.402 49.036 284.306 48.94C284.21 48.844 284.162 48.704 284.162 48.52V45.436C284.162 44.916 284.062 44.536 283.862 44.296C283.662 44.056 283.342 43.936 282.902 43.936C282.39 43.936 281.978 44.096 281.666 44.416C281.362 44.728 281.21 45.152 281.21 45.688V48.52C281.21 48.896 281.026 49.084 280.658 49.084ZM289.409 49.108C288.937 49.108 288.541 49.024 288.221 48.856C287.909 48.688 287.673 48.444 287.513 48.124C287.361 47.804 287.285 47.412 287.285 46.948V43.996H286.517C286.373 43.996 286.261 43.96 286.181 43.888C286.101 43.808 286.061 43.704 286.061 43.576C286.061 43.44 286.101 43.336 286.181 43.264C286.261 43.192 286.373 43.156 286.517 43.156H287.285V41.848C287.285 41.664 287.333 41.528 287.429 41.44C287.525 41.344 287.661 41.296 287.837 41.296C288.013 41.296 288.145 41.344 288.233 41.44C288.329 41.528 288.377 41.664 288.377 41.848V43.156H289.829C289.981 43.156 290.097 43.192 290.177 43.264C290.257 43.336 290.297 43.44 290.297 43.576C290.297 43.704 290.257 43.808 290.177 43.888C290.097 43.96 289.981 43.996 289.829 43.996H288.377V46.852C288.377 47.292 288.469 47.624 288.653 47.848C288.837 48.072 289.141 48.184 289.565 48.184C289.717 48.184 289.845 48.172 289.949 48.148C290.053 48.116 290.145 48.1 290.225 48.1C290.297 48.092 290.357 48.116 290.405 48.172C290.461 48.228 290.489 48.332 290.489 48.484C290.489 48.596 290.469 48.7 290.429 48.796C290.397 48.884 290.329 48.944 290.225 48.976C290.129 49.008 290.001 49.036 289.841 49.06C289.681 49.092 289.537 49.108 289.409 49.108ZM293.928 49.108C293.296 49.108 292.752 48.988 292.296 48.748C291.848 48.5 291.5 48.152 291.252 47.704C291.004 47.248 290.88 46.712 290.88 46.096C290.88 45.488 291 44.956 291.24 44.5C291.488 44.044 291.824 43.688 292.248 43.432C292.68 43.176 293.172 43.048 293.724 43.048C294.116 43.048 294.468 43.116 294.78 43.252C295.1 43.38 295.372 43.568 295.596 43.816C295.82 44.064 295.988 44.368 296.1 44.728C296.22 45.08 296.28 45.48 296.28 45.928C296.28 46.056 296.24 46.156 296.16 46.228C296.088 46.292 295.98 46.324 295.836 46.324H291.732V45.628H295.56L295.356 45.796C295.356 45.38 295.292 45.028 295.164 44.74C295.044 44.444 294.864 44.22 294.624 44.068C294.392 43.916 294.1 43.84 293.748 43.84C293.364 43.84 293.036 43.932 292.764 44.116C292.492 44.292 292.284 44.544 292.14 44.872C291.996 45.192 291.924 45.564 291.924 45.988V46.06C291.924 46.78 292.096 47.324 292.44 47.692C292.784 48.06 293.28 48.244 293.928 48.244C294.184 48.244 294.444 48.212 294.708 48.148C294.98 48.084 295.24 47.968 295.488 47.8C295.608 47.728 295.716 47.696 295.812 47.704C295.916 47.704 296 47.736 296.064 47.8C296.128 47.856 296.168 47.928 296.184 48.016C296.2 48.096 296.188 48.184 296.148 48.28C296.108 48.376 296.032 48.46 295.92 48.532C295.656 48.716 295.34 48.86 294.972 48.964C294.612 49.06 294.264 49.108 293.928 49.108ZM298.202 49.084C298.018 49.084 297.878 49.036 297.782 48.94C297.686 48.844 297.638 48.704 297.638 48.52V43.624C297.638 43.44 297.686 43.304 297.782 43.216C297.878 43.12 298.01 43.072 298.178 43.072C298.346 43.072 298.474 43.12 298.562 43.216C298.658 43.304 298.706 43.44 298.706 43.624V44.548H298.586C298.714 44.068 298.954 43.704 299.306 43.456C299.658 43.208 300.102 43.068 300.638 43.036C300.766 43.028 300.87 43.06 300.95 43.132C301.03 43.196 301.074 43.308 301.082 43.468C301.09 43.62 301.054 43.744 300.974 43.84C300.894 43.928 300.77 43.98 300.602 43.996L300.386 44.008C299.858 44.064 299.45 44.236 299.162 44.524C298.882 44.812 298.742 45.208 298.742 45.712V48.52C298.742 48.704 298.694 48.844 298.598 48.94C298.51 49.036 298.378 49.084 298.202 49.084ZM303.822 49.108C303.422 49.108 303.058 49.028 302.73 48.868C302.41 48.708 302.158 48.492 301.974 48.22C301.798 47.948 301.71 47.644 301.71 47.308C301.71 46.876 301.818 46.536 302.034 46.288C302.25 46.04 302.614 45.864 303.126 45.76C303.638 45.648 304.326 45.592 305.19 45.592H305.754V46.288H305.214C304.598 46.288 304.11 46.316 303.75 46.372C303.398 46.428 303.15 46.528 303.006 46.672C302.862 46.808 302.79 47 302.79 47.248C302.79 47.56 302.898 47.816 303.114 48.016C303.338 48.216 303.642 48.316 304.026 48.316C304.33 48.316 304.598 48.244 304.83 48.1C305.062 47.948 305.246 47.748 305.382 47.5C305.518 47.244 305.586 46.952 305.586 46.624V45.244C305.586 44.772 305.49 44.432 305.298 44.224C305.106 44.008 304.782 43.9 304.326 43.9C304.062 43.9 303.79 43.936 303.51 44.008C303.23 44.08 302.938 44.192 302.634 44.344C302.514 44.4 302.41 44.42 302.322 44.404C302.234 44.38 302.162 44.332 302.106 44.26C302.058 44.18 302.03 44.096 302.022 44.008C302.022 43.912 302.042 43.82 302.082 43.732C302.13 43.644 302.21 43.58 302.322 43.54C302.674 43.364 303.022 43.24 303.366 43.168C303.718 43.088 304.046 43.048 304.35 43.048C304.87 43.048 305.298 43.132 305.634 43.3C305.97 43.46 306.222 43.712 306.39 44.056C306.558 44.392 306.642 44.824 306.642 45.352V48.52C306.642 48.704 306.598 48.844 306.51 48.94C306.422 49.036 306.294 49.084 306.126 49.084C305.966 49.084 305.838 49.036 305.742 48.94C305.654 48.844 305.61 48.704 305.61 48.52V47.668H305.718C305.654 47.964 305.534 48.22 305.358 48.436C305.182 48.652 304.962 48.82 304.698 48.94C304.442 49.052 304.15 49.108 303.822 49.108ZM310.892 49.108C310.3 49.108 309.788 48.984 309.356 48.736C308.924 48.48 308.592 48.124 308.36 47.668C308.128 47.204 308.012 46.66 308.012 46.036C308.012 45.572 308.076 45.156 308.204 44.788C308.34 44.42 308.532 44.108 308.78 43.852C309.028 43.588 309.328 43.388 309.68 43.252C310.04 43.116 310.444 43.048 310.892 43.048C311.172 43.048 311.468 43.092 311.78 43.18C312.092 43.268 312.38 43.412 312.644 43.612C312.732 43.676 312.788 43.752 312.812 43.84C312.836 43.92 312.836 44.004 312.812 44.092C312.796 44.18 312.756 44.256 312.692 44.32C312.636 44.376 312.56 44.408 312.464 44.416C312.376 44.424 312.28 44.396 312.176 44.332C311.984 44.188 311.78 44.084 311.564 44.02C311.356 43.956 311.156 43.924 310.964 43.924C310.668 43.924 310.404 43.972 310.172 44.068C309.948 44.164 309.756 44.304 309.596 44.488C309.444 44.664 309.328 44.884 309.248 45.148C309.168 45.404 309.128 45.704 309.128 46.048C309.128 46.728 309.288 47.264 309.608 47.656C309.928 48.04 310.38 48.232 310.964 48.232C311.156 48.232 311.356 48.204 311.564 48.148C311.772 48.084 311.976 47.98 312.176 47.836C312.28 47.772 312.376 47.748 312.464 47.764C312.552 47.772 312.624 47.808 312.68 47.872C312.744 47.928 312.784 48 312.8 48.088C312.816 48.168 312.808 48.252 312.776 48.34C312.752 48.428 312.696 48.5 312.608 48.556C312.352 48.748 312.072 48.888 311.768 48.976C311.464 49.064 311.172 49.108 310.892 49.108ZM316.374 49.108C315.902 49.108 315.506 49.024 315.186 48.856C314.874 48.688 314.638 48.444 314.478 48.124C314.326 47.804 314.25 47.412 314.25 46.948V43.996H313.482C313.338 43.996 313.226 43.96 313.146 43.888C313.066 43.808 313.026 43.704 313.026 43.576C313.026 43.44 313.066 43.336 313.146 43.264C313.226 43.192 313.338 43.156 313.482 43.156H314.25V41.848C314.25 41.664 314.298 41.528 314.394 41.44C314.49 41.344 314.626 41.296 314.802 41.296C314.978 41.296 315.11 41.344 315.198 41.44C315.294 41.528 315.342 41.664 315.342 41.848V43.156H316.794C316.946 43.156 317.062 43.192 317.142 43.264C317.222 43.336 317.262 43.44 317.262 43.576C317.262 43.704 317.222 43.808 317.142 43.888C317.062 43.96 316.946 43.996 316.794 43.996H315.342V46.852C315.342 47.292 315.434 47.624 315.618 47.848C315.802 48.072 316.106 48.184 316.53 48.184C316.682 48.184 316.81 48.172 316.914 48.148C317.018 48.116 317.11 48.1 317.19 48.1C317.262 48.092 317.322 48.116 317.37 48.172C317.426 48.228 317.454 48.332 317.454 48.484C317.454 48.596 317.434 48.7 317.394 48.796C317.362 48.884 317.294 48.944 317.19 48.976C317.094 49.008 316.966 49.036 316.806 49.06C316.646 49.092 316.502 49.108 316.374 49.108ZM318.885 49.06C318.717 49.06 318.585 49.008 318.489 48.904C318.393 48.8 318.345 48.656 318.345 48.472V43.684C318.345 43.492 318.393 43.348 318.489 43.252C318.585 43.148 318.717 43.096 318.885 43.096C319.061 43.096 319.197 43.148 319.293 43.252C319.389 43.348 319.437 43.492 319.437 43.684V48.472C319.437 48.656 319.389 48.8 319.293 48.904C319.205 49.008 319.069 49.06 318.885 49.06ZM318.885 41.8C318.669 41.8 318.497 41.744 318.369 41.632C318.249 41.512 318.189 41.356 318.189 41.164C318.189 40.956 318.249 40.8 318.369 40.696C318.497 40.584 318.669 40.528 318.885 40.528C319.117 40.528 319.289 40.584 319.401 40.696C319.521 40.8 319.581 40.956 319.581 41.164C319.581 41.356 319.521 41.512 319.401 41.632C319.289 41.744 319.117 41.8 318.885 41.8ZM323.676 49.108C323.1 49.108 322.6 48.984 322.176 48.736C321.752 48.488 321.424 48.136 321.192 47.68C320.96 47.224 320.844 46.688 320.844 46.072C320.844 45.608 320.908 45.192 321.036 44.824C321.172 44.448 321.364 44.128 321.612 43.864C321.86 43.6 322.156 43.4 322.5 43.264C322.852 43.12 323.244 43.048 323.676 43.048C324.252 43.048 324.752 43.172 325.176 43.42C325.6 43.668 325.928 44.02 326.16 44.476C326.392 44.924 326.508 45.456 326.508 46.072C326.508 46.536 326.44 46.956 326.304 47.332C326.176 47.708 325.988 48.028 325.74 48.292C325.492 48.556 325.192 48.76 324.84 48.904C324.496 49.04 324.108 49.108 323.676 49.108ZM323.676 48.244C324.028 48.244 324.332 48.16 324.588 47.992C324.852 47.824 325.052 47.58 325.188 47.26C325.332 46.94 325.404 46.544 325.404 46.072C325.404 45.368 325.248 44.832 324.936 44.464C324.624 44.096 324.204 43.912 323.676 43.912C323.332 43.912 323.028 43.996 322.764 44.164C322.508 44.324 322.308 44.564 322.164 44.884C322.02 45.204 321.948 45.6 321.948 46.072C321.948 46.776 322.104 47.316 322.416 47.692C322.736 48.06 323.156 48.244 323.676 48.244ZM328.447 49.084C328.279 49.084 328.147 49.036 328.051 48.94C327.955 48.844 327.907 48.704 327.907 48.52V43.624C327.907 43.44 327.955 43.304 328.051 43.216C328.147 43.12 328.279 43.072 328.447 43.072C328.615 43.072 328.743 43.12 328.831 43.216C328.927 43.304 328.975 43.44 328.975 43.624V44.608L328.843 44.428C329.011 43.972 329.283 43.628 329.659 43.396C330.043 43.164 330.479 43.048 330.967 43.048C331.439 43.048 331.827 43.132 332.131 43.3C332.435 43.468 332.663 43.724 332.815 44.068C332.967 44.412 333.043 44.848 333.043 45.376V48.52C333.043 48.704 332.995 48.844 332.899 48.94C332.811 49.036 332.679 49.084 332.503 49.084C332.327 49.084 332.191 49.036 332.095 48.94C331.999 48.844 331.951 48.704 331.951 48.52V45.436C331.951 44.916 331.851 44.536 331.651 44.296C331.451 44.056 331.131 43.936 330.691 43.936C330.179 43.936 329.767 44.096 329.455 44.416C329.151 44.728 328.999 45.152 328.999 45.688V48.52C328.999 48.896 328.815 49.084 328.447 49.084ZM279.865 65.084C279.689 65.084 279.553 65.036 279.457 64.94C279.361 64.836 279.313 64.692 279.313 64.508V57.104C279.313 56.92 279.361 56.78 279.457 56.684C279.561 56.588 279.701 56.54 279.877 56.54H282.733C283.645 56.54 284.345 56.764 284.833 57.212C285.329 57.66 285.577 58.288 285.577 59.096C285.577 59.912 285.329 60.544 284.833 60.992C284.345 61.44 283.645 61.664 282.733 61.664H280.429V64.508C280.429 64.692 280.381 64.836 280.285 64.94C280.197 65.036 280.057 65.084 279.865 65.084ZM280.429 60.764H282.589C283.213 60.764 283.681 60.624 283.993 60.344C284.313 60.056 284.473 59.64 284.473 59.096C284.473 58.552 284.313 58.144 283.993 57.872C283.681 57.592 283.213 57.452 282.589 57.452H280.429V60.764ZM287.256 65.084C287.072 65.084 286.932 65.036 286.836 64.94C286.74 64.844 286.692 64.704 286.692 64.52V59.624C286.692 59.44 286.74 59.304 286.836 59.216C286.932 59.12 287.064 59.072 287.232 59.072C287.4 59.072 287.528 59.12 287.616 59.216C287.712 59.304 287.76 59.44 287.76 59.624V60.548H287.64C287.768 60.068 288.008 59.704 288.36 59.456C288.712 59.208 289.156 59.068 289.692 59.036C289.82 59.028 289.924 59.06 290.004 59.132C290.084 59.196 290.128 59.308 290.136 59.468C290.144 59.62 290.108 59.744 290.028 59.84C289.948 59.928 289.824 59.98 289.656 59.996L289.44 60.008C288.912 60.064 288.504 60.236 288.216 60.524C287.936 60.812 287.796 61.208 287.796 61.712V64.52C287.796 64.704 287.748 64.844 287.652 64.94C287.564 65.036 287.432 65.084 287.256 65.084ZM293.477 65.108C292.901 65.108 292.401 64.984 291.977 64.736C291.553 64.488 291.225 64.136 290.993 63.68C290.761 63.224 290.645 62.688 290.645 62.072C290.645 61.608 290.709 61.192 290.837 60.824C290.973 60.448 291.165 60.128 291.413 59.864C291.661 59.6 291.957 59.4 292.301 59.264C292.653 59.12 293.045 59.048 293.477 59.048C294.053 59.048 294.553 59.172 294.977 59.42C295.401 59.668 295.729 60.02 295.961 60.476C296.193 60.924 296.309 61.456 296.309 62.072C296.309 62.536 296.241 62.956 296.105 63.332C295.977 63.708 295.789 64.028 295.541 64.292C295.293 64.556 294.993 64.76 294.641 64.904C294.297 65.04 293.909 65.108 293.477 65.108ZM293.477 64.244C293.829 64.244 294.133 64.16 294.389 63.992C294.653 63.824 294.853 63.58 294.989 63.26C295.133 62.94 295.205 62.544 295.205 62.072C295.205 61.368 295.049 60.832 294.737 60.464C294.425 60.096 294.005 59.912 293.477 59.912C293.133 59.912 292.829 59.996 292.565 60.164C292.309 60.324 292.109 60.564 291.965 60.884C291.821 61.204 291.749 61.6 291.749 62.072C291.749 62.776 291.905 63.316 292.217 63.692C292.537 64.06 292.957 64.244 293.477 64.244ZM300.073 65.108C299.601 65.108 299.205 65.024 298.885 64.856C298.573 64.688 298.337 64.444 298.177 64.124C298.025 63.804 297.949 63.412 297.949 62.948V59.996H297.181C297.037 59.996 296.925 59.96 296.845 59.888C296.765 59.808 296.725 59.704 296.725 59.576C296.725 59.44 296.765 59.336 296.845 59.264C296.925 59.192 297.037 59.156 297.181 59.156H297.949V57.848C297.949 57.664 297.997 57.528 298.093 57.44C298.189 57.344 298.325 57.296 298.501 57.296C298.677 57.296 298.809 57.344 298.897 57.44C298.993 57.528 299.041 57.664 299.041 57.848V59.156H300.493C300.645 59.156 300.761 59.192 300.841 59.264C300.921 59.336 300.961 59.44 300.961 59.576C300.961 59.704 300.921 59.808 300.841 59.888C300.761 59.96 300.645 59.996 300.493 59.996H299.041V62.852C299.041 63.292 299.133 63.624 299.317 63.848C299.501 64.072 299.805 64.184 300.229 64.184C300.381 64.184 300.509 64.172 300.613 64.148C300.717 64.116 300.809 64.1 300.889 64.1C300.961 64.092 301.021 64.116 301.069 64.172C301.125 64.228 301.153 64.332 301.153 64.484C301.153 64.596 301.133 64.7 301.093 64.796C301.061 64.884 300.993 64.944 300.889 64.976C300.793 65.008 300.665 65.036 300.505 65.06C300.345 65.092 300.201 65.108 300.073 65.108ZM304.376 65.108C303.8 65.108 303.3 64.984 302.876 64.736C302.452 64.488 302.124 64.136 301.892 63.68C301.66 63.224 301.544 62.688 301.544 62.072C301.544 61.608 301.608 61.192 301.736 60.824C301.872 60.448 302.064 60.128 302.312 59.864C302.56 59.6 302.856 59.4 303.2 59.264C303.552 59.12 303.944 59.048 304.376 59.048C304.952 59.048 305.452 59.172 305.876 59.42C306.3 59.668 306.628 60.02 306.86 60.476C307.092 60.924 307.208 61.456 307.208 62.072C307.208 62.536 307.14 62.956 307.004 63.332C306.876 63.708 306.688 64.028 306.44 64.292C306.192 64.556 305.892 64.76 305.54 64.904C305.196 65.04 304.808 65.108 304.376 65.108ZM304.376 64.244C304.728 64.244 305.032 64.16 305.288 63.992C305.552 63.824 305.752 63.58 305.888 63.26C306.032 62.94 306.104 62.544 306.104 62.072C306.104 61.368 305.948 60.832 305.636 60.464C305.324 60.096 304.904 59.912 304.376 59.912C304.032 59.912 303.728 59.996 303.464 60.164C303.208 60.324 303.008 60.564 302.864 60.884C302.72 61.204 302.648 61.6 302.648 62.072C302.648 62.776 302.804 63.316 303.116 63.692C303.436 64.06 303.856 64.244 304.376 64.244ZM310.972 65.108C310.5 65.108 310.104 65.024 309.784 64.856C309.472 64.688 309.236 64.444 309.076 64.124C308.924 63.804 308.848 63.412 308.848 62.948V59.996H308.08C307.936 59.996 307.824 59.96 307.744 59.888C307.664 59.808 307.624 59.704 307.624 59.576C307.624 59.44 307.664 59.336 307.744 59.264C307.824 59.192 307.936 59.156 308.08 59.156H308.848V57.848C308.848 57.664 308.896 57.528 308.992 57.44C309.088 57.344 309.224 57.296 309.4 57.296C309.576 57.296 309.708 57.344 309.796 57.44C309.892 57.528 309.94 57.664 309.94 57.848V59.156H311.392C311.544 59.156 311.66 59.192 311.74 59.264C311.82 59.336 311.86 59.44 311.86 59.576C311.86 59.704 311.82 59.808 311.74 59.888C311.66 59.96 311.544 59.996 311.392 59.996H309.94V62.852C309.94 63.292 310.032 63.624 310.216 63.848C310.4 64.072 310.704 64.184 311.128 64.184C311.28 64.184 311.408 64.172 311.512 64.148C311.616 64.116 311.708 64.1 311.788 64.1C311.86 64.092 311.92 64.116 311.968 64.172C312.024 64.228 312.052 64.332 312.052 64.484C312.052 64.596 312.032 64.7 311.992 64.796C311.96 64.884 311.892 64.944 311.788 64.976C311.692 65.008 311.564 65.036 311.404 65.06C311.244 65.092 311.1 65.108 310.972 65.108ZM314.275 67.244C314.147 67.244 314.039 67.208 313.951 67.136C313.871 67.072 313.823 66.98 313.807 66.86C313.799 66.748 313.823 66.628 313.879 66.5L314.695 64.652V65.108L312.427 59.828C312.371 59.692 312.351 59.568 312.367 59.456C312.383 59.344 312.435 59.252 312.523 59.18C312.619 59.108 312.747 59.072 312.907 59.072C313.043 59.072 313.151 59.104 313.231 59.168C313.311 59.232 313.387 59.344 313.459 59.504L315.343 64.148H315.007L316.927 59.504C316.991 59.344 317.067 59.232 317.155 59.168C317.243 59.104 317.363 59.072 317.515 59.072C317.651 59.072 317.755 59.108 317.827 59.18C317.907 59.252 317.955 59.344 317.971 59.456C317.987 59.568 317.963 59.688 317.899 59.816L314.875 66.812C314.795 66.98 314.711 67.092 314.623 67.148C314.543 67.212 314.427 67.244 314.275 67.244ZM319.67 67.244C319.502 67.244 319.37 67.196 319.274 67.1C319.178 67.004 319.13 66.868 319.13 66.692V59.624C319.13 59.44 319.178 59.304 319.274 59.216C319.37 59.12 319.502 59.072 319.67 59.072C319.846 59.072 319.978 59.12 320.066 59.216C320.162 59.304 320.21 59.44 320.21 59.624V60.716L320.078 60.5C320.206 60.06 320.458 59.708 320.834 59.444C321.21 59.18 321.662 59.048 322.19 59.048C322.71 59.048 323.162 59.172 323.546 59.42C323.93 59.66 324.23 60.008 324.446 60.464C324.662 60.912 324.77 61.448 324.77 62.072C324.77 62.688 324.662 63.228 324.446 63.692C324.238 64.148 323.938 64.5 323.546 64.748C323.162 64.988 322.71 65.108 322.19 65.108C321.67 65.108 321.222 64.976 320.846 64.712C320.47 64.448 320.218 64.1 320.09 63.668H320.222V66.692C320.222 66.868 320.174 67.004 320.078 67.1C319.982 67.196 319.846 67.244 319.67 67.244ZM321.938 64.244C322.282 64.244 322.582 64.16 322.838 63.992C323.102 63.824 323.306 63.58 323.45 63.26C323.594 62.94 323.666 62.544 323.666 62.072C323.666 61.368 323.51 60.832 323.198 60.464C322.886 60.096 322.466 59.912 321.938 59.912C321.586 59.912 321.278 59.996 321.014 60.164C320.758 60.324 320.558 60.564 320.414 60.884C320.278 61.204 320.21 61.6 320.21 62.072C320.21 62.776 320.366 63.316 320.678 63.692C320.99 64.06 321.41 64.244 321.938 64.244ZM328.873 65.108C328.241 65.108 327.697 64.988 327.241 64.748C326.793 64.5 326.445 64.152 326.197 63.704C325.949 63.248 325.825 62.712 325.825 62.096C325.825 61.488 325.945 60.956 326.185 60.5C326.433 60.044 326.769 59.688 327.193 59.432C327.625 59.176 328.117 59.048 328.669 59.048C329.061 59.048 329.413 59.116 329.725 59.252C330.045 59.38 330.317 59.568 330.541 59.816C330.765 60.064 330.933 60.368 331.045 60.728C331.165 61.08 331.225 61.48 331.225 61.928C331.225 62.056 331.185 62.156 331.105 62.228C331.033 62.292 330.925 62.324 330.781 62.324H326.677V61.628H330.505L330.301 61.796C330.301 61.38 330.237 61.028 330.109 60.74C329.989 60.444 329.809 60.22 329.569 60.068C329.337 59.916 329.045 59.84 328.693 59.84C328.309 59.84 327.981 59.932 327.709 60.116C327.437 60.292 327.229 60.544 327.085 60.872C326.941 61.192 326.869 61.564 326.869 61.988V62.06C326.869 62.78 327.041 63.324 327.385 63.692C327.729 64.06 328.225 64.244 328.873 64.244C329.129 64.244 329.389 64.212 329.653 64.148C329.925 64.084 330.185 63.968 330.433 63.8C330.553 63.728 330.661 63.696 330.757 63.704C330.861 63.704 330.945 63.736 331.009 63.8C331.073 63.856 331.113 63.928 331.129 64.016C331.145 64.096 331.133 64.184 331.093 64.28C331.053 64.376 330.977 64.46 330.865 64.532C330.601 64.716 330.285 64.86 329.917 64.964C329.557 65.06 329.209 65.108 328.873 65.108Z" fill="black"/>
<path d="M378.796 54.084C378.612 54.084 378.472 54.036 378.376 53.94C378.28 53.836 378.232 53.692 378.232 53.508V46.488H375.604C375.452 46.488 375.332 46.448 375.244 46.368C375.156 46.28 375.112 46.16 375.112 46.008C375.112 45.856 375.156 45.74 375.244 45.66C375.332 45.58 375.452 45.54 375.604 45.54H381.976C382.136 45.54 382.256 45.58 382.336 45.66C382.424 45.74 382.468 45.856 382.468 46.008C382.468 46.16 382.424 46.28 382.336 46.368C382.256 46.448 382.136 46.488 381.976 46.488H379.348V53.508C379.348 53.692 379.3 53.836 379.204 53.94C379.116 54.036 378.98 54.084 378.796 54.084ZM385.088 54.108C384.456 54.108 383.912 53.988 383.456 53.748C383.008 53.5 382.66 53.152 382.412 52.704C382.164 52.248 382.04 51.712 382.04 51.096C382.04 50.488 382.16 49.956 382.4 49.5C382.648 49.044 382.984 48.688 383.408 48.432C383.84 48.176 384.332 48.048 384.884 48.048C385.276 48.048 385.628 48.116 385.94 48.252C386.26 48.38 386.532 48.568 386.756 48.816C386.98 49.064 387.148 49.368 387.26 49.728C387.38 50.08 387.44 50.48 387.44 50.928C387.44 51.056 387.4 51.156 387.32 51.228C387.248 51.292 387.14 51.324 386.996 51.324H382.892V50.628H386.72L386.516 50.796C386.516 50.38 386.452 50.028 386.324 49.74C386.204 49.444 386.024 49.22 385.784 49.068C385.552 48.916 385.26 48.84 384.908 48.84C384.524 48.84 384.196 48.932 383.924 49.116C383.652 49.292 383.444 49.544 383.3 49.872C383.156 50.192 383.084 50.564 383.084 50.988V51.06C383.084 51.78 383.256 52.324 383.6 52.692C383.944 53.06 384.44 53.244 385.088 53.244C385.344 53.244 385.604 53.212 385.868 53.148C386.14 53.084 386.4 52.968 386.648 52.8C386.768 52.728 386.876 52.696 386.972 52.704C387.076 52.704 387.16 52.736 387.224 52.8C387.288 52.856 387.328 52.928 387.344 53.016C387.36 53.096 387.348 53.184 387.308 53.28C387.268 53.376 387.192 53.46 387.08 53.532C386.816 53.716 386.5 53.86 386.132 53.964C385.772 54.06 385.424 54.108 385.088 54.108ZM390.814 54.108C390.454 54.108 390.09 54.068 389.722 53.988C389.362 53.9 389.022 53.752 388.702 53.544C388.614 53.488 388.55 53.42 388.51 53.34C388.478 53.252 388.466 53.168 388.474 53.088C388.49 53 388.526 52.924 388.582 52.86C388.638 52.796 388.706 52.76 388.786 52.752C388.874 52.736 388.966 52.756 389.062 52.812C389.374 52.988 389.674 53.112 389.962 53.184C390.258 53.256 390.55 53.292 390.838 53.292C391.278 53.292 391.61 53.212 391.834 53.052C392.058 52.892 392.17 52.68 392.17 52.416C392.17 52.192 392.094 52.02 391.942 51.9C391.798 51.772 391.57 51.676 391.258 51.612L390.142 51.384C389.646 51.272 389.27 51.088 389.014 50.832C388.766 50.568 388.642 50.232 388.642 49.824C388.642 49.464 388.738 49.152 388.93 48.888C389.13 48.616 389.406 48.408 389.758 48.264C390.11 48.12 390.514 48.048 390.97 48.048C391.322 48.048 391.654 48.096 391.966 48.192C392.286 48.28 392.574 48.416 392.83 48.6C392.926 48.656 392.986 48.728 393.01 48.816C393.042 48.896 393.046 48.98 393.022 49.068C393.006 49.148 392.97 49.216 392.914 49.272C392.858 49.328 392.786 49.364 392.698 49.38C392.61 49.388 392.514 49.364 392.41 49.308C392.178 49.148 391.938 49.036 391.69 48.972C391.45 48.9 391.21 48.864 390.97 48.864C390.538 48.864 390.21 48.948 389.986 49.116C389.77 49.284 389.662 49.504 389.662 49.776C389.662 49.984 389.726 50.156 389.854 50.292C389.99 50.428 390.202 50.528 390.49 50.592L391.606 50.82C392.126 50.932 392.518 51.112 392.782 51.36C393.046 51.6 393.178 51.928 393.178 52.344C393.178 52.888 392.962 53.32 392.53 53.64C392.106 53.952 391.534 54.108 390.814 54.108ZM396.964 54.108C396.492 54.108 396.096 54.024 395.776 53.856C395.464 53.688 395.228 53.444 395.068 53.124C394.916 52.804 394.84 52.412 394.84 51.948V48.996H394.072C393.928 48.996 393.816 48.96 393.736 48.888C393.656 48.808 393.616 48.704 393.616 48.576C393.616 48.44 393.656 48.336 393.736 48.264C393.816 48.192 393.928 48.156 394.072 48.156H394.84V46.848C394.84 46.664 394.888 46.528 394.984 46.44C395.08 46.344 395.216 46.296 395.392 46.296C395.568 46.296 395.7 46.344 395.788 46.44C395.884 46.528 395.932 46.664 395.932 46.848V48.156H397.384C397.536 48.156 397.652 48.192 397.732 48.264C397.812 48.336 397.852 48.44 397.852 48.576C397.852 48.704 397.812 48.808 397.732 48.888C397.652 48.96 397.536 48.996 397.384 48.996H395.932V51.852C395.932 52.292 396.024 52.624 396.208 52.848C396.392 53.072 396.696 53.184 397.12 53.184C397.272 53.184 397.4 53.172 397.504 53.148C397.608 53.116 397.7 53.1 397.78 53.1C397.852 53.092 397.912 53.116 397.96 53.172C398.016 53.228 398.044 53.332 398.044 53.484C398.044 53.596 398.024 53.7 397.984 53.796C397.952 53.884 397.884 53.944 397.78 53.976C397.684 54.008 397.556 54.036 397.396 54.06C397.236 54.092 397.092 54.108 396.964 54.108ZM399.475 54.06C399.307 54.06 399.175 54.008 399.079 53.904C398.983 53.8 398.935 53.656 398.935 53.472V48.684C398.935 48.492 398.983 48.348 399.079 48.252C399.175 48.148 399.307 48.096 399.475 48.096C399.651 48.096 399.787 48.148 399.883 48.252C399.979 48.348 400.027 48.492 400.027 48.684V53.472C400.027 53.656 399.979 53.8 399.883 53.904C399.795 54.008 399.659 54.06 399.475 54.06ZM399.475 46.8C399.259 46.8 399.087 46.744 398.959 46.632C398.839 46.512 398.779 46.356 398.779 46.164C398.779 45.956 398.839 45.8 398.959 45.696C399.087 45.584 399.259 45.528 399.475 45.528C399.707 45.528 399.879 45.584 399.991 45.696C400.111 45.8 400.171 45.956 400.171 46.164C400.171 46.356 400.111 46.512 399.991 46.632C399.879 46.744 399.707 46.8 399.475 46.8ZM402.322 54.084C402.154 54.084 402.022 54.036 401.926 53.94C401.83 53.844 401.782 53.704 401.782 53.52V48.624C401.782 48.44 401.83 48.304 401.926 48.216C402.022 48.12 402.154 48.072 402.322 48.072C402.49 48.072 402.618 48.12 402.706 48.216C402.802 48.304 402.85 48.44 402.85 48.624V49.608L402.718 49.428C402.886 48.972 403.158 48.628 403.534 48.396C403.918 48.164 404.354 48.048 404.842 48.048C405.314 48.048 405.702 48.132 406.006 48.3C406.31 48.468 406.538 48.724 406.69 49.068C406.842 49.412 406.918 49.848 406.918 50.376V53.52C406.918 53.704 406.87 53.844 406.774 53.94C406.686 54.036 406.554 54.084 406.378 54.084C406.202 54.084 406.066 54.036 405.97 53.94C405.874 53.844 405.826 53.704 405.826 53.52V50.436C405.826 49.916 405.726 49.536 405.526 49.296C405.326 49.056 405.006 48.936 404.566 48.936C404.054 48.936 403.642 49.096 403.33 49.416C403.026 49.728 402.874 50.152 402.874 50.688V53.52C402.874 53.896 402.69 54.084 402.322 54.084ZM411.277 56.268C410.845 56.268 410.425 56.22 410.017 56.124C409.617 56.028 409.253 55.88 408.925 55.68C408.821 55.616 408.749 55.54 408.709 55.452C408.677 55.372 408.669 55.288 408.685 55.2C408.709 55.112 408.749 55.032 408.805 54.96C408.869 54.896 408.941 54.852 409.021 54.828C409.109 54.812 409.197 54.832 409.285 54.888C409.637 55.088 409.973 55.224 410.293 55.296C410.613 55.368 410.917 55.404 411.205 55.404C411.773 55.404 412.197 55.256 412.477 54.96C412.765 54.672 412.909 54.248 412.909 53.688V52.392H413.017C412.905 52.84 412.653 53.196 412.261 53.46C411.877 53.724 411.429 53.856 410.917 53.856C410.389 53.856 409.929 53.736 409.537 53.496C409.145 53.248 408.841 52.908 408.625 52.476C408.409 52.036 408.301 51.528 408.301 50.952C408.301 50.512 408.361 50.116 408.481 49.764C408.609 49.404 408.785 49.1 409.009 48.852C409.241 48.596 409.517 48.4 409.837 48.264C410.157 48.12 410.517 48.048 410.917 48.048C411.437 48.048 411.889 48.18 412.273 48.444C412.657 48.708 412.905 49.064 413.017 49.512L412.885 49.68V48.624C412.885 48.44 412.933 48.304 413.029 48.216C413.125 48.12 413.261 48.072 413.437 48.072C413.605 48.072 413.737 48.12 413.833 48.216C413.929 48.304 413.977 48.44 413.977 48.624V53.544C413.977 54.448 413.745 55.128 413.281 55.584C412.825 56.04 412.157 56.268 411.277 56.268ZM411.157 52.992C411.517 52.992 411.825 52.912 412.081 52.752C412.345 52.584 412.545 52.348 412.681 52.044C412.825 51.732 412.897 51.368 412.897 50.952C412.897 50.32 412.741 49.824 412.429 49.464C412.117 49.096 411.693 48.912 411.157 48.912C410.797 48.912 410.485 48.996 410.221 49.164C409.965 49.324 409.765 49.556 409.621 49.86C409.477 50.164 409.405 50.528 409.405 50.952C409.405 51.576 409.561 52.072 409.873 52.44C410.193 52.808 410.621 52.992 411.157 52.992Z" fill="black"/>
<path d="M304 14.8462V1H397V16" stroke="#416980" stroke-width="2" stroke-dasharray="4 4"/>
<path d="M70 43L75 50L70 57.5" stroke="#416980" stroke-width="2"/>
<path d="M261 43L266 50L261 57.5" stroke="#416980" stroke-width="2"/>
<path d="M354 44L359 51L354 58.5" stroke="#416980" stroke-width="2"/>
<path d="M390 12L397 7L404.5 12" stroke="#416980" stroke-width="2"/>
<path d="M166 43L171 50L166 57.5" stroke="#416980" stroke-width="2"/>
</svg>
