<svg width="469" height="83" viewBox="0 0 469 83" fill="none" xmlns="http://www.w3.org/2000/svg">
<path d="M21.6001 0.350098L45.7401 23.3201L21.6001 47.6301H68.8701L92.4301 23.9901L68.8701 0.350098H21.6001Z" fill="#F1677D"/>
<path d="M66.3801 33.5599H61.5501V20.34L61.6001 18.1699L61.6801 15.7899C60.8801 16.5899 60.3201 17.1199 60.0101 17.3699L57.3901 19.4799L55.0601 16.5699L62.4201 10.71H66.3901V33.5599H66.3801Z" fill="white"/>
<path d="M110.99 0.350098L135.13 23.3201L110.99 47.6301H158.26L181.81 23.9901L158.26 0.350098H110.99Z" fill="#F1677D"/>
<path d="M159.79 33.5599H143.82V30.1999L149.55 24.3999C151.25 22.6599 152.36 21.4499 152.88 20.7799C153.4 20.1099 153.78 19.4899 154 18.9099C154.23 18.3399 154.34 17.7399 154.34 17.1299C154.34 16.2099 154.09 15.5299 153.58 15.0799C153.07 14.6299 152.4 14.4099 151.56 14.4099C150.67 14.4099 149.81 14.6099 148.98 15.0199C148.15 15.4299 147.28 15.9999 146.37 16.7499L143.75 13.6399C144.87 12.6799 145.81 12.0099 146.55 11.6099C147.29 11.2099 148.1 10.9099 148.97 10.6999C149.85 10.4899 150.82 10.3799 151.91 10.3799C153.34 10.3799 154.6 10.6399 155.69 11.1599C156.78 11.6799 157.63 12.4099 158.24 13.3499C158.84 14.2899 159.15 15.3599 159.15 16.5699C159.15 17.6199 158.96 18.6099 158.6 19.5299C158.23 20.4499 157.66 21.3999 156.88 22.3699C156.1 23.3399 154.74 24.7199 152.78 26.5099L149.84 29.2799V29.4999H159.79V33.5599V33.5599Z" fill="white"/>
<path d="M201.21 0.350098L225.36 23.3201L201.21 47.6301H248.48L272.04 23.9901L248.48 0.350098H201.21Z" fill="#F1677D"/>
<path d="M249.13 15.8299C249.13 17.2599 248.7 18.4699 247.83 19.4699C246.96 20.4699 245.75 21.1599 244.19 21.5299V21.6199C246.03 21.8499 247.43 22.4099 248.38 23.2999C249.33 24.1899 249.8 25.3899 249.8 26.8999C249.8 29.0999 249 30.8099 247.41 32.0299C245.82 33.2499 243.54 33.8699 240.58 33.8699C238.1 33.8699 235.9 33.4599 233.99 32.6399V28.5299C234.88 28.9799 235.85 29.3399 236.91 29.6199C237.97 29.8999 239.02 30.0399 240.07 30.0399C241.66 30.0399 242.84 29.7699 243.6 29.2299C244.36 28.6899 244.74 27.8199 244.74 26.6199C244.74 25.5499 244.3 24.7899 243.43 24.3399C242.55 23.8899 241.16 23.6699 239.24 23.6699H237.51V19.9699H239.27C241.04 19.9699 242.34 19.7399 243.15 19.2699C243.97 18.8099 244.38 18.0099 244.38 16.8899C244.38 15.1599 243.3 14.2999 241.13 14.2999C240.38 14.2999 239.62 14.4199 238.84 14.6799C238.06 14.9399 237.2 15.3599 236.25 15.9799L234.02 12.6499C236.1 11.1499 238.59 10.3999 241.47 10.3999C243.83 10.3999 245.7 10.8799 247.07 11.8399C248.44 12.7899 249.13 14.1199 249.13 15.8299Z" fill="white"/>
<path d="M290.96 0L315.11 22.96L290.96 47.27H338.24L361.79 23.64L338.24 0H290.96Z" fill="#F1677D"/>
<path d="M340.29 28.4699H337.54V33.1999H332.82V28.4699H323.07V25.1099L333.09 10.3599H337.54V24.7199H340.29V28.4699V28.4699ZM332.82 24.7199V20.8399C332.82 20.1899 332.85 19.2599 332.9 18.0299C332.95 16.7999 332.99 16.0899 333.02 15.8899H332.9C332.51 16.7399 332.05 17.5799 331.51 18.3899L327.32 24.7199H332.82V24.7199Z" fill="white"/>
<path d="M380.75 0L404.9 22.96L380.75 47.27H428.03L451.58 23.64L428.03 0H380.75Z" fill="#F1677D"/>
<path d="M421.91 18.6099C424.12 18.6099 425.88 19.2299 427.18 20.4699C428.49 21.7099 429.14 23.4099 429.14 25.5599C429.14 28.1099 428.35 30.0799 426.78 31.4499C425.21 32.8299 422.96 33.5099 420.03 33.5099C417.49 33.5099 415.44 33.0999 413.87 32.2799V28.1099C414.69 28.5499 415.65 28.8999 416.75 29.1799C417.84 29.4599 418.88 29.5899 419.86 29.5899C422.81 29.5899 424.28 28.3799 424.28 25.9699C424.28 23.6699 422.75 22.5199 419.7 22.5199C419.15 22.5199 418.54 22.5699 417.87 22.6799C417.2 22.7899 416.66 22.9099 416.25 23.0299L414.33 21.9999L415.19 10.3599H427.58V14.4499H419.42L419 18.9299L419.55 18.8199C420.18 18.6899 420.97 18.6099 421.91 18.6099Z" fill="white"/>
<path d="M452.535 83H16.4745C7.38785 83 0 74.6296 0 64.3298V41.6703C0 31.3805 7.38785 23 16.4745 23H24.8204V25.2107H16.4745C8.59282 25.2107 2.17289 32.5964 2.17289 41.6703V64.3298C2.17289 73.4037 8.58294 80.7894 16.4745 80.7894H452.526C460.407 80.7894 466.827 73.4037 466.827 64.3298V34.2845C466.827 29.2803 463.311 25.2107 458.995 25.2107V23C464.506 23 469 28.0645 469 34.2845V64.3298C469 74.6195 461.612 83 452.535 83Z" fill="#426A80"/>
<path d="M15.3572 69L12.0277 57.3636H14.7152L16.6413 65.4489H16.7379L18.8629 57.3636H21.1641L23.2834 65.4659H23.3857L25.3118 57.3636H27.9993L24.6697 69H22.272L20.0561 61.392H19.9652L17.755 69H15.3572ZM29.2706 69V60.2727H31.6911V69H29.2706ZM30.4865 59.1477C30.1267 59.1477 29.8179 59.0284 29.5604 58.7898C29.3066 58.5473 29.1797 58.2576 29.1797 57.9205C29.1797 57.5871 29.3066 57.3011 29.5604 57.0625C29.8179 56.8201 30.1267 56.6989 30.4865 56.6989C30.8464 56.6989 31.1532 56.8201 31.407 57.0625C31.6645 57.3011 31.7933 57.5871 31.7933 57.9205C31.7933 58.2576 31.6645 58.5473 31.407 58.7898C31.1532 59.0284 30.8464 59.1477 30.4865 59.1477ZM33.63 69V60.2727H35.9766V61.7955H36.0675C36.2266 61.2538 36.4936 60.8447 36.8686 60.5682C37.2436 60.2879 37.6754 60.1477 38.1641 60.1477C38.2853 60.1477 38.416 60.1553 38.5561 60.1705C38.6963 60.1856 38.8194 60.2064 38.9254 60.233V62.3807C38.8118 62.3466 38.6546 62.3163 38.4538 62.2898C38.2531 62.2633 38.0694 62.25 37.9027 62.25C37.5466 62.25 37.2285 62.3277 36.9482 62.483C36.6716 62.6345 36.4519 62.8466 36.2891 63.1193C36.13 63.392 36.0504 63.7064 36.0504 64.0625V69H33.63ZM43.7479 69.1705C42.8501 69.1705 42.0774 68.9886 41.4297 68.625C40.7857 68.2576 40.2895 67.7386 39.9411 67.0682C39.5926 66.3939 39.4183 65.5966 39.4183 64.6761C39.4183 63.7784 39.5926 62.9905 39.9411 62.3125C40.2895 61.6345 40.7801 61.1061 41.4126 60.7273C42.049 60.3485 42.7952 60.1591 43.6513 60.1591C44.227 60.1591 44.763 60.2519 45.2592 60.4375C45.7592 60.6193 46.1948 60.8939 46.5661 61.2614C46.9411 61.6288 47.2327 62.0909 47.4411 62.6477C47.6494 63.2008 47.7536 63.8485 47.7536 64.5909V65.2557H40.3842V63.7557H45.4751C45.4751 63.4072 45.3994 63.0985 45.2479 62.8295C45.0964 62.5606 44.8861 62.3504 44.6172 62.1989C44.352 62.0436 44.0433 61.9659 43.6911 61.9659C43.3236 61.9659 42.9979 62.0511 42.7138 62.2216C42.4335 62.3883 42.2138 62.6136 42.0547 62.8977C41.8956 63.178 41.8142 63.4905 41.8104 63.8352V65.2614C41.8104 65.6932 41.8899 66.0663 42.049 66.3807C42.2119 66.6951 42.4411 66.9375 42.7365 67.108C43.032 67.2784 43.3823 67.3636 43.7876 67.3636C44.0566 67.3636 44.3028 67.3258 44.5263 67.25C44.7498 67.1742 44.9411 67.0606 45.1001 66.9091C45.2592 66.7576 45.3804 66.572 45.4638 66.3523L47.7024 66.5C47.5888 67.0379 47.3558 67.5076 47.0036 67.9091C46.6551 68.3068 46.2043 68.6174 45.6513 68.8409C45.102 69.0606 44.4676 69.1705 43.7479 69.1705ZM54.0263 60.2727V62.0909H48.6399V60.2727H54.0263ZM49.8729 69V59.642C49.8729 59.0095 49.996 58.4848 50.2422 58.0682C50.4922 57.6515 50.8331 57.339 51.2649 57.1307C51.6967 56.9223 52.1873 56.8182 52.7365 56.8182C53.1077 56.8182 53.4467 56.8466 53.7536 56.9034C54.0642 56.9602 54.2952 57.0114 54.4467 57.0568L54.0149 58.875C53.9202 58.8447 53.8028 58.8163 53.6626 58.7898C53.5263 58.7633 53.3861 58.75 53.2422 58.75C52.8861 58.75 52.638 58.8333 52.4979 59C52.3577 59.1629 52.2876 59.392 52.2876 59.6875V69H49.8729ZM55.505 69V60.2727H57.8516V61.7955H57.9425C58.1016 61.2538 58.3686 60.8447 58.7436 60.5682C59.1186 60.2879 59.5504 60.1477 60.0391 60.1477C60.1603 60.1477 60.291 60.1553 60.4311 60.1705C60.5713 60.1856 60.6944 60.2064 60.8004 60.233V62.3807C60.6868 62.3466 60.5296 62.3163 60.3288 62.2898C60.1281 62.2633 59.9444 62.25 59.7777 62.25C59.4216 62.25 59.1035 62.3277 58.8232 62.483C58.5466 62.6345 58.3269 62.8466 58.1641 63.1193C58.005 63.392 57.9254 63.7064 57.9254 64.0625V69H55.505ZM64.2905 69.1648C63.7337 69.1648 63.2375 69.0682 62.8018 68.875C62.3662 68.678 62.0215 68.3883 61.7678 68.0057C61.5178 67.6193 61.3928 67.1383 61.3928 66.5625C61.3928 66.0777 61.4818 65.6705 61.6598 65.3409C61.8378 65.0114 62.0803 64.7462 62.3871 64.5455C62.6939 64.3447 63.0424 64.1932 63.4325 64.0909C63.8265 63.9886 64.2393 63.9167 64.6712 63.875C65.1787 63.822 65.5878 63.7727 65.8984 63.7273C66.209 63.678 66.4344 63.6061 66.5746 63.5114C66.7147 63.4167 66.7848 63.2765 66.7848 63.0909V63.0568C66.7848 62.697 66.6712 62.4186 66.4439 62.2216C66.2204 62.0246 65.9022 61.9261 65.4893 61.9261C65.0537 61.9261 64.7071 62.0227 64.4496 62.2159C64.192 62.4053 64.0215 62.6439 63.9382 62.9318L61.6996 62.75C61.8132 62.2197 62.0367 61.7614 62.37 61.375C62.7034 60.9848 63.1333 60.6856 63.6598 60.4773C64.1901 60.2652 64.8037 60.1591 65.5007 60.1591C65.9856 60.1591 66.4496 60.2159 66.8928 60.3295C67.3397 60.4432 67.7356 60.6193 68.0803 60.858C68.4287 61.0966 68.7034 61.4034 68.9041 61.7784C69.1049 62.1496 69.2053 62.5947 69.2053 63.1136V69H66.9098V67.7898H66.8416C66.7015 68.0625 66.514 68.303 66.2791 68.5114C66.0443 68.7159 65.7621 68.8769 65.4325 68.9943C65.103 69.108 64.7223 69.1648 64.2905 69.1648ZM64.9837 67.4943C65.3397 67.4943 65.6541 67.4242 65.9268 67.2841C66.1996 67.1402 66.4136 66.947 66.5689 66.7045C66.7242 66.4621 66.8018 66.1875 66.8018 65.8807V64.9545C66.7261 65.0038 66.6219 65.0492 66.4893 65.0909C66.3606 65.1288 66.2147 65.1648 66.0518 65.1989C65.889 65.2292 65.7261 65.2576 65.5632 65.2841C65.4003 65.3068 65.2526 65.3277 65.12 65.3466C64.8359 65.3883 64.5878 65.4545 64.3757 65.5455C64.1636 65.6364 63.9988 65.7595 63.8814 65.9148C63.764 66.0663 63.7053 66.2557 63.7053 66.483C63.7053 66.8125 63.8246 67.0644 64.0632 67.2386C64.3056 67.4091 64.6125 67.4943 64.9837 67.4943ZM71.0831 69V60.2727H73.3899V61.8125H73.4922C73.674 61.3011 73.977 60.8977 74.4013 60.6023C74.8255 60.3068 75.3331 60.1591 75.924 60.1591C76.5225 60.1591 77.032 60.3087 77.4524 60.608C77.8729 60.9034 78.1532 61.3049 78.2933 61.8125H78.3842C78.5623 61.3125 78.8842 60.9129 79.3501 60.6136C79.8198 60.3106 80.3748 60.1591 81.0149 60.1591C81.8293 60.1591 82.4903 60.4186 82.9979 60.9375C83.5092 61.4527 83.7649 62.1837 83.7649 63.1307V69H81.3501V63.608C81.3501 63.1231 81.2214 62.7595 80.9638 62.517C80.7062 62.2746 80.3842 62.1534 79.9979 62.1534C79.5585 62.1534 79.2157 62.2936 78.9695 62.5739C78.7232 62.8504 78.6001 63.2159 78.6001 63.6705V69H76.2536V63.5568C76.2536 63.1288 76.1304 62.7879 75.8842 62.5341C75.6418 62.2803 75.3217 62.1534 74.924 62.1534C74.6551 62.1534 74.4126 62.2216 74.1967 62.358C73.9846 62.4905 73.8161 62.678 73.6911 62.9205C73.5661 63.1591 73.5036 63.4394 73.5036 63.7614V69H71.0831ZM89.6541 69.1705C88.7564 69.1705 87.9837 68.9886 87.3359 68.625C86.692 68.2576 86.1958 67.7386 85.8473 67.0682C85.4988 66.3939 85.3246 65.5966 85.3246 64.6761C85.3246 63.7784 85.4988 62.9905 85.8473 62.3125C86.1958 61.6345 86.6863 61.1061 87.3189 60.7273C87.9553 60.3485 88.7015 60.1591 89.5575 60.1591C90.1333 60.1591 90.6693 60.2519 91.1655 60.4375C91.6655 60.6193 92.1011 60.8939 92.4723 61.2614C92.8473 61.6288 93.139 62.0909 93.3473 62.6477C93.5556 63.2008 93.6598 63.8485 93.6598 64.5909V65.2557H86.2905V63.7557H91.3814C91.3814 63.4072 91.3056 63.0985 91.1541 62.8295C91.0026 62.5606 90.7924 62.3504 90.5234 62.1989C90.2583 62.0436 89.9496 61.9659 89.5973 61.9659C89.2299 61.9659 88.9041 62.0511 88.62 62.2216C88.3397 62.3883 88.12 62.6136 87.9609 62.8977C87.8018 63.178 87.7204 63.4905 87.7166 63.8352V65.2614C87.7166 65.6932 87.7962 66.0663 87.9553 66.3807C88.1181 66.6951 88.3473 66.9375 88.6428 67.108C88.9382 67.2784 89.2886 67.3636 89.6939 67.3636C89.9628 67.3636 90.209 67.3258 90.4325 67.25C90.656 67.1742 90.8473 67.0606 91.0064 66.9091C91.1655 66.7576 91.2867 66.572 91.37 66.3523L93.6087 66.5C93.495 67.0379 93.2621 67.5076 92.9098 67.9091C92.5613 68.3068 92.1106 68.6174 91.5575 68.8409C91.0083 69.0606 90.3738 69.1705 89.6541 69.1705Z" fill="#426A80"/>
<path d="M108.246 69V57.3636H112.837C113.719 57.3636 114.471 57.5322 115.092 57.8693C115.714 58.2027 116.187 58.6667 116.513 59.2614C116.842 59.8523 117.007 60.5341 117.007 61.3068C117.007 62.0795 116.84 62.7614 116.507 63.3523C116.174 63.9432 115.691 64.4034 115.058 64.733C114.429 65.0625 113.668 65.2273 112.774 65.2273H109.848V63.2557H112.376C112.85 63.2557 113.24 63.1742 113.547 63.0114C113.857 62.8447 114.089 62.6155 114.24 62.3239C114.395 62.0284 114.473 61.6894 114.473 61.3068C114.473 60.9205 114.395 60.5833 114.24 60.2955C114.089 60.0038 113.857 59.7784 113.547 59.6193C113.236 59.4564 112.842 59.375 112.365 59.375H110.706V69H108.246ZM118.56 69V60.2727H120.906V61.7955H120.997C121.156 61.2538 121.423 60.8447 121.798 60.5682C122.173 60.2879 122.605 60.1477 123.094 60.1477C123.215 60.1477 123.346 60.1553 123.486 60.1705C123.626 60.1856 123.749 60.2064 123.855 60.233V62.3807C123.741 62.3466 123.584 62.3163 123.384 62.2898C123.183 62.2633 122.999 62.25 122.832 62.25C122.476 62.25 122.158 62.3277 121.878 62.483C121.601 62.6345 121.382 62.8466 121.219 63.1193C121.06 63.392 120.98 63.7064 120.98 64.0625V69H118.56ZM128.643 69.1705C127.761 69.1705 126.998 68.983 126.354 68.608C125.714 68.2292 125.219 67.7027 124.871 67.0284C124.522 66.3504 124.348 65.5644 124.348 64.6705C124.348 63.7689 124.522 62.9811 124.871 62.3068C125.219 61.6288 125.714 61.1023 126.354 60.7273C126.998 60.3485 127.761 60.1591 128.643 60.1591C129.526 60.1591 130.287 60.3485 130.928 60.7273C131.571 61.1023 132.068 61.6288 132.416 62.3068C132.765 62.9811 132.939 63.7689 132.939 64.6705C132.939 65.5644 132.765 66.3504 132.416 67.0284C132.068 67.7027 131.571 68.2292 130.928 68.608C130.287 68.983 129.526 69.1705 128.643 69.1705ZM128.655 67.2955C129.056 67.2955 129.392 67.1818 129.661 66.9545C129.929 66.7235 130.132 66.4091 130.268 66.0114C130.409 65.6136 130.479 65.161 130.479 64.6534C130.479 64.1458 130.409 63.6932 130.268 63.2955C130.132 62.8977 129.929 62.5833 129.661 62.3523C129.392 62.1212 129.056 62.0057 128.655 62.0057C128.25 62.0057 127.909 62.1212 127.632 62.3523C127.359 62.5833 127.153 62.8977 127.013 63.2955C126.876 63.6932 126.808 64.1458 126.808 64.6534C126.808 65.161 126.876 65.6136 127.013 66.0114C127.153 66.4091 127.359 66.7235 127.632 66.9545C127.909 67.1818 128.25 67.2955 128.655 67.2955ZM139.155 60.2727V62.0909H133.899V60.2727H139.155ZM135.092 58.1818H137.513V66.3182C137.513 66.5417 137.547 66.7159 137.615 66.8409C137.683 66.9621 137.778 67.0473 137.899 67.0966C138.024 67.1458 138.168 67.1705 138.331 67.1705C138.445 67.1705 138.558 67.161 138.672 67.142C138.786 67.1193 138.873 67.1023 138.933 67.0909L139.314 68.892C139.193 68.9299 139.022 68.9735 138.803 69.0227C138.583 69.0758 138.316 69.108 138.001 69.1193C137.418 69.142 136.907 69.0644 136.467 68.8864C136.032 68.7083 135.693 68.4318 135.45 68.0568C135.208 67.6818 135.089 67.2083 135.092 66.6364V58.1818ZM144.581 69.1705C143.698 69.1705 142.935 68.983 142.291 68.608C141.651 68.2292 141.157 67.7027 140.808 67.0284C140.46 66.3504 140.286 65.5644 140.286 64.6705C140.286 63.7689 140.46 62.9811 140.808 62.3068C141.157 61.6288 141.651 61.1023 142.291 60.7273C142.935 60.3485 143.698 60.1591 144.581 60.1591C145.464 60.1591 146.225 60.3485 146.865 60.7273C147.509 61.1023 148.005 61.6288 148.354 62.3068C148.702 62.9811 148.876 63.7689 148.876 64.6705C148.876 65.5644 148.702 66.3504 148.354 67.0284C148.005 67.7027 147.509 68.2292 146.865 68.608C146.225 68.983 145.464 69.1705 144.581 69.1705ZM144.592 67.2955C144.994 67.2955 145.329 67.1818 145.598 66.9545C145.867 66.7235 146.07 66.4091 146.206 66.0114C146.346 65.6136 146.416 65.161 146.416 64.6534C146.416 64.1458 146.346 63.6932 146.206 63.2955C146.07 62.8977 145.867 62.5833 145.598 62.3523C145.329 62.1212 144.994 62.0057 144.592 62.0057C144.187 62.0057 143.846 62.1212 143.57 62.3523C143.297 62.5833 143.09 62.8977 142.95 63.2955C142.814 63.6932 142.746 64.1458 142.746 64.6534C142.746 65.161 142.814 65.6136 142.95 66.0114C143.09 66.4091 143.297 66.7235 143.57 66.9545C143.846 67.1818 144.187 67.2955 144.592 67.2955ZM155.092 60.2727V62.0909H149.837V60.2727H155.092ZM151.03 58.1818H153.45V66.3182C153.45 66.5417 153.484 66.7159 153.553 66.8409C153.621 66.9621 153.715 67.0473 153.837 67.0966C153.962 67.1458 154.106 67.1705 154.268 67.1705C154.382 67.1705 154.496 67.161 154.609 67.142C154.723 67.1193 154.81 67.1023 154.871 67.0909L155.251 68.892C155.13 68.9299 154.96 68.9735 154.74 69.0227C154.52 69.0758 154.253 69.108 153.939 69.1193C153.356 69.142 152.844 69.0644 152.405 68.8864C151.969 68.7083 151.63 68.4318 151.388 68.0568C151.145 67.6818 151.026 67.2083 151.03 66.6364V58.1818ZM158.163 72.2727C157.857 72.2727 157.569 72.2481 157.3 72.1989C157.035 72.1534 156.815 72.0947 156.641 72.0227L157.186 70.2159C157.47 70.303 157.726 70.3504 157.953 70.358C158.184 70.3655 158.383 70.3125 158.55 70.1989C158.72 70.0852 158.858 69.892 158.964 69.6193L159.107 69.25L155.976 60.2727H158.521L160.328 66.6818H160.419L162.243 60.2727H164.805L161.413 69.9432C161.25 70.4129 161.029 70.822 160.749 71.1705C160.472 71.5227 160.122 71.7936 159.697 71.983C159.273 72.1761 158.762 72.2727 158.163 72.2727ZM166.044 72.2727V60.2727H168.43V61.7386H168.538C168.644 61.5038 168.798 61.2652 168.999 61.0227C169.203 60.7765 169.468 60.572 169.794 60.4091C170.124 60.2424 170.533 60.1591 171.021 60.1591C171.658 60.1591 172.245 60.3258 172.783 60.6591C173.321 60.9886 173.75 61.4867 174.072 62.1534C174.394 62.8163 174.555 63.6477 174.555 64.6477C174.555 65.6212 174.398 66.4432 174.084 67.1136C173.773 67.7803 173.349 68.286 172.811 68.6307C172.277 68.9716 171.679 69.142 171.016 69.142C170.546 69.142 170.146 69.0644 169.817 68.9091C169.491 68.7538 169.224 68.5587 169.016 68.3239C168.807 68.0852 168.648 67.8447 168.538 67.6023H168.464V72.2727H166.044ZM168.413 64.6364C168.413 65.1553 168.485 65.608 168.629 65.9943C168.773 66.3807 168.982 66.6818 169.254 66.8977C169.527 67.1098 169.858 67.2159 170.249 67.2159C170.643 67.2159 170.976 67.108 171.249 66.892C171.521 66.6723 171.728 66.3693 171.868 65.983C172.012 65.5928 172.084 65.1439 172.084 64.6364C172.084 64.1326 172.014 63.6894 171.874 63.3068C171.733 62.9242 171.527 62.625 171.254 62.4091C170.982 62.1932 170.646 62.0852 170.249 62.0852C169.855 62.0852 169.521 62.1894 169.249 62.3977C168.98 62.6061 168.773 62.9015 168.629 63.2841C168.485 63.6667 168.413 64.1174 168.413 64.6364ZM180.146 69.1705C179.249 69.1705 178.476 68.9886 177.828 68.625C177.184 68.2576 176.688 67.7386 176.339 67.0682C175.991 66.3939 175.817 65.5966 175.817 64.6761C175.817 63.7784 175.991 62.9905 176.339 62.3125C176.688 61.6345 177.179 61.1061 177.811 60.7273C178.447 60.3485 179.194 60.1591 180.05 60.1591C180.625 60.1591 181.161 60.2519 181.658 60.4375C182.158 60.6193 182.593 60.8939 182.964 61.2614C183.339 61.6288 183.631 62.0909 183.839 62.6477C184.048 63.2008 184.152 63.8485 184.152 64.5909V65.2557H176.783V63.7557H181.874C181.874 63.4072 181.798 63.0985 181.646 62.8295C181.495 62.5606 181.285 62.3504 181.016 62.1989C180.75 62.0436 180.442 61.9659 180.089 61.9659C179.722 61.9659 179.396 62.0511 179.112 62.2216C178.832 62.3883 178.612 62.6136 178.453 62.8977C178.294 63.178 178.213 63.4905 178.209 63.8352V65.2614C178.209 65.6932 178.288 66.0663 178.447 66.3807C178.61 66.6951 178.839 66.9375 179.135 67.108C179.43 67.2784 179.781 67.3636 180.186 67.3636C180.455 67.3636 180.701 67.3258 180.925 67.25C181.148 67.1742 181.339 67.0606 181.499 66.9091C181.658 66.7576 181.779 66.572 181.862 66.3523L184.101 66.5C183.987 67.0379 183.754 67.5076 183.402 67.9091C183.054 68.3068 182.603 68.6174 182.05 68.8409C181.5 69.0606 180.866 69.1705 180.146 69.1705Z" fill="#426A80"/>
<path d="M205.256 59.392V57.3636H214.812V59.392H211.25V69H208.818V59.392H205.256ZM219.053 69.1705C218.155 69.1705 217.382 68.9886 216.734 68.625C216.09 68.2576 215.594 67.7386 215.246 67.0682C214.897 66.3939 214.723 65.5966 214.723 64.6761C214.723 63.7784 214.897 62.9905 215.246 62.3125C215.594 61.6345 216.085 61.1061 216.717 60.7273C217.354 60.3485 218.1 60.1591 218.956 60.1591C219.532 60.1591 220.068 60.2519 220.564 60.4375C221.064 60.6193 221.5 60.8939 221.871 61.2614C222.246 61.6288 222.537 62.0909 222.746 62.6477C222.954 63.2008 223.058 63.8485 223.058 64.5909V65.2557H215.689V63.7557H220.78C220.78 63.4072 220.704 63.0985 220.553 62.8295C220.401 62.5606 220.191 62.3504 219.922 62.1989C219.657 62.0436 219.348 61.9659 218.996 61.9659C218.628 61.9659 218.303 62.0511 218.018 62.2216C217.738 62.3883 217.518 62.6136 217.359 62.8977C217.2 63.178 217.119 63.4905 217.115 63.8352V65.2614C217.115 65.6932 217.195 66.0663 217.354 66.3807C217.517 66.6951 217.746 66.9375 218.041 67.108C218.337 67.2784 218.687 67.3636 219.092 67.3636C219.361 67.3636 219.607 67.3258 219.831 67.25C220.054 67.1742 220.246 67.0606 220.405 66.9091C220.564 66.7576 220.685 66.572 220.768 66.3523L223.007 66.5C222.893 67.0379 222.661 67.5076 222.308 67.9091C221.96 68.3068 221.509 68.6174 220.956 68.8409C220.407 69.0606 219.772 69.1705 219.053 69.1705ZM231.899 62.7614L229.683 62.8977C229.645 62.7083 229.564 62.5379 229.439 62.3864C229.314 62.2311 229.149 62.108 228.945 62.017C228.744 61.9223 228.503 61.875 228.223 61.875C227.848 61.875 227.532 61.9545 227.274 62.1136C227.017 62.2689 226.888 62.4773 226.888 62.7386C226.888 62.947 226.971 63.1231 227.138 63.267C227.304 63.411 227.59 63.5265 227.996 63.6136L229.575 63.9318C230.424 64.1061 231.056 64.3864 231.473 64.7727C231.89 65.1591 232.098 65.6667 232.098 66.2955C232.098 66.8674 231.929 67.3693 231.592 67.8011C231.259 68.233 230.801 68.5701 230.217 68.8125C229.638 69.0511 228.969 69.1705 228.212 69.1705C227.056 69.1705 226.136 68.9299 225.45 68.4489C224.768 67.964 224.369 67.3049 224.251 66.4716L226.632 66.3466C226.704 66.6989 226.878 66.9678 227.155 67.1534C227.431 67.3352 227.786 67.4261 228.217 67.4261C228.642 67.4261 228.982 67.3447 229.24 67.1818C229.501 67.0152 229.634 66.8011 229.638 66.5398C229.634 66.3201 229.541 66.1402 229.359 66C229.178 65.8561 228.897 65.7462 228.518 65.6705L227.007 65.3693C226.155 65.1989 225.52 64.9034 225.104 64.483C224.691 64.0625 224.484 63.5265 224.484 62.875C224.484 62.3144 224.636 61.8314 224.939 61.4261C225.246 61.0208 225.676 60.7083 226.229 60.4886C226.786 60.2689 227.437 60.1591 228.183 60.1591C229.286 60.1591 230.153 60.392 230.786 60.858C231.422 61.3239 231.793 61.9583 231.899 62.7614ZM238.264 60.2727V62.0909H233.009V60.2727H238.264ZM234.202 58.1818H236.622V66.3182C236.622 66.5417 236.656 66.7159 236.724 66.8409C236.793 66.9621 236.887 67.0473 237.009 67.0966C237.134 67.1458 237.277 67.1705 237.44 67.1705C237.554 67.1705 237.668 67.161 237.781 67.142C237.895 67.1193 237.982 67.1023 238.043 67.0909L238.423 68.892C238.302 68.9299 238.132 68.9735 237.912 69.0227C237.692 69.0758 237.425 69.108 237.111 69.1193C236.527 69.142 236.016 69.0644 235.577 68.8864C235.141 68.7083 234.802 68.4318 234.56 68.0568C234.317 67.6818 234.198 67.2083 234.202 66.6364V58.1818ZM239.841 69V60.2727H242.261V69H239.841ZM241.057 59.1477C240.697 59.1477 240.388 59.0284 240.131 58.7898C239.877 58.5473 239.75 58.2576 239.75 57.9205C239.75 57.5871 239.877 57.3011 240.131 57.0625C240.388 56.8201 240.697 56.6989 241.057 56.6989C241.417 56.6989 241.723 56.8201 241.977 57.0625C242.235 57.3011 242.364 57.5871 242.364 57.9205C242.364 58.2576 242.235 58.5473 241.977 58.7898C241.723 59.0284 241.417 59.1477 241.057 59.1477ZM246.621 63.9545V69H244.2V60.2727H246.507V61.8125H246.609C246.803 61.3049 247.126 60.9034 247.581 60.608C248.036 60.3087 248.587 60.1591 249.234 60.1591C249.84 60.1591 250.369 60.2917 250.82 60.5568C251.27 60.822 251.621 61.2008 251.871 61.6932C252.121 62.1818 252.246 62.7652 252.246 63.4432V69H249.825V63.875C249.829 63.3409 249.693 62.9242 249.416 62.625C249.14 62.322 248.759 62.1705 248.274 62.1705C247.948 62.1705 247.661 62.2405 247.411 62.3807C247.164 62.5208 246.971 62.7254 246.831 62.9943C246.695 63.2595 246.625 63.5795 246.621 63.9545ZM258.085 72.4545C257.301 72.4545 256.629 72.3466 256.068 72.1307C255.511 71.9186 255.068 71.6288 254.739 71.2614C254.409 70.8939 254.195 70.4811 254.097 70.0227L256.335 69.7216C256.403 69.8958 256.511 70.0587 256.659 70.2102C256.807 70.3617 257.002 70.483 257.244 70.5739C257.491 70.6686 257.79 70.7159 258.142 70.7159C258.669 70.7159 259.102 70.5871 259.443 70.3295C259.788 70.0758 259.96 69.6496 259.96 69.0511V67.4545H259.858C259.752 67.697 259.593 67.9261 259.381 68.142C259.169 68.358 258.896 68.5341 258.562 68.6705C258.229 68.8068 257.831 68.875 257.369 68.875C256.714 68.875 256.117 68.7235 255.58 68.4205C255.045 68.1136 254.619 67.6458 254.301 67.017C253.987 66.3845 253.83 65.5852 253.83 64.6193C253.83 63.6307 253.991 62.8049 254.312 62.142C254.634 61.4792 255.063 60.983 255.597 60.6534C256.134 60.3239 256.723 60.1591 257.364 60.1591C257.852 60.1591 258.261 60.2424 258.591 60.4091C258.92 60.572 259.186 60.7765 259.386 61.0227C259.591 61.2652 259.748 61.5038 259.858 61.7386H259.949V60.2727H262.352V69.0852C262.352 69.8277 262.17 70.4489 261.807 70.9489C261.443 71.4489 260.939 71.8239 260.295 72.0739C259.655 72.3277 258.919 72.4545 258.085 72.4545ZM258.136 67.0568C258.527 67.0568 258.856 66.9602 259.125 66.767C259.398 66.5701 259.606 66.2898 259.75 65.9261C259.898 65.5587 259.972 65.1193 259.972 64.608C259.972 64.0966 259.9 63.6534 259.756 63.2784C259.612 62.8996 259.403 62.6061 259.131 62.3977C258.858 62.1894 258.527 62.0852 258.136 62.0852C257.739 62.0852 257.403 62.1932 257.131 62.4091C256.858 62.6212 256.652 62.9167 256.511 63.2955C256.371 63.6742 256.301 64.1117 256.301 64.608C256.301 65.1117 256.371 65.5473 256.511 65.9148C256.655 66.2784 256.862 66.5606 257.131 66.7614C257.403 66.9583 257.739 67.0568 258.136 67.0568Z" fill="#426A80"/>
<path d="M296.425 57.3636V69H293.964V57.3636H296.425ZM303.045 60.2727V62.0909H297.79V60.2727H303.045ZM298.983 58.1818H301.403V66.3182C301.403 66.5417 301.438 66.7159 301.506 66.8409C301.574 66.9621 301.669 67.0473 301.79 67.0966C301.915 67.1458 302.059 67.1705 302.222 67.1705C302.335 67.1705 302.449 67.161 302.562 67.142C302.676 67.1193 302.763 67.1023 302.824 67.0909L303.205 68.892C303.083 68.9299 302.913 68.9735 302.693 69.0227C302.473 69.0758 302.206 69.108 301.892 69.1193C301.309 69.142 300.797 69.0644 300.358 68.8864C299.922 68.7083 299.583 68.4318 299.341 68.0568C299.098 67.6818 298.979 67.2083 298.983 66.6364V58.1818ZM308.506 69.1705C307.608 69.1705 306.835 68.9886 306.188 68.625C305.544 68.2576 305.047 67.7386 304.699 67.0682C304.35 66.3939 304.176 65.5966 304.176 64.6761C304.176 63.7784 304.35 62.9905 304.699 62.3125C305.047 61.6345 305.538 61.1061 306.17 60.7273C306.807 60.3485 307.553 60.1591 308.409 60.1591C308.985 60.1591 309.521 60.2519 310.017 60.4375C310.517 60.6193 310.953 60.8939 311.324 61.2614C311.699 61.6288 311.991 62.0909 312.199 62.6477C312.407 63.2008 312.511 63.8485 312.511 64.5909V65.2557H305.142V63.7557H310.233C310.233 63.4072 310.157 63.0985 310.006 62.8295C309.854 62.5606 309.644 62.3504 309.375 62.1989C309.11 62.0436 308.801 61.9659 308.449 61.9659C308.081 61.9659 307.756 62.0511 307.472 62.2216C307.191 62.3883 306.972 62.6136 306.812 62.8977C306.653 63.178 306.572 63.4905 306.568 63.8352V65.2614C306.568 65.6932 306.648 66.0663 306.807 66.3807C306.97 66.6951 307.199 66.9375 307.494 67.108C307.79 67.2784 308.14 67.3636 308.545 67.3636C308.814 67.3636 309.061 67.3258 309.284 67.25C309.508 67.1742 309.699 67.0606 309.858 66.9091C310.017 66.7576 310.138 66.572 310.222 66.3523L312.46 66.5C312.347 67.0379 312.114 67.5076 311.761 67.9091C311.413 68.3068 310.962 68.6174 310.409 68.8409C309.86 69.0606 309.225 69.1705 308.506 69.1705ZM314.091 69V60.2727H316.438V61.7955H316.528C316.688 61.2538 316.955 60.8447 317.33 60.5682C317.705 60.2879 318.136 60.1477 318.625 60.1477C318.746 60.1477 318.877 60.1553 319.017 60.1705C319.157 60.1856 319.28 60.2064 319.386 60.233V62.3807C319.273 62.3466 319.116 62.3163 318.915 62.2898C318.714 62.2633 318.53 62.25 318.364 62.25C318.008 62.25 317.689 62.3277 317.409 62.483C317.133 62.6345 316.913 62.8466 316.75 63.1193C316.591 63.392 316.511 63.7064 316.511 64.0625V69H314.091ZM322.876 69.1648C322.32 69.1648 321.823 69.0682 321.388 68.875C320.952 68.678 320.607 68.3883 320.354 68.0057C320.104 67.6193 319.979 67.1383 319.979 66.5625C319.979 66.0777 320.068 65.6705 320.246 65.3409C320.424 65.0114 320.666 64.7462 320.973 64.5455C321.28 64.3447 321.628 64.1932 322.018 64.0909C322.412 63.9886 322.825 63.9167 323.257 63.875C323.765 63.822 324.174 63.7727 324.484 63.7273C324.795 63.678 325.02 63.6061 325.161 63.5114C325.301 63.4167 325.371 63.2765 325.371 63.0909V63.0568C325.371 62.697 325.257 62.4186 325.03 62.2216C324.806 62.0246 324.488 61.9261 324.075 61.9261C323.64 61.9261 323.293 62.0227 323.036 62.2159C322.778 62.4053 322.607 62.6439 322.524 62.9318L320.286 62.75C320.399 62.2197 320.623 61.7614 320.956 61.375C321.289 60.9848 321.719 60.6856 322.246 60.4773C322.776 60.2652 323.39 60.1591 324.087 60.1591C324.571 60.1591 325.036 60.2159 325.479 60.3295C325.926 60.4432 326.321 60.6193 326.666 60.858C327.015 61.0966 327.289 61.4034 327.49 61.7784C327.691 62.1496 327.791 62.5947 327.791 63.1136V69H325.496V67.7898H325.428C325.287 68.0625 325.1 68.303 324.865 68.5114C324.63 68.7159 324.348 68.8769 324.018 68.9943C323.689 69.108 323.308 69.1648 322.876 69.1648ZM323.57 67.4943C323.926 67.4943 324.24 67.4242 324.513 67.2841C324.786 67.1402 325 66.947 325.155 66.7045C325.31 66.4621 325.388 66.1875 325.388 65.8807V64.9545C325.312 65.0038 325.208 65.0492 325.075 65.0909C324.946 65.1288 324.801 65.1648 324.638 65.1989C324.475 65.2292 324.312 65.2576 324.149 65.2841C323.986 65.3068 323.839 65.3277 323.706 65.3466C323.422 65.3883 323.174 65.4545 322.962 65.5455C322.75 65.6364 322.585 65.7595 322.467 65.9148C322.35 66.0663 322.291 66.2557 322.291 66.483C322.291 66.8125 322.411 67.0644 322.649 67.2386C322.892 67.4091 323.198 67.4943 323.57 67.4943ZM334.311 60.2727V62.0909H329.055V60.2727H334.311ZM330.249 58.1818H332.669V66.3182C332.669 66.5417 332.703 66.7159 332.771 66.8409C332.839 66.9621 332.934 67.0473 333.055 67.0966C333.18 67.1458 333.324 67.1705 333.487 67.1705C333.601 67.1705 333.714 67.161 333.828 67.142C333.942 67.1193 334.029 67.1023 334.089 67.0909L334.47 68.892C334.349 68.9299 334.179 68.9735 333.959 69.0227C333.739 69.0758 333.472 69.108 333.158 69.1193C332.574 69.142 332.063 69.0644 331.624 68.8864C331.188 68.7083 330.849 68.4318 330.607 68.0568C330.364 67.6818 330.245 67.2083 330.249 66.6364V58.1818ZM335.888 69V60.2727H338.308V69H335.888ZM337.104 59.1477C336.744 59.1477 336.435 59.0284 336.178 58.7898C335.924 58.5473 335.797 58.2576 335.797 57.9205C335.797 57.5871 335.924 57.3011 336.178 57.0625C336.435 56.8201 336.744 56.6989 337.104 56.6989C337.464 56.6989 337.77 56.8201 338.024 57.0625C338.282 57.3011 338.411 57.5871 338.411 57.9205C338.411 58.2576 338.282 58.5473 338.024 58.7898C337.77 59.0284 337.464 59.1477 337.104 59.1477ZM344.19 69.1705C343.308 69.1705 342.545 68.983 341.901 68.608C341.26 68.2292 340.766 67.7027 340.418 67.0284C340.069 66.3504 339.895 65.5644 339.895 64.6705C339.895 63.7689 340.069 62.9811 340.418 62.3068C340.766 61.6288 341.26 61.1023 341.901 60.7273C342.545 60.3485 343.308 60.1591 344.19 60.1591C345.073 60.1591 345.834 60.3485 346.474 60.7273C347.118 61.1023 347.615 61.6288 347.963 62.3068C348.312 62.9811 348.486 63.7689 348.486 64.6705C348.486 65.5644 348.312 66.3504 347.963 67.0284C347.615 67.7027 347.118 68.2292 346.474 68.608C345.834 68.983 345.073 69.1705 344.19 69.1705ZM344.202 67.2955C344.603 67.2955 344.938 67.1818 345.207 66.9545C345.476 66.7235 345.679 66.4091 345.815 66.0114C345.955 65.6136 346.026 65.161 346.026 64.6534C346.026 64.1458 345.955 63.6932 345.815 63.2955C345.679 62.8977 345.476 62.5833 345.207 62.3523C344.938 62.1212 344.603 62.0057 344.202 62.0057C343.796 62.0057 343.455 62.1212 343.179 62.3523C342.906 62.5833 342.7 62.8977 342.56 63.2955C342.423 63.6932 342.355 64.1458 342.355 64.6534C342.355 65.161 342.423 65.6136 342.56 66.0114C342.7 66.4091 342.906 66.7235 343.179 66.9545C343.455 67.1818 343.796 67.2955 344.202 67.2955ZM352.48 63.9545V69H350.06V60.2727H352.366V61.8125H352.469C352.662 61.3049 352.986 60.9034 353.44 60.608C353.895 60.3087 354.446 60.1591 355.094 60.1591C355.7 60.1591 356.228 60.2917 356.679 60.5568C357.13 60.822 357.48 61.2008 357.73 61.6932C357.98 62.1818 358.105 62.7652 358.105 63.4432V69H355.685V63.875C355.688 63.3409 355.552 62.9242 355.276 62.625C354.999 62.322 354.618 62.1705 354.134 62.1705C353.808 62.1705 353.52 62.2405 353.27 62.3807C353.024 62.5208 352.83 62.7254 352.69 62.9943C352.554 63.2595 352.484 63.5795 352.48 63.9545Z" fill="#426A80"/>
<path d="M386.355 60.7102C386.31 60.2519 386.115 59.8958 385.77 59.642C385.425 59.3883 384.957 59.2614 384.366 59.2614C383.965 59.2614 383.626 59.3182 383.349 59.4318C383.073 59.5417 382.861 59.6951 382.713 59.892C382.569 60.089 382.497 60.3125 382.497 60.5625C382.49 60.7708 382.533 60.9527 382.628 61.108C382.726 61.2633 382.861 61.3977 383.031 61.5114C383.202 61.6212 383.399 61.7178 383.622 61.8011C383.846 61.8807 384.084 61.9489 384.338 62.0057L385.384 62.2557C385.891 62.3693 386.357 62.5208 386.781 62.7102C387.205 62.8996 387.573 63.1326 387.884 63.4091C388.194 63.6856 388.435 64.0114 388.605 64.3864C388.779 64.7614 388.868 65.1913 388.872 65.6761C388.868 66.3883 388.687 67.0057 388.327 67.5284C387.971 68.0473 387.455 68.4508 386.781 68.7386C386.111 69.0227 385.302 69.1648 384.355 69.1648C383.416 69.1648 382.598 69.0208 381.901 68.733C381.207 68.4451 380.666 68.0189 380.276 67.4545C379.889 66.8864 379.687 66.1837 379.668 65.3466H382.048C382.075 65.7367 382.187 66.0625 382.384 66.3239C382.584 66.5814 382.851 66.7765 383.185 66.9091C383.522 67.0379 383.902 67.1023 384.327 67.1023C384.743 67.1023 385.105 67.0417 385.412 66.9205C385.723 66.7992 385.963 66.6307 386.134 66.4148C386.304 66.1989 386.389 65.9508 386.389 65.6705C386.389 65.4091 386.312 65.1894 386.156 65.0114C386.005 64.8333 385.781 64.6818 385.486 64.5568C385.194 64.4318 384.836 64.3182 384.412 64.2159L383.145 63.8977C382.164 63.6591 381.389 63.286 380.821 62.7784C380.253 62.2708 379.971 61.5871 379.974 60.7273C379.971 60.0227 380.158 59.4072 380.537 58.8807C380.92 58.3542 381.444 57.9432 382.111 57.6477C382.777 57.3523 383.535 57.2045 384.384 57.2045C385.247 57.2045 386.001 57.3523 386.645 57.6477C387.293 57.9432 387.796 58.3542 388.156 58.8807C388.516 59.4072 388.702 60.017 388.713 60.7102H386.355ZM394.425 69.1705C393.542 69.1705 392.779 68.983 392.135 68.608C391.495 68.2292 391 67.7027 390.652 67.0284C390.304 66.3504 390.129 65.5644 390.129 64.6705C390.129 63.7689 390.304 62.9811 390.652 62.3068C391 61.6288 391.495 61.1023 392.135 60.7273C392.779 60.3485 393.542 60.1591 394.425 60.1591C395.307 60.1591 396.069 60.3485 396.709 60.7273C397.353 61.1023 397.849 61.6288 398.197 62.3068C398.546 62.9811 398.72 63.7689 398.72 64.6705C398.72 65.5644 398.546 66.3504 398.197 67.0284C397.849 67.7027 397.353 68.2292 396.709 68.608C396.069 68.983 395.307 69.1705 394.425 69.1705ZM394.436 67.2955C394.838 67.2955 395.173 67.1818 395.442 66.9545C395.711 66.7235 395.913 66.4091 396.05 66.0114C396.19 65.6136 396.26 65.161 396.26 64.6534C396.26 64.1458 396.19 63.6932 396.05 63.2955C395.913 62.8977 395.711 62.5833 395.442 62.3523C395.173 62.1212 394.838 62.0057 394.436 62.0057C394.031 62.0057 393.69 62.1212 393.413 62.3523C393.141 62.5833 392.934 62.8977 392.794 63.2955C392.658 63.6932 392.589 64.1458 392.589 64.6534C392.589 65.161 392.658 65.6136 392.794 66.0114C392.934 66.4091 393.141 66.7235 393.413 66.9545C393.69 67.1818 394.031 67.2955 394.436 67.2955ZM402.714 57.3636V69H400.294V57.3636H402.714ZM410.25 65.2841V60.2727H412.67V69H410.347V67.4148H410.256C410.059 67.9261 409.731 68.3371 409.273 68.6477C408.818 68.9583 408.263 69.1136 407.608 69.1136C407.025 69.1136 406.511 68.9811 406.068 68.7159C405.625 68.4508 405.278 68.0739 405.028 67.5852C404.782 67.0966 404.657 66.5114 404.653 65.8295V60.2727H407.074V65.3977C407.078 65.9129 407.216 66.3201 407.489 66.6193C407.761 66.9186 408.127 67.0682 408.585 67.0682C408.877 67.0682 409.15 67.0019 409.403 66.8693C409.657 66.733 409.862 66.5322 410.017 66.267C410.176 66.0019 410.254 65.6742 410.25 65.2841ZM419.249 60.2727V62.0909H413.993V60.2727H419.249ZM415.186 58.1818H417.607V66.3182C417.607 66.5417 417.641 66.7159 417.709 66.8409C417.777 66.9621 417.872 67.0473 417.993 67.0966C418.118 67.1458 418.262 67.1705 418.425 67.1705C418.538 67.1705 418.652 67.161 418.766 67.142C418.879 67.1193 418.966 67.1023 419.027 67.0909L419.408 68.892C419.286 68.9299 419.116 68.9735 418.896 69.0227C418.677 69.0758 418.41 69.108 418.095 69.1193C417.512 69.142 417 69.0644 416.561 68.8864C416.125 68.7083 415.786 68.4318 415.544 68.0568C415.302 67.6818 415.182 67.2083 415.186 66.6364V58.1818ZM420.825 69V60.2727H423.246V69H420.825ZM422.041 59.1477C421.681 59.1477 421.373 59.0284 421.115 58.7898C420.861 58.5473 420.734 58.2576 420.734 57.9205C420.734 57.5871 420.861 57.3011 421.115 57.0625C421.373 56.8201 421.681 56.6989 422.041 56.6989C422.401 56.6989 422.708 56.8201 422.962 57.0625C423.219 57.3011 423.348 57.5871 423.348 57.9205C423.348 58.2576 423.219 58.5473 422.962 58.7898C422.708 59.0284 422.401 59.1477 422.041 59.1477ZM429.128 69.1705C428.245 69.1705 427.482 68.983 426.838 68.608C426.198 68.2292 425.704 67.7027 425.355 67.0284C425.007 66.3504 424.832 65.5644 424.832 64.6705C424.832 63.7689 425.007 62.9811 425.355 62.3068C425.704 61.6288 426.198 61.1023 426.838 60.7273C427.482 60.3485 428.245 60.1591 429.128 60.1591C430.01 60.1591 430.772 60.3485 431.412 60.7273C432.056 61.1023 432.552 61.6288 432.901 62.3068C433.249 62.9811 433.423 63.7689 433.423 64.6705C433.423 65.5644 433.249 66.3504 432.901 67.0284C432.552 67.7027 432.056 68.2292 431.412 68.608C430.772 68.983 430.01 69.1705 429.128 69.1705ZM429.139 67.2955C429.541 67.2955 429.876 67.1818 430.145 66.9545C430.414 66.7235 430.616 66.4091 430.753 66.0114C430.893 65.6136 430.963 65.161 430.963 64.6534C430.963 64.1458 430.893 63.6932 430.753 63.2955C430.616 62.8977 430.414 62.5833 430.145 62.3523C429.876 62.1212 429.541 62.0057 429.139 62.0057C428.734 62.0057 428.393 62.1212 428.116 62.3523C427.844 62.5833 427.637 62.8977 427.497 63.2955C427.361 63.6932 427.293 64.1458 427.293 64.6534C427.293 65.161 427.361 65.6136 427.497 66.0114C427.637 66.4091 427.844 66.7235 428.116 66.9545C428.393 67.1818 428.734 67.2955 429.139 67.2955ZM437.418 63.9545V69H434.997V60.2727H437.304V61.8125H437.406C437.599 61.3049 437.923 60.9034 438.378 60.608C438.832 60.3087 439.384 60.1591 440.031 60.1591C440.637 60.1591 441.166 60.2917 441.616 60.5568C442.067 60.822 442.418 61.2008 442.668 61.6932C442.918 62.1818 443.043 62.7652 443.043 63.4432V69H440.622V63.875C440.626 63.3409 440.49 62.9242 440.213 62.625C439.937 62.322 439.556 62.1705 439.071 62.1705C438.745 62.1705 438.457 62.2405 438.207 62.3807C437.961 62.5208 437.768 62.7254 437.628 62.9943C437.491 63.2595 437.421 63.5795 437.418 63.9545ZM452.212 62.7614L449.996 62.8977C449.958 62.7083 449.876 62.5379 449.751 62.3864C449.626 62.2311 449.462 62.108 449.257 62.017C449.056 61.9223 448.816 61.875 448.536 61.875C448.161 61.875 447.844 61.9545 447.587 62.1136C447.329 62.2689 447.2 62.4773 447.2 62.7386C447.2 62.947 447.284 63.1231 447.45 63.267C447.617 63.411 447.903 63.5265 448.308 63.6136L449.888 63.9318C450.736 64.1061 451.369 64.3864 451.786 64.7727C452.202 65.1591 452.411 65.6667 452.411 66.2955C452.411 66.8674 452.242 67.3693 451.905 67.8011C451.571 68.233 451.113 68.5701 450.53 68.8125C449.95 69.0511 449.282 69.1705 448.524 69.1705C447.369 69.1705 446.448 68.9299 445.763 68.4489C445.081 67.964 444.681 67.3049 444.564 66.4716L446.945 66.3466C447.017 66.6989 447.191 66.9678 447.467 67.1534C447.744 67.3352 448.098 67.4261 448.53 67.4261C448.954 67.4261 449.295 67.3447 449.553 67.1818C449.814 67.0152 449.946 66.8011 449.95 66.5398C449.946 66.3201 449.854 66.1402 449.672 66C449.49 65.8561 449.21 65.7462 448.831 65.6705L447.32 65.3693C446.467 65.1989 445.833 64.9034 445.416 64.483C445.003 64.0625 444.797 63.5265 444.797 62.875C444.797 62.3144 444.948 61.8314 445.251 61.4261C445.558 61.0208 445.988 60.7083 446.541 60.4886C447.098 60.2689 447.75 60.1591 448.496 60.1591C449.598 60.1591 450.465 60.392 451.098 60.858C451.734 61.3239 452.106 61.9583 452.212 62.7614Z" fill="#426A80"/>
</svg>
