<svg width="377" height="83" viewBox="0 0 377 83" fill="none" xmlns="http://www.w3.org/2000/svg">
<path d="M21.6001 0.350098L45.7401 23.3201L21.6001 47.6301H68.8701L92.4301 23.9901L68.8701 0.350098H21.6001Z" fill="#F1677D"/>
<path d="M66.3801 33.5599H61.5501V20.34L61.6001 18.1699L61.6801 15.7899C60.8801 16.5899 60.3201 17.1199 60.0101 17.3699L57.3901 19.4799L55.0601 16.5699L62.4201 10.71H66.3901V33.5599H66.3801Z" fill="white"/>
<path d="M110.99 0.350098L135.13 23.3201L110.99 47.6301H158.26L181.81 23.9901L158.26 0.350098H110.99Z" fill="#F1677D"/>
<path d="M159.79 33.5599H143.82V30.1999L149.55 24.3999C151.25 22.6599 152.36 21.4499 152.88 20.7799C153.4 20.1099 153.78 19.4899 154 18.9099C154.23 18.3399 154.34 17.7399 154.34 17.1299C154.34 16.2099 154.09 15.5299 153.58 15.0799C153.07 14.6299 152.4 14.4099 151.56 14.4099C150.67 14.4099 149.81 14.6099 148.98 15.0199C148.15 15.4299 147.28 15.9999 146.37 16.7499L143.75 13.6399C144.87 12.6799 145.81 12.0099 146.55 11.6099C147.29 11.2099 148.1 10.9099 148.97 10.6999C149.85 10.4899 150.82 10.3799 151.91 10.3799C153.34 10.3799 154.6 10.6399 155.69 11.1599C156.78 11.6799 157.63 12.4099 158.24 13.3499C158.84 14.2899 159.15 15.3599 159.15 16.5699C159.15 17.6199 158.96 18.6099 158.6 19.5299C158.23 20.4499 157.66 21.3999 156.88 22.3699C156.1 23.3399 154.74 24.7199 152.78 26.5099L149.84 29.2799V29.4999H159.79V33.5599V33.5599Z" fill="white"/>
<path d="M201.21 0.350098L225.36 23.3201L201.21 47.6301H248.48L272.04 23.9901L248.48 0.350098H201.21Z" fill="#F1677D"/>
<path d="M249.13 15.8299C249.13 17.2599 248.7 18.4699 247.83 19.4699C246.96 20.4699 245.75 21.1599 244.19 21.5299V21.6199C246.03 21.8499 247.43 22.4099 248.38 23.2999C249.33 24.1899 249.8 25.3899 249.8 26.8999C249.8 29.0999 249 30.8099 247.41 32.0299C245.82 33.2499 243.54 33.8699 240.58 33.8699C238.1 33.8699 235.9 33.4599 233.99 32.6399V28.5299C234.88 28.9799 235.85 29.3399 236.91 29.6199C237.97 29.8999 239.02 30.0399 240.07 30.0399C241.66 30.0399 242.84 29.7699 243.6 29.2299C244.36 28.6899 244.74 27.8199 244.74 26.6199C244.74 25.5499 244.3 24.7899 243.43 24.3399C242.55 23.8899 241.16 23.6699 239.24 23.6699H237.51V19.9699H239.27C241.04 19.9699 242.34 19.7399 243.15 19.2699C243.97 18.8099 244.38 18.0099 244.38 16.8899C244.38 15.1599 243.3 14.2999 241.13 14.2999C240.38 14.2999 239.62 14.4199 238.84 14.6799C238.06 14.9399 237.2 15.3599 236.25 15.9799L234.02 12.6499C236.1 11.1499 238.59 10.3999 241.47 10.3999C243.83 10.3999 245.7 10.8799 247.07 11.8399C248.44 12.7899 249.13 14.1199 249.13 15.8299Z" fill="white"/>
<path d="M290.96 0L315.11 22.96L290.96 47.27H338.24L361.79 23.64L338.24 0H290.96Z" fill="#F1677D"/>
<path d="M340.29 28.4699H337.54V33.1999H332.82V28.4699H323.07V25.1099L333.09 10.3599H337.54V24.7199H340.29V28.4699V28.4699ZM332.82 24.7199V20.8399C332.82 20.1899 332.85 19.2599 332.9 18.0299C332.95 16.7999 332.99 16.0899 333.02 15.8899H332.9C332.51 16.7399 332.05 17.5799 331.51 18.3899L327.32 24.7199H332.82V24.7199Z" fill="white"/>
<path d="M363.765 83H13.2428C5.93863 83 0 74.6296 0 64.3298V41.6703C0 31.3805 5.93863 23 13.2428 23H19.9516V25.2107H13.2428C6.90723 25.2107 1.74665 32.5964 1.74665 41.6703V64.3298C1.74665 73.4037 6.8993 80.7894 13.2428 80.7894H363.757C370.093 80.7894 375.253 73.4037 375.253 64.3298V34.2845C375.253 29.2803 372.427 25.2107 368.957 25.2107V23C373.388 23 377 28.0645 377 34.2845V64.3298C377 74.6195 371.061 83 363.765 83Z" fill="#426A80"/>
<path d="M20.0626 69L17.1492 58.8182H19.5008L21.1862 65.8928H21.2707L23.1301 58.8182H25.1436L26.998 65.9077H27.0874L28.7728 58.8182H31.1244L28.211 69H26.113L24.1741 62.343H24.0945L22.1606 69H20.0626ZM32.2368 69V61.3636H34.3547V69H32.2368ZM33.3007 60.3793C32.9858 60.3793 32.7157 60.2749 32.4903 60.0661C32.2683 59.8539 32.1572 59.6004 32.1572 59.3054C32.1572 59.0137 32.2683 58.7635 32.4903 58.5547C32.7157 58.3426 32.9858 58.2365 33.3007 58.2365C33.6156 58.2365 33.884 58.3426 34.1061 58.5547C34.3315 58.7635 34.4442 59.0137 34.4442 59.3054C34.4442 59.6004 34.3315 59.8539 34.1061 60.0661C33.884 60.2749 33.6156 60.3793 33.3007 60.3793ZM36.0512 69V61.3636H38.1045V62.696H38.184C38.3232 62.2221 38.5569 61.8641 38.885 61.6222C39.2132 61.3769 39.591 61.2543 40.0186 61.2543C40.1246 61.2543 40.239 61.2609 40.3616 61.2741C40.4842 61.2874 40.5919 61.3056 40.6847 61.3288V63.2081C40.5853 63.1783 40.4478 63.1518 40.2721 63.1286C40.0964 63.1054 39.9357 63.0938 39.7899 63.0938C39.4783 63.0938 39.1999 63.1617 38.9546 63.2976C38.7127 63.4302 38.5204 63.6158 38.3779 63.8544C38.2387 64.093 38.1691 64.3681 38.1691 64.6797V69H36.0512ZM44.9044 69.1491C44.1189 69.1491 43.4427 68.9901 42.876 68.6719C42.3125 68.3504 41.8783 67.8963 41.5734 67.3097C41.2685 66.7197 41.116 66.022 41.116 65.2166C41.116 64.4311 41.2685 63.7417 41.5734 63.1484C41.8783 62.5552 42.3076 62.0928 42.8611 61.7614C43.4179 61.4299 44.0708 61.2642 44.8199 61.2642C45.3237 61.2642 45.7926 61.3454 46.2268 61.5078C46.6643 61.6669 47.0455 61.9072 47.3703 62.2287C47.6984 62.5502 47.9536 62.9545 48.1359 63.4418C48.3182 63.9257 48.4094 64.4924 48.4094 65.142V65.7237H41.9612V64.4112H46.4157C46.4157 64.1063 46.3495 63.8362 46.2169 63.6009C46.0843 63.3655 45.9004 63.1816 45.665 63.049C45.433 62.9131 45.1629 62.8452 44.8547 62.8452C44.5332 62.8452 44.2481 62.9197 43.9996 63.0689C43.7543 63.2147 43.5621 63.4119 43.4229 63.6605C43.2836 63.9058 43.2124 64.1792 43.2091 64.4808V65.7287C43.2091 66.1065 43.2787 66.433 43.4179 66.7081C43.5604 66.9832 43.7609 67.1953 44.0194 67.3445C44.278 67.4936 44.5845 67.5682 44.9392 67.5682C45.1745 67.5682 45.3899 67.535 45.5855 67.4688C45.781 67.4025 45.9484 67.303 46.0876 67.1705C46.2268 67.0379 46.3329 66.8755 46.4058 66.6832L48.3646 66.8125C48.2652 67.2831 48.0613 67.6941 47.7531 68.0455C47.4482 68.3935 47.0538 68.6652 46.5699 68.8608C46.0893 69.053 45.5341 69.1491 44.9044 69.1491ZM53.898 61.3636V62.9545H49.1849V61.3636H53.898ZM50.2638 69V60.8118C50.2638 60.2583 50.3715 59.7992 50.5869 59.4347C50.8057 59.0701 51.104 58.7966 51.4818 58.6143C51.8596 58.4321 52.2889 58.3409 52.7694 58.3409C53.0943 58.3409 53.3909 58.3658 53.6594 58.4155C53.9311 58.4652 54.1333 58.5099 54.2659 58.5497L53.8881 60.1406C53.8052 60.1141 53.7024 60.0893 53.5798 60.0661C53.4605 60.0429 53.3379 60.0312 53.2119 60.0312C52.9004 60.0312 52.6833 60.1042 52.5606 60.25C52.438 60.3925 52.3767 60.593 52.3767 60.8516V69H50.2638ZM55.1919 69V61.3636H57.2451V62.696H57.3247C57.4639 62.2221 57.6975 61.8641 58.0257 61.6222C58.3538 61.3769 58.7316 61.2543 59.1592 61.2543C59.2652 61.2543 59.3796 61.2609 59.5022 61.2741C59.6249 61.2874 59.7326 61.3056 59.8254 61.3288V63.2081C59.7259 63.1783 59.5884 63.1518 59.4127 63.1286C59.2371 63.1054 59.0763 63.0938 58.9305 63.0938C58.6189 63.0938 58.3405 63.1617 58.0953 63.2976C57.8533 63.4302 57.6611 63.6158 57.5186 63.8544C57.3794 64.093 57.3097 64.3681 57.3097 64.6797V69H55.1919ZM62.8792 69.1442C62.392 69.1442 61.9578 69.0597 61.5766 68.8906C61.1955 68.7183 60.8939 68.4647 60.6718 68.13C60.453 67.7919 60.3437 67.371 60.3437 66.8672C60.3437 66.4429 60.4215 66.0866 60.5773 65.7983C60.7331 65.5099 60.9452 65.2779 61.2137 65.1023C61.4822 64.9266 61.7871 64.794 62.1285 64.7045C62.4732 64.6151 62.8344 64.5521 63.2123 64.5156C63.6564 64.4692 64.0144 64.4261 64.2861 64.3864C64.5579 64.3433 64.7551 64.2803 64.8778 64.1974C65.0004 64.1146 65.0617 63.992 65.0617 63.8295V63.7997C65.0617 63.4848 64.9623 63.2412 64.7634 63.0689C64.5679 62.8965 64.2894 62.8104 63.9282 62.8104C63.547 62.8104 63.2438 62.8949 63.0184 63.0639C62.793 63.2296 62.6439 63.4384 62.5709 63.6903L60.6121 63.5312C60.7116 63.0672 60.9071 62.6662 61.1988 62.3281C61.4904 61.9867 61.8666 61.7249 62.3273 61.5426C62.7913 61.357 63.3283 61.2642 63.9381 61.2642C64.3624 61.2642 64.7684 61.3139 65.1562 61.4134C65.5473 61.5128 65.8936 61.6669 66.1952 61.8757C66.5001 62.0845 66.7404 62.353 66.9161 62.6811C67.0918 63.0059 67.1796 63.3954 67.1796 63.8494V69H65.1711V67.9411H65.1114C64.9888 68.1797 64.8247 68.3902 64.6192 68.5724C64.4137 68.7514 64.1668 68.8923 63.8785 68.995C63.5901 69.0945 63.257 69.1442 62.8792 69.1442ZM63.4857 67.6825C63.7973 67.6825 64.0724 67.6212 64.311 67.4986C64.5496 67.3726 64.7369 67.2036 64.8728 66.9915C65.0087 66.7794 65.0766 66.5391 65.0766 66.2706V65.4602C65.0103 65.5033 64.9192 65.5431 64.8032 65.5795C64.6905 65.6127 64.5629 65.6442 64.4204 65.674C64.2778 65.7005 64.1353 65.7254 63.9928 65.7486C63.8503 65.7685 63.721 65.7867 63.605 65.8033C63.3564 65.8397 63.1394 65.8977 62.9537 65.9773C62.7681 66.0568 62.624 66.1645 62.5212 66.3004C62.4185 66.433 62.3671 66.5987 62.3671 66.7976C62.3671 67.0859 62.4715 67.3063 62.6803 67.4588C62.8924 67.608 63.1609 67.6825 63.4857 67.6825ZM68.8227 69V61.3636H70.8412V62.7109H70.9307C71.0898 62.2635 71.3549 61.9105 71.7261 61.652C72.0973 61.3935 72.5415 61.2642 73.0585 61.2642C73.5822 61.2642 74.028 61.3951 74.3959 61.657C74.7638 61.9155 75.009 62.2668 75.1317 62.7109H75.2112C75.367 62.2734 75.6487 61.9238 76.0564 61.6619C76.4674 61.3968 76.9529 61.2642 77.5131 61.2642C78.2256 61.2642 78.804 61.4912 79.2481 61.9453C79.6956 62.3961 79.9193 63.0357 79.9193 63.8643V69H77.8064V64.282C77.8064 63.8577 77.6937 63.5395 77.4683 63.3274C77.2429 63.1153 76.9612 63.0092 76.6231 63.0092C76.2387 63.0092 75.9387 63.1319 75.7233 63.3771C75.5078 63.6191 75.4001 63.9389 75.4001 64.3366V69H73.3469V64.2372C73.3469 63.8627 73.2391 63.5644 73.0237 63.3423C72.8116 63.1203 72.5315 63.0092 72.1835 63.0092C71.9482 63.0092 71.7361 63.0689 71.5471 63.1882C71.3615 63.3042 71.214 63.4683 71.1047 63.6804C70.9953 63.8892 70.9406 64.1345 70.9406 64.4162V69H68.8227ZM85.0724 69.1491C84.2868 69.1491 83.6107 68.9901 83.0439 68.6719C82.4805 68.3504 82.0463 67.8963 81.7414 67.3097C81.4365 66.7197 81.284 66.022 81.284 65.2166C81.284 64.4311 81.4365 63.7417 81.7414 63.1484C82.0463 62.5552 82.4755 62.0928 83.029 61.7614C83.5858 61.4299 84.2388 61.2642 84.9878 61.2642C85.4916 61.2642 85.9606 61.3454 86.3948 61.5078C86.8323 61.6669 87.2135 61.9072 87.5383 62.2287C87.8664 62.5502 88.1216 62.9545 88.3039 63.4418C88.4862 63.9257 88.5773 64.4924 88.5773 65.142V65.7237H82.1292V64.4112H86.5837C86.5837 64.1063 86.5174 63.8362 86.3849 63.6009C86.2523 63.3655 86.0683 63.1816 85.833 63.049C85.601 62.9131 85.3309 62.8452 85.0226 62.8452C84.7011 62.8452 84.4161 62.9197 84.1675 63.0689C83.9223 63.2147 83.73 63.4119 83.5908 63.6605C83.4516 63.9058 83.3804 64.1792 83.377 64.4808V65.7287C83.377 66.1065 83.4466 66.433 83.5858 66.7081C83.7284 66.9832 83.9289 67.1953 84.1874 67.3445C84.4459 67.4936 84.7525 67.5682 85.1072 67.5682C85.3425 67.5682 85.5579 67.535 85.7535 67.4688C85.949 67.4025 86.1164 67.303 86.2556 67.1705C86.3948 67.0379 86.5009 66.8755 86.5738 66.6832L88.5326 66.8125C88.4332 67.2831 88.2293 67.6941 87.9211 68.0455C87.6162 68.3935 87.2217 68.6652 86.7378 68.8608C86.2573 69.053 85.7021 69.1491 85.0724 69.1491Z" fill="#426A80"/>
<path d="M107.965 69V58.8182H111.982C112.754 58.8182 113.412 58.9657 113.956 59.2607C114.499 59.5523 114.914 59.9583 115.199 60.4787C115.487 60.9957 115.631 61.5923 115.631 62.2685C115.631 62.9446 115.485 63.5412 115.194 64.0582C114.902 64.5753 114.479 64.978 113.926 65.2663C113.376 65.5547 112.71 65.6989 111.927 65.6989H109.367V63.9737H111.579C111.994 63.9737 112.335 63.9025 112.604 63.7599C112.875 63.6141 113.077 63.4136 113.21 63.1584C113.346 62.8999 113.414 62.6032 113.414 62.2685C113.414 61.9304 113.346 61.6354 113.21 61.3835C113.077 61.1283 112.875 60.9311 112.604 60.7919C112.332 60.6494 111.987 60.5781 111.569 60.5781H110.118V69H107.965ZM116.99 69V61.3636H119.043V62.696H119.123C119.262 62.2221 119.495 61.8641 119.824 61.6222C120.152 61.3769 120.529 61.2543 120.957 61.2543C121.063 61.2543 121.177 61.2609 121.3 61.2741C121.423 61.2874 121.53 61.3056 121.623 61.3288V63.2081C121.524 63.1783 121.386 63.1518 121.211 63.1286C121.035 63.1054 120.874 63.0938 120.728 63.0938C120.417 63.0938 120.138 63.1617 119.893 63.2976C119.651 63.4302 119.459 63.6158 119.316 63.8544C119.177 64.093 119.108 64.3681 119.108 64.6797V69H116.99ZM125.813 69.1491C125.041 69.1491 124.373 68.9851 123.809 68.657C123.249 68.3255 122.817 67.8648 122.512 67.2749C122.207 66.6816 122.055 65.9938 122.055 65.2116C122.055 64.4228 122.207 63.7334 122.512 63.1435C122.817 62.5502 123.249 62.0895 123.809 61.7614C124.373 61.4299 125.041 61.2642 125.813 61.2642C126.585 61.2642 127.251 61.4299 127.812 61.7614C128.375 62.0895 128.809 62.5502 129.114 63.1435C129.419 63.7334 129.572 64.4228 129.572 65.2116C129.572 65.9938 129.419 66.6816 129.114 67.2749C128.809 67.8648 128.375 68.3255 127.812 68.657C127.251 68.9851 126.585 69.1491 125.813 69.1491ZM125.823 67.5085C126.174 67.5085 126.468 67.4091 126.703 67.2102C126.938 67.008 127.116 66.733 127.235 66.3849C127.358 66.0369 127.419 65.6409 127.419 65.1967C127.419 64.7526 127.358 64.3565 127.235 64.0085C127.116 63.6605 126.938 63.3854 126.703 63.1832C126.468 62.9811 126.174 62.88 125.823 62.88C125.468 62.88 125.17 62.9811 124.928 63.1832C124.689 63.3854 124.509 63.6605 124.386 64.0085C124.267 64.3565 124.207 64.7526 124.207 65.1967C124.207 65.6409 124.267 66.0369 124.386 66.3849C124.509 66.733 124.689 67.008 124.928 67.2102C125.17 67.4091 125.468 67.5085 125.823 67.5085ZM135.01 61.3636V62.9545H130.412V61.3636H135.01ZM131.456 59.5341H133.574V66.6534C133.574 66.849 133.604 67.0014 133.663 67.1108C133.723 67.2169 133.806 67.2914 133.912 67.3345C134.021 67.3776 134.147 67.3991 134.29 67.3991C134.389 67.3991 134.488 67.3909 134.588 67.3743C134.687 67.3544 134.764 67.3395 134.817 67.3295L135.15 68.9055C135.044 68.9387 134.894 68.9768 134.702 69.0199C134.51 69.0663 134.276 69.0945 134.001 69.1044C133.491 69.1243 133.043 69.0563 132.659 68.9006C132.278 68.7448 131.981 68.5028 131.769 68.1747C131.557 67.8466 131.452 67.4323 131.456 66.9318V59.5341ZM139.758 69.1491C138.986 69.1491 138.318 68.9851 137.755 68.657C137.195 68.3255 136.762 67.8648 136.457 67.2749C136.152 66.6816 136 65.9938 136 65.2116C136 64.4228 136.152 63.7334 136.457 63.1435C136.762 62.5502 137.195 62.0895 137.755 61.7614C138.318 61.4299 138.986 61.2642 139.758 61.2642C140.531 61.2642 141.197 61.4299 141.757 61.7614C142.32 62.0895 142.755 62.5502 143.059 63.1435C143.364 63.7334 143.517 64.4228 143.517 65.2116C143.517 65.9938 143.364 66.6816 143.059 67.2749C142.755 67.8648 142.32 68.3255 141.757 68.657C141.197 68.9851 140.531 69.1491 139.758 69.1491ZM139.768 67.5085C140.12 67.5085 140.413 67.4091 140.648 67.2102C140.884 67.008 141.061 66.733 141.18 66.3849C141.303 66.0369 141.364 65.6409 141.364 65.1967C141.364 64.7526 141.303 64.3565 141.18 64.0085C141.061 63.6605 140.884 63.3854 140.648 63.1832C140.413 62.9811 140.12 62.88 139.768 62.88C139.414 62.88 139.115 62.9811 138.873 63.1832C138.635 63.3854 138.454 63.6605 138.331 64.0085C138.212 64.3565 138.153 64.7526 138.153 65.1967C138.153 65.6409 138.212 66.0369 138.331 66.3849C138.454 66.733 138.635 67.008 138.873 67.2102C139.115 67.4091 139.414 67.5085 139.768 67.5085ZM148.956 61.3636V62.9545H144.357V61.3636H148.956ZM145.401 59.5341H147.519V66.6534C147.519 66.849 147.549 67.0014 147.608 67.1108C147.668 67.2169 147.751 67.2914 147.857 67.3345C147.966 67.3776 148.092 67.3991 148.235 67.3991C148.334 67.3991 148.434 67.3909 148.533 67.3743C148.633 67.3544 148.709 67.3395 148.762 67.3295L149.095 68.9055C148.989 68.9387 148.84 68.9768 148.648 69.0199C148.455 69.0663 148.222 69.0945 147.947 69.1044C147.436 69.1243 146.989 69.0563 146.604 68.9006C146.223 68.7448 145.926 68.5028 145.714 68.1747C145.502 67.8466 145.398 67.4323 145.401 66.9318V59.5341ZM151.643 71.8636C151.374 71.8636 151.123 71.8421 150.887 71.799C150.655 71.7592 150.463 71.7079 150.311 71.6449L150.788 70.0639C151.036 70.1402 151.26 70.1816 151.459 70.1882C151.661 70.1948 151.835 70.1484 151.981 70.049C152.13 69.9496 152.251 69.7805 152.344 69.5419L152.468 69.2188L149.729 61.3636H151.956L153.537 66.9716H153.617L155.213 61.3636H157.455L154.487 69.8253C154.344 70.2363 154.15 70.5942 153.905 70.8991C153.663 71.2074 153.356 71.4444 152.985 71.6101C152.614 71.7791 152.167 71.8636 151.643 71.8636ZM158.539 71.8636V61.3636H160.627V62.6463H160.721C160.814 62.4408 160.948 62.232 161.124 62.0199C161.303 61.8045 161.535 61.6255 161.82 61.483C162.108 61.3371 162.466 61.2642 162.894 61.2642C163.45 61.2642 163.964 61.41 164.435 61.7017C164.905 61.9901 165.282 62.4259 165.563 63.0092C165.845 63.5893 165.986 64.3168 165.986 65.1918C165.986 66.0436 165.848 66.7628 165.573 67.3494C165.302 67.9328 164.93 68.3752 164.46 68.6768C163.992 68.9751 163.469 69.1243 162.889 69.1243C162.478 69.1243 162.128 69.0563 161.84 68.9205C161.555 68.7846 161.321 68.6139 161.139 68.4084C160.956 68.1996 160.817 67.9891 160.721 67.777H160.656V71.8636H158.539ZM160.612 65.1818C160.612 65.6359 160.675 66.032 160.801 66.37C160.927 66.7081 161.109 66.9716 161.347 67.1605C161.586 67.3461 161.876 67.4389 162.218 67.4389C162.562 67.4389 162.854 67.3445 163.093 67.1555C163.331 66.9633 163.512 66.6982 163.634 66.3601C163.76 66.0187 163.823 65.6259 163.823 65.1818C163.823 64.741 163.762 64.3532 163.639 64.0185C163.517 63.6837 163.336 63.4219 163.097 63.233C162.859 63.044 162.566 62.9496 162.218 62.9496C161.873 62.9496 161.581 63.0407 161.343 63.223C161.107 63.4053 160.927 63.6638 160.801 63.9986C160.675 64.3333 160.612 64.7277 160.612 65.1818ZM170.878 69.1491C170.093 69.1491 169.416 68.9901 168.85 68.6719C168.286 68.3504 167.852 67.8963 167.547 67.3097C167.242 66.7197 167.09 66.022 167.09 65.2166C167.09 64.4311 167.242 63.7417 167.547 63.1484C167.852 62.5552 168.281 62.0928 168.835 61.7614C169.392 61.4299 170.044 61.2642 170.794 61.2642C171.297 61.2642 171.766 61.3454 172.2 61.5078C172.638 61.6669 173.019 61.9072 173.344 62.2287C173.672 62.5502 173.927 62.9545 174.11 63.4418C174.292 63.9257 174.383 64.4924 174.383 65.142V65.7237H167.935V64.4112H172.389C172.389 64.1063 172.323 63.8362 172.191 63.6009C172.058 63.3655 171.874 63.1816 171.639 63.049C171.407 62.9131 171.137 62.8452 170.828 62.8452C170.507 62.8452 170.222 62.9197 169.973 63.0689C169.728 63.2147 169.536 63.4119 169.396 63.6605C169.257 63.9058 169.186 64.1792 169.183 64.4808V65.7287C169.183 66.1065 169.252 66.433 169.392 66.7081C169.534 66.9832 169.735 67.1953 169.993 67.3445C170.252 67.4936 170.558 67.5682 170.913 67.5682C171.148 67.5682 171.364 67.535 171.559 67.4688C171.755 67.4025 171.922 67.303 172.061 67.1705C172.2 67.0379 172.307 66.8755 172.379 66.6832L174.338 66.8125C174.239 67.2831 174.035 67.6941 173.727 68.0455C173.422 68.3935 173.027 68.6652 172.544 68.8608C172.063 69.053 171.508 69.1491 170.878 69.1491Z" fill="#426A80"/>
<path d="M189.579 60.593V58.8182H197.941V60.593H194.824V69H192.696V60.593H189.579ZM201.651 69.1491C200.866 69.1491 200.19 68.9901 199.623 68.6719C199.06 68.3504 198.625 67.8963 198.32 67.3097C198.016 66.7197 197.863 66.022 197.863 65.2166C197.863 64.4311 198.016 63.7417 198.32 63.1484C198.625 62.5552 199.055 62.0928 199.608 61.7614C200.165 61.4299 200.818 61.2642 201.567 61.2642C202.071 61.2642 202.54 61.3454 202.974 61.5078C203.411 61.6669 203.793 61.9072 204.117 62.2287C204.445 62.5502 204.701 62.9545 204.883 63.4418C205.065 63.9257 205.156 64.4924 205.156 65.142V65.7237H198.708V64.4112H203.163C203.163 64.1063 203.097 63.8362 202.964 63.6009C202.831 63.3655 202.647 63.1816 202.412 63.049C202.18 62.9131 201.91 62.8452 201.602 62.8452C201.28 62.8452 200.995 62.9197 200.747 63.0689C200.501 63.2147 200.309 63.4119 200.17 63.6605C200.031 63.9058 199.959 64.1792 199.956 64.4808V65.7287C199.956 66.1065 200.026 66.433 200.165 66.7081C200.307 66.9832 200.508 67.1953 200.767 67.3445C201.025 67.4936 201.332 67.5682 201.686 67.5682C201.922 67.5682 202.137 67.535 202.333 67.4688C202.528 67.4025 202.695 67.303 202.835 67.1705C202.974 67.0379 203.08 66.8755 203.153 66.6832L205.112 66.8125C205.012 67.2831 204.808 67.6941 204.5 68.0455C204.195 68.3935 203.801 68.6652 203.317 68.8608C202.836 69.053 202.281 69.1491 201.651 69.1491ZM212.892 63.5412L210.953 63.6605C210.92 63.4948 210.849 63.3456 210.74 63.2131C210.63 63.0772 210.486 62.9695 210.307 62.8899C210.131 62.8071 209.921 62.7656 209.676 62.7656C209.347 62.7656 209.071 62.8352 208.845 62.9744C208.62 63.1103 208.507 63.2926 208.507 63.5213C208.507 63.7036 208.58 63.8577 208.726 63.9837C208.872 64.1096 209.122 64.2107 209.477 64.2869L210.859 64.5653C211.601 64.7178 212.155 64.9631 212.519 65.3011C212.884 65.6392 213.066 66.0833 213.066 66.6335C213.066 67.134 212.919 67.5732 212.624 67.951C212.332 68.3288 211.931 68.6238 211.421 68.8359C210.914 69.0447 210.329 69.1491 209.666 69.1491C208.655 69.1491 207.849 68.9387 207.249 68.5178C206.653 68.0935 206.303 67.5168 206.2 66.7876L208.284 66.6783C208.347 66.9865 208.499 67.2218 208.741 67.3842C208.983 67.5433 209.293 67.6229 209.671 67.6229C210.042 67.6229 210.34 67.5516 210.566 67.4091C210.794 67.2633 210.91 67.076 210.914 66.8473C210.91 66.6551 210.829 66.4976 210.67 66.375C210.511 66.2491 210.266 66.1529 209.934 66.0866L208.612 65.8232C207.866 65.674 207.311 65.4155 206.946 65.0476C206.585 64.6797 206.404 64.2107 206.404 63.6406C206.404 63.1501 206.537 62.7275 206.802 62.3729C207.07 62.0182 207.447 61.7448 207.931 61.5526C208.418 61.3603 208.988 61.2642 209.641 61.2642C210.605 61.2642 211.364 61.468 211.918 61.8757C212.475 62.2834 212.799 62.8385 212.892 63.5412ZM218.462 61.3636V62.9545H213.863V61.3636H218.462ZM214.907 59.5341H217.025V66.6534C217.025 66.849 217.055 67.0014 217.114 67.1108C217.174 67.2169 217.257 67.2914 217.363 67.3345C217.472 67.3776 217.598 67.3991 217.741 67.3991C217.84 67.3991 217.94 67.3909 218.039 67.3743C218.138 67.3544 218.215 67.3395 218.268 67.3295L218.601 68.9055C218.495 68.9387 218.346 68.9768 218.153 69.0199C217.961 69.0663 217.728 69.0945 217.452 69.1044C216.942 69.1243 216.495 69.0563 216.11 68.9006C215.729 68.7448 215.432 68.5028 215.22 68.1747C215.008 67.8466 214.904 67.4323 214.907 66.9318V59.5341ZM226.204 69.1491C225.501 69.1491 224.894 69.0232 224.384 68.7713C223.874 68.5194 223.481 68.178 223.206 67.7472C222.934 67.313 222.798 66.8291 222.798 66.2955C222.798 65.8977 222.878 65.5447 223.037 65.2365C223.196 64.9283 223.418 64.6449 223.703 64.3864C223.988 64.1245 224.319 63.8643 224.697 63.6058L226.671 62.3082C226.926 62.1458 227.113 61.9751 227.233 61.7962C227.352 61.6139 227.412 61.4167 227.412 61.2045C227.412 61.0024 227.331 60.8151 227.168 60.6428C227.006 60.4704 226.775 60.3859 226.477 60.3892C226.278 60.3892 226.106 60.4339 225.96 60.5234C225.814 60.6096 225.7 60.724 225.617 60.8665C225.537 61.0057 225.498 61.1615 225.498 61.3338C225.498 61.5459 225.557 61.7614 225.677 61.9801C225.796 62.1989 225.955 62.4309 226.154 62.6761C226.353 62.9181 226.57 63.1799 226.805 63.4616L231.633 69H229.425L225.398 64.5156C225.133 64.214 224.868 63.8991 224.603 63.571C224.341 63.2396 224.122 62.8883 223.947 62.517C223.771 62.1425 223.683 61.7365 223.683 61.299C223.683 60.8052 223.797 60.361 224.026 59.9666C224.258 59.5722 224.583 59.2607 225.001 59.032C225.418 58.8 225.905 58.6839 226.462 58.6839C227.006 58.6839 227.475 58.795 227.869 59.017C228.267 59.2358 228.572 59.5275 228.784 59.892C228.999 60.2533 229.107 60.651 229.107 61.0852C229.107 61.5658 228.988 62.0017 228.749 62.3928C228.514 62.7805 228.182 63.1286 227.755 63.4368L225.677 64.9332C225.395 65.1387 225.186 65.3492 225.05 65.5646C224.918 65.7768 224.851 65.9806 224.851 66.1761C224.851 66.4181 224.911 66.6352 225.03 66.8274C225.15 67.0196 225.319 67.1721 225.537 67.2848C225.756 67.3942 226.013 67.4489 226.308 67.4489C226.666 67.4489 227.019 67.3677 227.367 67.2053C227.718 67.0395 228.037 66.8059 228.322 66.5043C228.61 66.1993 228.84 65.8381 229.013 65.4205C229.185 65.0028 229.271 64.5405 229.271 64.0334H231.026C231.026 64.6565 230.958 65.2183 230.822 65.7188C230.686 66.2159 230.497 66.6501 230.256 67.0213C230.014 67.3892 229.737 67.6908 229.425 67.9261C229.326 67.9891 229.23 68.0488 229.137 68.1051C229.044 68.1615 228.948 68.2211 228.849 68.2841C228.471 68.589 228.048 68.8094 227.581 68.9453C227.117 69.0812 226.658 69.1491 226.204 69.1491ZM237.948 58.8182V69H235.795V58.8182H237.948ZM243.741 61.3636V62.9545H239.142V61.3636H243.741ZM240.186 59.5341H242.304V66.6534C242.304 66.849 242.334 67.0014 242.394 67.1108C242.453 67.2169 242.536 67.2914 242.642 67.3345C242.752 67.3776 242.878 67.3991 243.02 67.3991C243.119 67.3991 243.219 67.3909 243.318 67.3743C243.418 67.3544 243.494 67.3395 243.547 67.3295L243.88 68.9055C243.774 68.9387 243.625 68.9768 243.433 69.0199C243.24 69.0663 243.007 69.0945 242.732 69.1044C242.221 69.1243 241.774 69.0563 241.389 68.9006C241.008 68.7448 240.712 68.5028 240.499 68.1747C240.287 67.8466 240.183 67.4323 240.186 66.9318V59.5341ZM248.519 69.1491C247.733 69.1491 247.057 68.9901 246.49 68.6719C245.927 68.3504 245.493 67.8963 245.188 67.3097C244.883 66.7197 244.73 66.022 244.73 65.2166C244.73 64.4311 244.883 63.7417 245.188 63.1484C245.493 62.5552 245.922 62.0928 246.475 61.7614C247.032 61.4299 247.685 61.2642 248.434 61.2642C248.938 61.2642 249.407 61.3454 249.841 61.5078C250.279 61.6669 250.66 61.9072 250.985 62.2287C251.313 62.5502 251.568 62.9545 251.75 63.4418C251.932 63.9257 252.024 64.4924 252.024 65.142V65.7237H245.575V64.4112H250.03C250.03 64.1063 249.964 63.8362 249.831 63.6009C249.699 63.3655 249.515 63.1816 249.279 63.049C249.047 62.9131 248.777 62.8452 248.469 62.8452C248.147 62.8452 247.862 62.9197 247.614 63.0689C247.369 63.2147 247.176 63.4119 247.037 63.6605C246.898 63.9058 246.827 64.1792 246.823 64.4808V65.7287C246.823 66.1065 246.893 66.433 247.032 66.7081C247.175 66.9832 247.375 67.1953 247.634 67.3445C247.892 67.4936 248.199 67.5682 248.553 67.5682C248.789 67.5682 249.004 67.535 249.2 67.4688C249.395 67.4025 249.563 67.303 249.702 67.1705C249.841 67.0379 249.947 66.8755 250.02 66.6832L251.979 66.8125C251.879 67.2831 251.676 67.6941 251.367 68.0455C251.062 68.3935 250.668 68.6652 250.184 68.8608C249.704 69.053 249.148 69.1491 248.519 69.1491ZM253.406 69V61.3636H255.459V62.696H255.539C255.678 62.2221 255.911 61.8641 256.24 61.6222C256.568 61.3769 256.945 61.2543 257.373 61.2543C257.479 61.2543 257.593 61.2609 257.716 61.2741C257.839 61.2874 257.946 61.3056 258.039 61.3288V63.2081C257.94 63.1783 257.802 63.1518 257.627 63.1286C257.451 63.1054 257.29 63.0938 257.144 63.0938C256.833 63.0938 256.554 63.1617 256.309 63.2976C256.067 63.4302 255.875 63.6158 255.732 63.8544C255.593 64.093 255.524 64.3681 255.524 64.6797V69H253.406ZM261.093 69.1442C260.606 69.1442 260.172 69.0597 259.79 68.8906C259.409 68.7183 259.108 68.4647 258.886 68.13C258.667 67.7919 258.558 67.371 258.558 66.8672C258.558 66.4429 258.635 66.0866 258.791 65.7983C258.947 65.5099 259.159 65.2779 259.428 65.1023C259.696 64.9266 260.001 64.794 260.342 64.7045C260.687 64.6151 261.048 64.5521 261.426 64.5156C261.87 64.4692 262.228 64.4261 262.5 64.3864C262.772 64.3433 262.969 64.2803 263.092 64.1974C263.214 64.1146 263.276 63.992 263.276 63.8295V63.7997C263.276 63.4848 263.176 63.2412 262.977 63.0689C262.782 62.8965 262.503 62.8104 262.142 62.8104C261.761 62.8104 261.458 62.8949 261.232 63.0639C261.007 63.2296 260.858 63.4384 260.785 63.6903L258.826 63.5312C258.925 63.0672 259.121 62.6662 259.413 62.3281C259.704 61.9867 260.08 61.7249 260.541 61.5426C261.005 61.357 261.542 61.2642 262.152 61.2642C262.576 61.2642 262.982 61.3139 263.37 61.4134C263.761 61.5128 264.107 61.6669 264.409 61.8757C264.714 62.0845 264.954 62.353 265.13 62.6811C265.306 63.0059 265.393 63.3954 265.393 63.8494V69H263.385V67.9411H263.325C263.203 68.1797 263.039 68.3902 262.833 68.5724C262.628 68.7514 262.381 68.8923 262.092 68.995C261.804 69.0945 261.471 69.1442 261.093 69.1442ZM261.7 67.6825C262.011 67.6825 262.286 67.6212 262.525 67.4986C262.763 67.3726 262.951 67.2036 263.087 66.9915C263.223 66.7794 263.29 66.5391 263.29 66.2706V65.4602C263.224 65.5033 263.133 65.5431 263.017 65.5795C262.904 65.6127 262.777 65.6442 262.634 65.674C262.492 65.7005 262.349 65.7254 262.207 65.7486C262.064 65.7685 261.935 65.7867 261.819 65.8033C261.57 65.8397 261.353 65.8977 261.168 65.9773C260.982 66.0568 260.838 66.1645 260.735 66.3004C260.632 66.433 260.581 66.5987 260.581 66.7976C260.581 67.0859 260.685 67.3063 260.894 67.4588C261.106 67.608 261.375 67.6825 261.7 67.6825ZM271.098 61.3636V62.9545H266.5V61.3636H271.098ZM267.544 59.5341H269.662V66.6534C269.662 66.849 269.691 67.0014 269.751 67.1108C269.811 67.2169 269.894 67.2914 270 67.3345C270.109 67.3776 270.235 67.3991 270.377 67.3991C270.477 67.3991 270.576 67.3909 270.676 67.3743C270.775 67.3544 270.851 67.3395 270.904 67.3295L271.238 68.9055C271.132 68.9387 270.982 68.9768 270.79 69.0199C270.598 69.0663 270.364 69.0945 270.089 69.1044C269.579 69.1243 269.131 69.0563 268.747 68.9006C268.366 68.7448 268.069 68.5028 267.857 68.1747C267.645 67.8466 267.54 67.4323 267.544 66.9318V59.5341ZM275.876 69.1491C275.091 69.1491 274.414 68.9901 273.848 68.6719C273.284 68.3504 272.85 67.8963 272.545 67.3097C272.24 66.7197 272.088 66.022 272.088 65.2166C272.088 64.4311 272.24 63.7417 272.545 63.1484C272.85 62.5552 273.279 62.0928 273.833 61.7614C274.39 61.4299 275.042 61.2642 275.792 61.2642C276.295 61.2642 276.764 61.3454 277.199 61.5078C277.636 61.6669 278.017 61.9072 278.342 62.2287C278.67 62.5502 278.925 62.9545 279.108 63.4418C279.29 63.9257 279.381 64.4924 279.381 65.142V65.7237H272.933V64.4112H277.387C277.387 64.1063 277.321 63.8362 277.189 63.6009C277.056 63.3655 276.872 63.1816 276.637 63.049C276.405 62.9131 276.135 62.8452 275.826 62.8452C275.505 62.8452 275.22 62.9197 274.971 63.0689C274.726 63.2147 274.534 63.4119 274.395 63.6605C274.255 63.9058 274.184 64.1792 274.181 64.4808V65.7287C274.181 66.1065 274.25 66.433 274.39 66.7081C274.532 66.9832 274.733 67.1953 274.991 67.3445C275.25 67.4936 275.556 67.5682 275.911 67.5682C276.146 67.5682 276.362 67.535 276.557 67.4688C276.753 67.4025 276.92 67.303 277.059 67.1705C277.199 67.0379 277.305 66.8755 277.377 66.6832L279.336 66.8125C279.237 67.2831 279.033 67.6941 278.725 68.0455C278.42 68.3935 278.025 68.6652 277.542 68.8608C277.061 69.053 276.506 69.1491 275.876 69.1491Z" fill="#426A80"/>
<path d="M297.061 61.7464C297.021 61.3454 296.85 61.0339 296.549 60.8118C296.247 60.5897 295.838 60.4787 295.321 60.4787C294.969 60.4787 294.673 60.5284 294.431 60.6278C294.189 60.724 294.003 60.8582 293.874 61.0305C293.748 61.2029 293.685 61.3984 293.685 61.6172C293.678 61.7995 293.717 61.9586 293.799 62.0945C293.886 62.2304 294.003 62.348 294.152 62.4474C294.301 62.5436 294.474 62.6281 294.669 62.701C294.865 62.7706 295.074 62.8303 295.296 62.88L296.211 63.0987C296.655 63.1982 297.062 63.3307 297.434 63.4964C297.805 63.6622 298.126 63.866 298.398 64.108C298.67 64.3499 298.88 64.6349 299.029 64.9631C299.182 65.2912 299.26 65.6674 299.263 66.0916C299.26 66.7147 299.101 67.255 298.786 67.7124C298.474 68.1664 298.024 68.5194 297.434 68.7713C296.847 69.0199 296.139 69.1442 295.311 69.1442C294.489 69.1442 293.773 69.0182 293.163 68.7663C292.556 68.5144 292.083 68.1416 291.741 67.6477C291.403 67.1506 291.226 66.5357 291.209 65.8033H293.292C293.315 66.1446 293.413 66.4297 293.586 66.6584C293.761 66.8838 293.995 67.0545 294.287 67.1705C294.582 67.2831 294.915 67.3395 295.286 67.3395C295.65 67.3395 295.967 67.2865 296.235 67.1804C296.507 67.0743 296.718 66.9268 296.867 66.7379C297.016 66.549 297.091 66.3319 297.091 66.0866C297.091 65.858 297.023 65.6657 296.887 65.5099C296.754 65.3542 296.559 65.2216 296.3 65.1122C296.045 65.0028 295.732 64.9034 295.36 64.8139L294.252 64.5355C293.393 64.3267 292.716 64.0002 292.218 63.5561C291.721 63.112 291.474 62.5137 291.478 61.7614C291.474 61.1449 291.638 60.6063 291.97 60.1456C292.305 59.6849 292.764 59.3253 293.347 59.0668C293.93 58.8082 294.593 58.679 295.336 58.679C296.091 58.679 296.751 58.8082 297.314 59.0668C297.881 59.3253 298.322 59.6849 298.637 60.1456C298.952 60.6063 299.114 61.1399 299.124 61.7464H297.061ZM304.122 69.1491C303.349 69.1491 302.682 68.9851 302.118 68.657C301.558 68.3255 301.125 67.8648 300.82 67.2749C300.516 66.6816 300.363 65.9938 300.363 65.2116C300.363 64.4228 300.516 63.7334 300.82 63.1435C301.125 62.5502 301.558 62.0895 302.118 61.7614C302.682 61.4299 303.349 61.2642 304.122 61.2642C304.894 61.2642 305.56 61.4299 306.12 61.7614C306.684 62.0895 307.118 62.5502 307.423 63.1435C307.728 63.7334 307.88 64.4228 307.88 65.2116C307.88 65.9938 307.728 66.6816 307.423 67.2749C307.118 67.8648 306.684 68.3255 306.12 68.657C305.56 68.9851 304.894 69.1491 304.122 69.1491ZM304.132 67.5085C304.483 67.5085 304.776 67.4091 305.012 67.2102C305.247 67.008 305.424 66.733 305.544 66.3849C305.666 66.0369 305.727 65.6409 305.727 65.1967C305.727 64.7526 305.666 64.3565 305.544 64.0085C305.424 63.6605 305.247 63.3854 305.012 63.1832C304.776 62.9811 304.483 62.88 304.132 62.88C303.777 62.88 303.479 62.9811 303.237 63.1832C302.998 63.3854 302.817 63.6605 302.695 64.0085C302.575 64.3565 302.516 64.7526 302.516 65.1967C302.516 65.6409 302.575 66.0369 302.695 66.3849C302.817 66.733 302.998 67.008 303.237 67.2102C303.479 67.4091 303.777 67.5085 304.132 67.5085ZM311.375 58.8182V69H309.257V58.8182H311.375ZM317.969 65.7486V61.3636H320.087V69H318.053V67.6129H317.974C317.801 68.0604 317.515 68.42 317.114 68.6918C316.716 68.9635 316.23 69.0994 315.657 69.0994C315.147 69.0994 314.697 68.9834 314.31 68.7514C313.922 68.5194 313.619 68.1896 313.4 67.7621C313.184 67.3345 313.075 66.8224 313.072 66.2259V61.3636H315.19V65.848C315.193 66.2988 315.314 66.6551 315.553 66.9169C315.791 67.1787 316.111 67.3097 316.512 67.3097C316.767 67.3097 317.006 67.2517 317.228 67.1357C317.45 67.0163 317.629 66.8407 317.765 66.6087C317.904 66.3767 317.972 66.09 317.969 65.7486ZM325.843 61.3636V62.9545H321.244V61.3636H325.843ZM322.288 59.5341H324.406V66.6534C324.406 66.849 324.436 67.0014 324.495 67.1108C324.555 67.2169 324.638 67.2914 324.744 67.3345C324.853 67.3776 324.979 67.3991 325.122 67.3991C325.221 67.3991 325.32 67.3909 325.42 67.3743C325.519 67.3544 325.596 67.3395 325.649 67.3295L325.982 68.9055C325.876 68.9387 325.727 68.9768 325.534 69.0199C325.342 69.0663 325.108 69.0945 324.833 69.1044C324.323 69.1243 323.875 69.0563 323.491 68.9006C323.11 68.7448 322.813 68.5028 322.601 68.1747C322.389 67.8466 322.285 67.4323 322.288 66.9318V59.5341ZM327.222 69V61.3636H329.34V69H327.222ZM328.286 60.3793C327.971 60.3793 327.701 60.2749 327.476 60.0661C327.254 59.8539 327.143 59.6004 327.143 59.3054C327.143 59.0137 327.254 58.7635 327.476 58.5547C327.701 58.3426 327.971 58.2365 328.286 58.2365C328.601 58.2365 328.869 58.3426 329.091 58.5547C329.317 58.7635 329.43 59.0137 329.43 59.3054C329.43 59.6004 329.317 59.8539 329.091 60.0661C328.869 60.2749 328.601 60.3793 328.286 60.3793ZM334.487 69.1491C333.715 69.1491 333.047 68.9851 332.483 68.657C331.923 68.3255 331.491 67.8648 331.186 67.2749C330.881 66.6816 330.728 65.9938 330.728 65.2116C330.728 64.4228 330.881 63.7334 331.186 63.1435C331.491 62.5502 331.923 62.0895 332.483 61.7614C333.047 61.4299 333.715 61.2642 334.487 61.2642C335.259 61.2642 335.925 61.4299 336.485 61.7614C337.049 62.0895 337.483 62.5502 337.788 63.1435C338.093 63.7334 338.245 64.4228 338.245 65.2116C338.245 65.9938 338.093 66.6816 337.788 67.2749C337.483 67.8648 337.049 68.3255 336.485 68.657C335.925 68.9851 335.259 69.1491 334.487 69.1491ZM334.497 67.5085C334.848 67.5085 335.141 67.4091 335.377 67.2102C335.612 67.008 335.789 66.733 335.909 66.3849C336.031 66.0369 336.093 65.6409 336.093 65.1967C336.093 64.7526 336.031 64.3565 335.909 64.0085C335.789 63.6605 335.612 63.3854 335.377 63.1832C335.141 62.9811 334.848 62.88 334.497 62.88C334.142 62.88 333.844 62.9811 333.602 63.1832C333.363 63.3854 333.183 63.6605 333.06 64.0085C332.941 64.3565 332.881 64.7526 332.881 65.1967C332.881 65.6409 332.941 66.0369 333.06 66.3849C333.183 66.733 333.363 67.008 333.602 67.2102C333.844 67.4091 334.142 67.5085 334.497 67.5085ZM341.74 64.5852V69H339.623V61.3636H341.641V62.7109H341.73C341.9 62.2668 342.183 61.9155 342.581 61.657C342.978 61.3951 343.461 61.2642 344.027 61.2642C344.558 61.2642 345.02 61.3802 345.414 61.6122C345.809 61.8442 346.115 62.1757 346.334 62.6065C346.553 63.0341 346.662 63.5445 346.662 64.1378V69H344.544V64.5156C344.548 64.0483 344.428 63.6837 344.186 63.4219C343.944 63.1567 343.611 63.0241 343.187 63.0241C342.902 63.0241 342.65 63.0855 342.431 63.2081C342.216 63.3307 342.047 63.5097 341.924 63.745C341.805 63.977 341.744 64.2571 341.74 64.5852ZM354.685 63.5412L352.746 63.6605C352.713 63.4948 352.642 63.3456 352.532 63.2131C352.423 63.0772 352.279 62.9695 352.1 62.8899C351.924 62.8071 351.714 62.7656 351.469 62.7656C351.14 62.7656 350.864 62.8352 350.638 62.9744C350.413 63.1103 350.3 63.2926 350.3 63.5213C350.3 63.7036 350.373 63.8577 350.519 63.9837C350.665 64.1096 350.915 64.2107 351.27 64.2869L352.652 64.5653C353.394 64.7178 353.948 64.9631 354.312 65.3011C354.677 65.6392 354.859 66.0833 354.859 66.6335C354.859 67.134 354.712 67.5732 354.417 67.951C354.125 68.3288 353.724 68.6238 353.214 68.8359C352.706 69.0447 352.122 69.1491 351.459 69.1491C350.448 69.1491 349.642 68.9387 349.042 68.5178C348.446 68.0935 348.096 67.5168 347.993 66.7876L350.077 66.6783C350.14 66.9865 350.292 67.2218 350.534 67.3842C350.776 67.5433 351.086 67.6229 351.464 67.6229C351.835 67.6229 352.133 67.5516 352.358 67.4091C352.587 67.2633 352.703 67.076 352.706 66.8473C352.703 66.6551 352.622 66.4976 352.463 66.375C352.304 66.2491 352.059 66.1529 351.727 66.0866L350.405 65.8232C349.659 65.674 349.104 65.4155 348.739 65.0476C348.378 64.6797 348.197 64.2107 348.197 63.6406C348.197 63.1501 348.33 62.7275 348.595 62.3729C348.863 62.0182 349.24 61.7448 349.724 61.5526C350.211 61.3603 350.781 61.2642 351.434 61.2642C352.398 61.2642 353.157 61.468 353.711 61.8757C354.268 62.2834 354.592 62.8385 354.685 63.5412Z" fill="#426A80"/>
</svg>
