<svg width="475" height="83" viewBox="0 0 475 83" fill="none" xmlns="http://www.w3.org/2000/svg">
<path d="M21.6 0.350098L45.74 23.3201L21.6 47.6301H68.87L92.43 23.9901L68.87 0.350098H21.6Z" fill="#F1677D"/>
<path d="M66.38 33.5599H61.55V20.34L61.6 18.1699L61.68 15.7899C60.88 16.5899 60.32 17.1199 60.01 17.3699L57.39 19.4799L55.06 16.5699L62.42 10.71H66.39V33.5599H66.38Z" fill="white"/>
<path d="M110.99 0.350098L135.13 23.3201L110.99 47.6301H158.26L181.81 23.9901L158.26 0.350098H110.99Z" fill="#F1677D"/>
<path d="M159.79 33.5599H143.82V30.1999L149.55 24.3999C151.25 22.6599 152.36 21.4499 152.88 20.7799C153.4 20.1099 153.78 19.4899 154 18.9099C154.23 18.3399 154.34 17.7399 154.34 17.1299C154.34 16.2099 154.09 15.5299 153.58 15.0799C153.07 14.6299 152.4 14.4099 151.56 14.4099C150.67 14.4099 149.81 14.6099 148.98 15.0199C148.15 15.4299 147.28 15.9999 146.37 16.7499L143.75 13.6399C144.87 12.6799 145.81 12.0099 146.55 11.6099C147.29 11.2099 148.1 10.9099 148.97 10.6999C149.85 10.4899 150.82 10.3799 151.91 10.3799C153.34 10.3799 154.6 10.6399 155.69 11.1599C156.78 11.6799 157.63 12.4099 158.24 13.3499C158.84 14.2899 159.15 15.3599 159.15 16.5699C159.15 17.6199 158.96 18.6099 158.6 19.5299C158.23 20.4499 157.66 21.3999 156.88 22.3699C156.1 23.3399 154.74 24.7199 152.78 26.5099L149.84 29.2799V29.4999H159.79V33.5599V33.5599Z" fill="white"/>
<path d="M201.21 0.350098L225.36 23.3201L201.21 47.6301H248.48L272.04 23.9901L248.48 0.350098H201.21Z" fill="#F1677D"/>
<path d="M249.13 15.8299C249.13 17.2599 248.7 18.4699 247.83 19.4699C246.96 20.4699 245.75 21.1599 244.19 21.5299V21.6199C246.03 21.8499 247.43 22.4099 248.38 23.2999C249.33 24.1899 249.8 25.3899 249.8 26.8999C249.8 29.0999 249 30.8099 247.41 32.0299C245.82 33.2499 243.54 33.8699 240.58 33.8699C238.1 33.8699 235.9 33.4599 233.99 32.6399V28.5299C234.88 28.9799 235.85 29.3399 236.91 29.6199C237.97 29.8999 239.02 30.0399 240.07 30.0399C241.66 30.0399 242.84 29.7699 243.6 29.2299C244.36 28.6899 244.74 27.8199 244.74 26.6199C244.74 25.5499 244.3 24.7899 243.43 24.3399C242.55 23.8899 241.16 23.6699 239.24 23.6699H237.51V19.9699H239.27C241.04 19.9699 242.34 19.7399 243.15 19.2699C243.97 18.8099 244.38 18.0099 244.38 16.8899C244.38 15.1599 243.3 14.2999 241.13 14.2999C240.38 14.2999 239.62 14.4199 238.84 14.6799C238.06 14.9399 237.2 15.3599 236.25 15.9799L234.02 12.6499C236.1 11.1499 238.59 10.3999 241.47 10.3999C243.83 10.3999 245.7 10.8799 247.07 11.8399C248.44 12.7899 249.13 14.1199 249.13 15.8299Z" fill="white"/>
<path d="M29.98 52.3699V59.7599C29.98 60.5999 29.79 61.3399 29.41 61.9799C29.03 62.6199 28.49 63.0999 27.77 63.4399C27.06 63.7799 26.21 63.9499 25.24 63.9499C23.77 63.9499 22.63 63.5699 21.82 62.8199C21.01 62.0699 20.6 61.0399 20.6 59.7299V52.3699H23.01V59.3599C23.01 60.2399 23.19 60.8899 23.54 61.2999C23.89 61.7099 24.48 61.9199 25.3 61.9199C26.09 61.9199 26.67 61.7099 27.02 61.2999C27.38 60.8899 27.56 60.2399 27.56 59.3499V52.3699H29.98Z" fill="#426A80"/>
<path d="M38.68 61.1999C38.68 62.0999 38.37 62.7799 37.75 63.2499C37.13 63.7199 36.2 63.9499 34.96 63.9499C34.32 63.9499 33.78 63.9099 33.34 63.8199C32.89 63.7299 32.47 63.6099 32.08 63.4399V61.4699C32.52 61.6799 33.02 61.8499 33.58 61.9899C34.14 62.1299 34.62 62.1999 35.04 62.1999C35.9 62.1999 36.34 61.9499 36.34 61.4499C36.34 61.2599 36.28 61.1099 36.17 60.9899C36.06 60.8699 35.86 60.7399 35.58 60.5899C35.3 60.4399 34.92 60.2699 34.46 60.0699C33.79 59.7899 33.29 59.5299 32.98 59.2899C32.66 59.0499 32.44 58.7799 32.29 58.4699C32.15 58.1599 32.08 57.7799 32.08 57.3299C32.08 56.5499 32.38 55.9499 32.98 55.5299C33.58 55.1099 34.43 54.8899 35.54 54.8899C36.59 54.8899 37.62 55.1199 38.61 55.5799L37.89 57.2999C37.45 57.1099 37.04 56.9599 36.66 56.8399C36.28 56.7199 35.89 56.6599 35.5 56.6599C34.8 56.6599 34.45 56.8499 34.45 57.2299C34.45 57.4399 34.56 57.6299 34.79 57.7799C35.02 57.9299 35.51 58.1699 36.28 58.4799C36.96 58.7599 37.46 59.0099 37.78 59.2499C38.1 59.4899 38.33 59.7699 38.48 60.0799C38.61 60.3899 38.68 60.7599 38.68 61.1999Z" fill="#426A80"/>
<path d="M44.49 63.9499C43.08 63.9499 41.98 63.5599 41.19 62.7899C40.4 62.0099 40 60.9099 40 59.4899C40 58.0299 40.37 56.8999 41.1 56.0999C41.83 55.2999 42.84 54.8999 44.14 54.8999C45.37 54.8999 46.34 55.2499 47.02 55.9499C47.7 56.6499 48.05 57.6199 48.05 58.8599V60.0199H42.42C42.45 60.6999 42.65 61.2299 43.02 61.6099C43.39 61.9899 43.92 62.1799 44.6 62.1799C45.13 62.1799 45.62 62.1299 46.09 62.0199C46.56 61.9099 47.05 61.7399 47.56 61.4999V63.3399C47.14 63.5499 46.7 63.6999 46.22 63.7999C45.75 63.8899 45.18 63.9499 44.49 63.9499ZM44.16 56.5899C43.65 56.5899 43.26 56.7499 42.97 57.0699C42.68 57.3899 42.52 57.8399 42.48 58.4299H45.82C45.81 57.8399 45.66 57.3899 45.36 57.0699C45.06 56.7499 44.66 56.5899 44.16 56.5899Z" fill="#426A80"/>
<path d="M54.87 54.8899C55.19 54.8899 55.46 54.9099 55.67 54.9599L55.49 57.1899C55.3 57.1399 55.06 57.1099 54.79 57.1099C54.03 57.1099 53.44 57.3099 53.01 57.6999C52.59 58.0899 52.37 58.6399 52.37 59.3399V63.7899H49.99V55.0599H51.79L52.14 56.5299H52.27C52.54 56.0399 52.91 55.6499 53.37 55.3499C53.83 55.0499 54.33 54.8899 54.87 54.8899Z" fill="#426A80"/>
<path d="M66.01 63.7899H63.59V54.3799H60.49V52.3599H69.11V54.3799H66.01V63.7899V63.7899Z" fill="#426A80"/>
<path d="M74.63 63.9499C73.22 63.9499 72.12 63.5599 71.33 62.7899C70.54 62.0099 70.14 60.9099 70.14 59.4899C70.14 58.0299 70.51 56.8999 71.24 56.0999C71.97 55.2999 72.98 54.8999 74.28 54.8999C75.51 54.8999 76.48 55.2499 77.16 55.9499C77.84 56.6499 78.19 57.6199 78.19 58.8599V60.0199H72.56C72.59 60.6999 72.79 61.2299 73.16 61.6099C73.53 61.9899 74.06 62.1799 74.74 62.1799C75.27 62.1799 75.76 62.1299 76.23 62.0199C76.7 61.9099 77.19 61.7399 77.7 61.4999V63.3399C77.28 63.5499 76.84 63.6999 76.36 63.7999C75.89 63.8899 75.32 63.9499 74.63 63.9499ZM74.3 56.5899C73.79 56.5899 73.4 56.7499 73.11 57.0699C72.82 57.3899 72.66 57.8399 72.62 58.4299H75.96C75.95 57.8399 75.8 57.3899 75.5 57.0699C75.2 56.7499 74.8 56.5899 74.3 56.5899Z" fill="#426A80"/>
<path d="M86.23 61.1999C86.23 62.0999 85.92 62.7799 85.3 63.2499C84.68 63.7199 83.75 63.9499 82.51 63.9499C81.87 63.9499 81.33 63.9099 80.89 63.8199C80.44 63.7299 80.02 63.6099 79.63 63.4399V61.4699C80.07 61.6799 80.57 61.8499 81.13 61.9899C81.69 62.1299 82.17 62.1999 82.59 62.1999C83.45 62.1999 83.89 61.9499 83.89 61.4499C83.89 61.2599 83.83 61.1099 83.72 60.9899C83.61 60.8699 83.41 60.7399 83.13 60.5899C82.85 60.4399 82.47 60.2699 82.01 60.0699C81.34 59.7899 80.84 59.5299 80.53 59.2899C80.21 59.0499 79.99 58.7799 79.84 58.4699C79.7 58.1599 79.63 57.7799 79.63 57.3299C79.63 56.5499 79.93 55.9499 80.53 55.5299C81.13 55.1099 81.98 54.8899 83.09 54.8899C84.14 54.8899 85.17 55.1199 86.16 55.5799L85.44 57.2999C85 57.1099 84.59 56.9599 84.21 56.8399C83.83 56.7199 83.44 56.6599 83.05 56.6599C82.35 56.6599 82 56.8499 82 57.2299C82 57.4399 82.11 57.6299 82.34 57.7799C82.57 57.9299 83.06 58.1699 83.83 58.4799C84.51 58.7599 85.01 59.0099 85.33 59.2499C85.65 59.4899 85.88 59.7699 86.03 60.0799C86.15 60.3899 86.23 60.7599 86.23 61.1999Z" fill="#426A80"/>
<path d="M91.77 62.0499C92.19 62.0499 92.69 61.96 93.27 61.78V63.5499C92.68 63.8199 91.95 63.95 91.08 63.95C90.13 63.95 89.43 63.7099 89 63.2299C88.56 62.7499 88.35 62.0299 88.35 61.0599V56.8499H87.21V55.84L88.52 55.0399L89.21 53.2H90.73V55.0599H93.18V56.8499H90.73V61.0599C90.73 61.3999 90.82 61.6499 91.02 61.8099C91.2 61.9699 91.45 62.0499 91.77 62.0499Z" fill="#426A80"/>
<path d="M121.83 63.7898L121 61.0698H116.84L116.01 63.7898H113.4L117.43 52.3198H120.39L124.44 63.7898H121.83ZM120.43 59.0398C119.66 56.5798 119.23 55.1798 119.14 54.8598C119.04 54.5398 118.97 54.2798 118.93 54.0898C118.76 54.7598 118.27 56.4098 117.45 59.0398H120.43V59.0398Z" fill="#426A80"/>
<path d="M133.75 63.7899H131.37V58.6899C131.37 58.0599 131.26 57.5899 131.03 57.2699C130.81 56.9499 130.45 56.7999 129.96 56.7999C129.29 56.7999 128.81 57.0199 128.51 57.4699C128.21 57.9199 128.06 58.6499 128.06 59.6799V63.7899H125.68V55.0599H127.5L127.82 56.1799H127.95C128.22 55.7599 128.58 55.4399 129.05 55.2199C129.52 54.9999 130.05 54.8999 130.64 54.8999C131.66 54.8999 132.43 55.1699 132.95 55.7199C133.48 56.2699 133.74 57.0599 133.74 58.0999V63.7899H133.75Z" fill="#426A80"/>
<path d="M141.75 63.7899L141.29 62.5999H141.23C140.83 63.0999 140.42 63.4599 139.99 63.6499C139.57 63.8499 139.01 63.9399 138.33 63.9399C137.49 63.9399 136.83 63.6999 136.35 63.2199C135.87 62.7399 135.63 62.0599 135.63 61.1699C135.63 60.2399 135.95 59.5599 136.6 59.1199C137.25 58.6799 138.23 58.4399 139.53 58.3899L141.05 58.3399V57.9599C141.05 57.0699 140.6 56.6299 139.69 56.6299C138.99 56.6299 138.17 56.8399 137.23 57.2599L136.44 55.6499C137.44 55.1199 138.56 54.8599 139.78 54.8599C140.95 54.8599 141.85 55.1099 142.48 55.6299C143.11 56.1499 143.42 56.9199 143.42 57.9599V63.7799H141.75V63.7899ZM141.05 59.7399L140.13 59.7699C139.44 59.7899 138.92 59.9199 138.58 60.1499C138.24 60.3799 138.07 60.7299 138.07 61.1999C138.07 61.8699 138.46 62.2099 139.23 62.2099C139.78 62.2099 140.22 62.0499 140.55 61.7299C140.88 61.4099 141.05 60.9899 141.05 60.4599V59.7399Z" fill="#426A80"/>
<path d="M148.25 63.7899H145.87V51.6299H148.25V63.7899Z" fill="#426A80"/>
<path d="M149.5 55.0498H152.11L153.76 59.9598C153.9 60.3898 154 60.8898 154.05 61.4798H154.1C154.16 60.9398 154.27 60.4398 154.44 59.9598L156.06 55.0498H158.61L154.91 64.8998C154.57 65.8098 154.09 66.4898 153.46 66.9498C152.83 67.3998 152.1 67.6298 151.26 67.6298C150.85 67.6298 150.44 67.5898 150.05 67.4998V65.6098C150.34 65.6798 150.65 65.7098 150.99 65.7098C151.41 65.7098 151.78 65.5798 152.1 65.3198C152.41 65.0598 152.66 64.6698 152.84 64.1498L152.98 63.7198L149.5 55.0498Z" fill="#426A80"/>
<path d="M165.95 61.1999C165.95 62.0999 165.64 62.7799 165.02 63.2499C164.4 63.7199 163.47 63.9499 162.23 63.9499C161.59 63.9499 161.05 63.9099 160.61 63.8199C160.16 63.7299 159.74 63.6099 159.35 63.4399V61.4699C159.79 61.6799 160.29 61.8499 160.85 61.9899C161.41 62.1299 161.89 62.1999 162.31 62.1999C163.17 62.1999 163.61 61.9499 163.61 61.4499C163.61 61.2599 163.55 61.1099 163.44 60.9899C163.33 60.8699 163.13 60.7399 162.85 60.5899C162.57 60.4399 162.19 60.2699 161.73 60.0699C161.06 59.7899 160.56 59.5299 160.25 59.2899C159.93 59.0499 159.71 58.7799 159.56 58.4699C159.42 58.1599 159.35 57.7799 159.35 57.3299C159.35 56.5499 159.65 55.9499 160.25 55.5299C160.85 55.1099 161.7 54.8899 162.81 54.8899C163.86 54.8899 164.89 55.1199 165.88 55.5799L165.16 57.2999C164.72 57.1099 164.31 56.9599 163.93 56.8399C163.55 56.7199 163.16 56.6599 162.77 56.6599C162.07 56.6599 161.72 56.8499 161.72 57.2299C161.72 57.4399 161.83 57.6299 162.06 57.7799C162.29 57.9299 162.78 58.1699 163.55 58.4799C164.23 58.7599 164.73 59.0099 165.05 59.2499C165.37 59.4899 165.6 59.7699 165.75 60.0799C165.87 60.3899 165.95 60.7599 165.95 61.1999Z" fill="#426A80"/>
<path d="M167.71 52.7999C167.71 52.0199 168.14 51.6399 169.01 51.6399C169.87 51.6399 170.31 52.0299 170.31 52.7999C170.31 53.1699 170.2 53.4599 169.99 53.6599C169.77 53.8699 169.45 53.9699 169.02 53.9699C168.14 53.9699 167.71 53.5799 167.71 52.7999ZM170.19 63.7899H167.81V55.0599H170.19V63.7899Z" fill="#426A80"/>
<path d="M178.79 61.1999C178.79 62.0999 178.48 62.7799 177.86 63.2499C177.24 63.7199 176.31 63.9499 175.07 63.9499C174.43 63.9499 173.89 63.9099 173.45 63.8199C173 63.7299 172.58 63.6099 172.19 63.4399V61.4699C172.63 61.6799 173.13 61.8499 173.69 61.9899C174.25 62.1299 174.73 62.1999 175.15 62.1999C176.01 62.1999 176.45 61.9499 176.45 61.4499C176.45 61.2599 176.39 61.1099 176.28 60.9899C176.17 60.8699 175.97 60.7399 175.69 60.5899C175.41 60.4399 175.03 60.2699 174.57 60.0699C173.9 59.7899 173.4 59.5299 173.09 59.2899C172.77 59.0499 172.55 58.7799 172.4 58.4699C172.26 58.1599 172.19 57.7799 172.19 57.3299C172.19 56.5499 172.49 55.9499 173.09 55.5299C173.69 55.1099 174.54 54.8899 175.65 54.8899C176.7 54.8899 177.73 55.1199 178.72 55.5799L178 57.2999C177.56 57.1099 177.15 56.9599 176.77 56.8399C176.39 56.7199 176 56.6599 175.61 56.6599C174.91 56.6599 174.56 56.8499 174.56 57.2299C174.56 57.4399 174.67 57.6299 174.9 57.7799C175.13 57.9299 175.62 58.1699 176.39 58.4799C177.07 58.7599 177.57 59.0099 177.89 59.2499C178.21 59.4899 178.44 59.7699 178.59 60.0799C178.71 60.3899 178.79 60.7599 178.79 61.1999Z" fill="#426A80"/>
<path d="M221.37 57.9702C221.37 59.8502 220.83 61.2901 219.76 62.2901C218.69 63.2901 217.14 63.7901 215.12 63.7901H211.89V52.3701H215.48C217.34 52.3701 218.79 52.8601 219.82 53.8501C220.85 54.8401 221.37 56.2002 221.37 57.9702ZM218.85 58.0302C218.85 55.5802 217.77 54.3501 215.6 54.3501H214.31V61.7901H215.35C217.69 61.7901 218.85 60.5402 218.85 58.0302Z" fill="#426A80"/>
<path d="M227.5 63.9501C226.09 63.9501 225 63.5601 224.2 62.7901C223.4 62.0201 223.01 60.9101 223.01 59.4901C223.01 58.0301 223.38 56.9001 224.11 56.1001C224.84 55.3001 225.85 54.9001 227.15 54.9001C228.38 54.9001 229.35 55.2501 230.03 55.9501C230.71 56.6501 231.06 57.6201 231.06 58.8601V60.0201H225.43C225.46 60.7001 225.66 61.2301 226.03 61.6101C226.4 61.9901 226.93 62.1801 227.61 62.1801C228.14 62.1801 228.63 62.1301 229.1 62.0201C229.57 61.9101 230.06 61.7401 230.57 61.5001V63.3401C230.15 63.5501 229.71 63.7001 229.23 63.8001C228.75 63.9001 228.19 63.9501 227.5 63.9501ZM227.17 56.5901C226.67 56.5901 226.27 56.7501 225.98 57.0701C225.69 57.3901 225.53 57.8401 225.49 58.4301H228.83C228.82 57.8401 228.67 57.3901 228.37 57.0701C228.07 56.7501 227.67 56.5901 227.17 56.5901Z" fill="#426A80"/>
<path d="M237.83 56.8401H235.77V63.79H233.39V56.8401H232.08V55.6901L233.39 55.05V54.4101C233.39 53.4101 233.64 52.69 234.12 52.23C234.6 51.77 235.39 51.54 236.47 51.54C237.29 51.54 238.02 51.6601 238.67 51.9101L238.06 53.6601C237.58 53.5101 237.14 53.4301 236.73 53.4301C236.39 53.4301 236.15 53.53 236 53.73C235.85 53.93 235.77 54.1901 235.77 54.5001V55.05H237.83V56.8401ZM239.1 52.8C239.1 52.02 239.53 51.6401 240.4 51.6401C241.27 51.6401 241.7 52.03 241.7 52.8C241.7 53.17 241.59 53.4601 241.38 53.6601C241.17 53.8601 240.84 53.9701 240.41 53.9701C239.53 53.9701 239.1 53.58 239.1 52.8ZM241.58 63.79H239.2V55.0601H241.58V63.79Z" fill="#426A80"/>
<path d="M252.14 63.7901H249.76V58.6901C249.76 58.0601 249.65 57.5901 249.42 57.2701C249.19 56.9501 248.84 56.8001 248.35 56.8001C247.68 56.8001 247.2 57.0202 246.9 57.4702C246.6 57.9202 246.45 58.6501 246.45 59.6801V63.7901H244.07V55.0601H245.89L246.21 56.1801H246.34C246.61 55.7601 246.97 55.4402 247.44 55.2202C247.91 55.0002 248.44 54.9001 249.03 54.9001C250.05 54.9001 250.82 55.1702 251.34 55.7202C251.86 56.2702 252.13 57.0601 252.13 58.1001V63.7901H252.14Z" fill="#426A80"/>
<path d="M258.54 63.9501C257.13 63.9501 256.04 63.5601 255.24 62.7901C254.44 62.0201 254.05 60.9101 254.05 59.4901C254.05 58.0301 254.42 56.9001 255.15 56.1001C255.88 55.3001 256.89 54.9001 258.19 54.9001C259.42 54.9001 260.39 55.2501 261.07 55.9501C261.75 56.6501 262.1 57.6201 262.1 58.8601V60.0201H256.47C256.5 60.7001 256.7 61.2301 257.07 61.6101C257.44 61.9901 257.97 62.1801 258.65 62.1801C259.18 62.1801 259.67 62.1301 260.14 62.0201C260.61 61.9101 261.1 61.7401 261.61 61.5001V63.3401C261.19 63.5501 260.75 63.7001 260.27 63.8001C259.79 63.9001 259.23 63.9501 258.54 63.9501ZM258.21 56.5901C257.71 56.5901 257.31 56.7501 257.02 57.0701C256.73 57.3901 256.57 57.8401 256.53 58.4301H259.87C259.86 57.8401 259.71 57.3901 259.41 57.0701C259.11 56.7501 258.71 56.5901 258.21 56.5901Z" fill="#426A80"/>
<path d="M290.96 0L315.11 22.96L290.96 47.27H338.24L361.79 23.64L338.24 0H290.96Z" fill="#F1677D"/>
<path d="M340.29 28.4699H337.54V33.1999H332.82V28.4699H323.07V25.1099L333.09 10.3599H337.54V24.7199H340.29V28.4699V28.4699ZM332.82 24.7199V20.8399C332.82 20.1899 332.85 19.2599 332.9 18.0299C332.95 16.7999 332.99 16.0899 333.02 15.8899H332.9C332.51 16.7399 332.05 17.5799 331.51 18.3899L327.32 24.7199H332.82V24.7199Z" fill="white"/>
<path d="M300.94 60.2601C300.94 61.2901 300.57 62.1001 299.83 62.7001C299.09 63.3001 298.05 63.5901 296.73 63.5901C295.51 63.5901 294.43 63.3601 293.5 62.9001V60.6501C294.27 60.9901 294.92 61.2401 295.46 61.3801C295.99 61.5201 296.48 61.5901 296.92 61.5901C297.45 61.5901 297.86 61.4901 298.14 61.2901C298.42 61.0901 298.57 60.7901 298.57 60.3801C298.57 60.1601 298.51 59.9602 298.38 59.7802C298.25 59.6002 298.07 59.4402 297.83 59.2802C297.59 59.1202 297.09 58.8601 296.35 58.5101C295.65 58.1801 295.13 57.8701 294.78 57.5601C294.43 57.2601 294.15 56.9101 293.94 56.5101C293.73 56.1101 293.63 55.6401 293.63 55.1001C293.63 54.0901 293.97 53.3002 294.66 52.7202C295.34 52.1402 296.29 51.8501 297.5 51.8501C298.09 51.8501 298.66 51.9201 299.2 52.0601C299.74 52.2001 300.3 52.4001 300.89 52.6501L300.11 54.5302C299.5 54.2802 299 54.1101 298.6 54.0101C298.2 53.9101 297.81 53.8601 297.42 53.8601C296.96 53.8601 296.61 53.9701 296.37 54.1801C296.12 54.3901 296 54.6701 296 55.0201C296 55.2301 296.05 55.4201 296.15 55.5801C296.25 55.7401 296.41 55.8901 296.62 56.0401C296.84 56.1901 297.35 56.4601 298.16 56.8401C299.23 57.3501 299.96 57.8601 300.36 58.3801C300.74 58.8901 300.94 59.5201 300.94 60.2601Z" fill="#426A80"/>
<path d="M306.51 61.6901C306.93 61.6901 307.43 61.6 308.01 61.42V63.1901C307.42 63.4601 306.69 63.5901 305.82 63.5901C304.87 63.5901 304.17 63.3501 303.74 62.8701C303.3 62.3901 303.09 61.6701 303.09 60.7001V56.4901H301.95V55.48L303.26 54.6801L303.95 52.8401H305.47V54.7001H307.92V56.4901H305.47V60.7001C305.47 61.0401 305.56 61.2901 305.76 61.4501C305.94 61.6101 306.19 61.6901 306.51 61.6901Z" fill="#426A80"/>
<path d="M314.65 54.54C314.97 54.54 315.24 54.56 315.45 54.61L315.27 56.8401C315.08 56.7901 314.84 56.7601 314.57 56.7601C313.81 56.7601 313.22 56.96 312.79 57.35C312.37 57.74 312.15 58.2901 312.15 58.9901V63.4401H309.77V54.7101H311.57L311.92 56.1801H312.04C312.31 55.6901 312.68 55.3001 313.14 55.0001C313.6 54.7001 314.1 54.54 314.65 54.54Z" fill="#426A80"/>
<path d="M322.58 63.43L322.12 62.24H322.06C321.66 62.74 321.25 63.1 320.82 63.29C320.4 63.49 319.84 63.58 319.16 63.58C318.32 63.58 317.66 63.34 317.18 62.86C316.7 62.38 316.46 61.7 316.46 60.81C316.46 59.88 316.78 59.2 317.43 58.76C318.08 58.32 319.06 58.08 320.36 58.03L321.88 57.98V57.6C321.88 56.71 321.43 56.27 320.52 56.27C319.82 56.27 319 56.48 318.06 56.9L317.27 55.29C318.27 54.76 319.39 54.5 320.61 54.5C321.78 54.5 322.68 54.75 323.31 55.27C323.94 55.79 324.25 56.56 324.25 57.6V63.42H322.58V63.43ZM321.88 59.39L320.96 59.42C320.27 59.44 319.75 59.57 319.41 59.8C319.07 60.03 318.9 60.38 318.9 60.85C318.9 61.52 319.28 61.86 320.06 61.86C320.61 61.86 321.05 61.7 321.38 61.38C321.71 61.06 321.88 60.64 321.88 60.11V59.39Z" fill="#426A80"/>
<path d="M330.38 61.6901C330.8 61.6901 331.3 61.6 331.88 61.42V63.1901C331.29 63.4601 330.56 63.5901 329.69 63.5901C328.74 63.5901 328.04 63.3501 327.61 62.8701C327.17 62.3901 326.96 61.6701 326.96 60.7001V56.4901H325.82V55.48L327.13 54.6801L327.82 52.8401H329.34V54.7001H331.79V56.4901H329.34V60.7001C329.34 61.0401 329.43 61.2901 329.63 61.4501C329.82 61.6101 330.07 61.6901 330.38 61.6901Z" fill="#426A80"/>
<path d="M337.6 63.5901C336.19 63.5901 335.09 63.2001 334.3 62.4301C333.51 61.6501 333.11 60.5501 333.11 59.1301C333.11 57.6701 333.48 56.5401 334.21 55.7401C334.94 54.9401 335.95 54.54 337.25 54.54C338.48 54.54 339.45 54.8901 340.13 55.5901C340.81 56.2901 341.16 57.2601 341.16 58.5001V59.6601H335.53C335.56 60.3401 335.76 60.8701 336.13 61.2501C336.5 61.6301 337.03 61.8201 337.71 61.8201C338.24 61.8201 338.73 61.7701 339.2 61.6601C339.67 61.5501 340.16 61.3801 340.67 61.1401V62.98C340.25 63.19 339.81 63.3401 339.33 63.4401C338.86 63.5401 338.28 63.5901 337.6 63.5901ZM337.26 56.23C336.75 56.23 336.36 56.3901 336.07 56.7101C335.78 57.0301 335.62 57.4801 335.58 58.0701H338.92C338.91 57.4801 338.76 57.0301 338.46 56.7101C338.16 56.3901 337.77 56.23 337.26 56.23Z" fill="#426A80"/>
<path d="M350.7 54.7001V55.9101L349.33 56.2601C349.58 56.6501 349.71 57.0901 349.71 57.5701C349.71 58.5101 349.38 59.2401 348.73 59.7601C348.08 60.2801 347.17 60.55 346.01 60.55L345.58 60.5301L345.23 60.4901C344.98 60.6801 344.86 60.89 344.86 61.11C344.86 61.45 345.3 61.6301 346.17 61.6301H347.65C348.61 61.6301 349.34 61.8401 349.84 62.2501C350.34 62.6601 350.59 63.2701 350.59 64.0601C350.59 65.0801 350.16 65.8701 349.31 66.4401C348.46 67.0101 347.24 67.2801 345.64 67.2801C344.42 67.2801 343.49 67.0701 342.85 66.6401C342.21 66.2201 341.89 65.62 341.89 64.85C341.89 64.32 342.05 63.8801 342.38 63.5301C342.71 63.1801 343.19 62.9201 343.83 62.7701C343.58 62.6701 343.37 62.5001 343.19 62.2601C343.01 62.0201 342.92 61.7701 342.92 61.5101C342.92 61.1801 343.02 60.9001 343.21 60.6801C343.4 60.4601 343.68 60.2401 344.05 60.0301C343.59 59.8301 343.23 59.5101 342.96 59.0801C342.69 58.6401 342.56 58.1301 342.56 57.5301C342.56 56.5801 342.87 55.8401 343.49 55.3201C344.11 54.8001 344.99 54.54 346.15 54.54C346.39 54.54 346.69 54.56 347.02 54.61C347.35 54.66 347.57 54.6901 347.66 54.7101H350.7V54.7001ZM343.96 64.67C343.96 65 344.12 65.2601 344.43 65.4401C344.74 65.6301 345.19 65.7201 345.75 65.7201C346.6 65.7201 347.27 65.6001 347.76 65.3701C348.25 65.1401 348.49 64.8201 348.49 64.4101C348.49 64.0801 348.35 63.86 348.06 63.73C347.77 63.61 347.33 63.54 346.73 63.54H345.5C345.06 63.54 344.7 63.64 344.4 63.85C344.1 64.06 343.96 64.33 343.96 64.67ZM344.83 57.5601C344.83 58.0301 344.94 58.4101 345.15 58.6801C345.37 58.9601 345.69 59.0901 346.14 59.0901C346.59 59.0901 346.92 58.9501 347.12 58.6801C347.33 58.4001 347.43 58.0301 347.43 57.5601C347.43 56.5101 347 55.98 346.13 55.98C345.26 55.98 344.83 56.5101 344.83 57.5601Z" fill="#426A80"/>
<path d="M350.89 54.7002H353.5L355.15 59.6102C355.29 60.0402 355.39 60.5402 355.44 61.1302H355.49C355.55 60.5902 355.66 60.0902 355.83 59.6102L357.45 54.7002H360L356.3 64.5502C355.96 65.4602 355.48 66.1402 354.85 66.6002C354.22 67.0502 353.49 67.2802 352.65 67.2802C352.24 67.2802 351.83 67.2402 351.44 67.1502V65.2602C351.73 65.3302 352.04 65.3602 352.38 65.3602C352.8 65.3602 353.17 65.2302 353.49 64.9702C353.8 64.7102 354.05 64.3202 354.23 63.8002L354.37 63.3702L350.89 54.7002Z" fill="#426A80"/>
<path d="M380.75 0L404.9 22.96L380.75 47.27H428.03L451.58 23.64L428.03 0H380.75Z" fill="#F1677D"/>
<path d="M421.91 18.6099C424.12 18.6099 425.88 19.2299 427.18 20.4699C428.49 21.7099 429.14 23.4099 429.14 25.5599C429.14 28.1099 428.35 30.0799 426.78 31.4499C425.21 32.8299 422.96 33.5099 420.03 33.5099C417.49 33.5099 415.44 33.0999 413.87 32.2799V28.1099C414.69 28.5499 415.65 28.8999 416.75 29.1799C417.84 29.4599 418.88 29.5899 419.86 29.5899C422.81 29.5899 424.28 28.3799 424.28 25.9699C424.28 23.6699 422.75 22.5199 419.7 22.5199C419.15 22.5199 418.54 22.5699 417.87 22.6799C417.2 22.7899 416.66 22.9099 416.25 23.0299L414.33 21.9999L415.19 10.3599H427.58V14.4499H419.42L419 18.9299L419.55 18.8199C420.18 18.6899 420.97 18.6099 421.91 18.6099Z" fill="white"/>
<path d="M400.24 57.61C400.24 59.49 399.7 60.93 398.63 61.93C397.56 62.93 396.01 63.43 393.99 63.43H390.76V52.01H394.35C396.21 52.01 397.66 52.5 398.69 53.49C399.72 54.48 400.24 55.85 400.24 57.61ZM397.72 57.68C397.72 55.23 396.64 54 394.47 54H393.18V61.44H394.22C396.56 61.43 397.72 60.18 397.72 57.68Z" fill="#426A80"/>
<path d="M406.37 63.5901C404.96 63.5901 403.86 63.2001 403.07 62.4301C402.28 61.6501 401.88 60.5501 401.88 59.1301C401.88 57.6701 402.25 56.5401 402.98 55.7401C403.71 54.9401 404.72 54.54 406.02 54.54C407.25 54.54 408.22 54.8901 408.9 55.5901C409.58 56.2901 409.93 57.2601 409.93 58.5001V59.6601H404.3C404.33 60.3401 404.53 60.8701 404.9 61.2501C405.27 61.6301 405.8 61.8201 406.48 61.8201C407.01 61.8201 407.5 61.7701 407.97 61.6601C408.44 61.5501 408.93 61.3801 409.44 61.1401V62.98C409.02 63.19 408.58 63.3401 408.1 63.4401C407.63 63.5401 407.05 63.5901 406.37 63.5901ZM406.03 56.23C405.52 56.23 405.13 56.3901 404.84 56.7101C404.55 57.0301 404.39 57.4801 404.35 58.0701H407.69C407.68 57.4801 407.53 57.0301 407.23 56.7101C406.93 56.3901 406.54 56.23 406.03 56.23Z" fill="#426A80"/>
<path d="M417.96 60.84C417.96 61.74 417.65 62.42 417.03 62.89C416.41 63.36 415.48 63.59 414.24 63.59C413.6 63.59 413.06 63.55 412.62 63.46C412.17 63.37 411.75 63.25 411.36 63.08V61.11C411.8 61.32 412.3 61.49 412.86 61.63C413.42 61.77 413.9 61.84 414.32 61.84C415.18 61.84 415.62 61.59 415.62 61.09C415.62 60.9 415.56 60.75 415.45 60.63C415.33 60.51 415.14 60.38 414.86 60.23C414.58 60.08 414.2 59.91 413.74 59.71C413.07 59.43 412.57 59.17 412.26 58.93C411.94 58.69 411.72 58.42 411.57 58.11C411.43 57.8 411.36 57.42 411.36 56.97C411.36 56.19 411.66 55.59 412.26 55.17C412.86 54.75 413.71 54.53 414.82 54.53C415.87 54.53 416.9 54.76 417.89 55.22L417.17 56.94C416.73 56.75 416.32 56.6 415.94 56.48C415.56 56.36 415.17 56.3 414.78 56.3C414.08 56.3 413.73 56.49 413.73 56.87C413.73 57.08 413.84 57.27 414.07 57.42C414.3 57.57 414.79 57.81 415.56 58.12C416.24 58.4 416.74 58.65 417.06 58.89C417.38 59.13 417.61 59.41 417.76 59.72C417.89 60.04 417.96 60.41 417.96 60.84Z" fill="#426A80"/>
<path d="M419.72 52.44C419.72 51.66 420.15 51.28 421.02 51.28C421.88 51.28 422.32 51.67 422.32 52.44C422.32 52.81 422.21 53.1 422 53.3C421.78 53.51 421.46 53.61 421.03 53.61C420.15 53.61 419.72 53.22 419.72 52.44ZM422.21 63.43H419.83V54.7H422.21V63.43Z" fill="#426A80"/>
<path d="M432.31 54.7001V55.9101L430.94 56.2601C431.19 56.6501 431.32 57.0901 431.32 57.5701C431.32 58.5101 430.99 59.2401 430.34 59.7601C429.69 60.2801 428.78 60.55 427.62 60.55L427.19 60.5301L426.84 60.4901C426.59 60.6801 426.47 60.89 426.47 61.11C426.47 61.45 426.91 61.6301 427.78 61.6301H429.26C430.22 61.6301 430.95 61.8401 431.45 62.2501C431.95 62.6601 432.2 63.2701 432.2 64.0601C432.2 65.0801 431.77 65.8701 430.92 66.4401C430.07 67.0101 428.85 67.2801 427.25 67.2801C426.03 67.2801 425.1 67.0701 424.46 66.6401C423.82 66.2201 423.5 65.62 423.5 64.85C423.5 64.32 423.66 63.8801 423.99 63.5301C424.32 63.1801 424.8 62.9201 425.44 62.7701C425.19 62.6701 424.98 62.5001 424.8 62.2601C424.62 62.0201 424.53 61.7701 424.53 61.5101C424.53 61.1801 424.63 60.9001 424.82 60.6801C425.01 60.4601 425.29 60.2401 425.66 60.0301C425.2 59.8301 424.84 59.5101 424.57 59.0801C424.3 58.6401 424.17 58.1301 424.17 57.5301C424.17 56.5801 424.48 55.8401 425.1 55.3201C425.72 54.8001 426.6 54.54 427.76 54.54C428 54.54 428.3 54.56 428.63 54.61C428.96 54.66 429.18 54.6901 429.27 54.7101H432.31V54.7001ZM425.57 64.67C425.57 65 425.73 65.2601 426.04 65.4401C426.35 65.6301 426.8 65.7201 427.36 65.7201C428.21 65.7201 428.88 65.6001 429.37 65.3701C429.86 65.1401 430.1 64.8201 430.1 64.4101C430.1 64.0801 429.96 63.86 429.67 63.73C429.38 63.61 428.94 63.54 428.34 63.54H427.11C426.67 63.54 426.31 63.64 426.01 63.85C425.71 64.06 425.57 64.33 425.57 64.67ZM426.43 57.5601C426.43 58.0301 426.54 58.4101 426.75 58.6801C426.97 58.9601 427.29 59.0901 427.74 59.0901C428.19 59.0901 428.52 58.9501 428.72 58.6801C428.93 58.4001 429.03 58.0301 429.03 57.5601C429.03 56.5101 428.6 55.98 427.73 55.98C426.87 55.98 426.43 56.5101 426.43 57.5601Z" fill="#426A80"/>
<path d="M441.81 63.4301H439.43V58.3301C439.43 57.7001 439.32 57.2301 439.09 56.9101C438.87 56.5901 438.51 56.4401 438.02 56.4401C437.35 56.4401 436.87 56.66 436.57 57.11C436.27 57.56 436.12 58.2901 436.12 59.3201V63.4301H433.74V54.7001H435.56L435.88 55.8201H436.01C436.28 55.4001 436.64 55.08 437.11 54.86C437.58 54.64 438.11 54.54 438.7 54.54C439.72 54.54 440.49 54.81 441.01 55.36C441.54 55.91 441.8 56.7001 441.8 57.7401V63.4301H441.81Z" fill="#426A80"/>
<path d="M458.18 82.6001H16.68C7.48 82.6001 0 74.2701 0 64.0201V41.4702C0 31.2302 7.48 22.8901 16.68 22.8901H25.13V25.0901H16.68C8.7 25.0901 2.2 32.4402 2.2 41.4702V64.0201C2.2 73.0501 8.69 80.4001 16.68 80.4001H458.17C466.15 80.4001 472.65 73.0501 472.65 64.0201V34.1201C472.65 29.1401 469.09 25.0901 464.72 25.0901V22.8901C470.3 22.8901 474.85 27.9301 474.85 34.1201V64.0201C474.85 74.2601 467.37 82.6001 458.18 82.6001Z" fill="#426A80"/>
</svg>
