<svg width="475" height="83" viewBox="0 0 475 83" fill="none" xmlns="http://www.w3.org/2000/svg">
<path d="M21.6001 0.350098L45.7401 23.3201L21.6001 47.6301H68.8701L92.4301 23.9901L68.8701 0.350098H21.6001Z" fill="#F1677D"/>
<path d="M66.3801 33.5599H61.5501V20.34L61.6001 18.1699L61.6801 15.7899C60.8801 16.5899 60.3201 17.1199 60.0101 17.3699L57.3901 19.4799L55.0601 16.5699L62.4201 10.71H66.3901V33.5599H66.3801Z" fill="white"/>
<path d="M110.99 0.350098L135.13 23.3201L110.99 47.6301H158.26L181.81 23.9901L158.26 0.350098H110.99Z" fill="#F1677D"/>
<path d="M159.79 33.5599H143.82V30.1999L149.55 24.3999C151.25 22.6599 152.36 21.4499 152.88 20.7799C153.4 20.1099 153.78 19.4899 154 18.9099C154.23 18.3399 154.34 17.7399 154.34 17.1299C154.34 16.2099 154.09 15.5299 153.58 15.0799C153.07 14.6299 152.4 14.4099 151.56 14.4099C150.67 14.4099 149.81 14.6099 148.98 15.0199C148.15 15.4299 147.28 15.9999 146.37 16.7499L143.75 13.6399C144.87 12.6799 145.81 12.0099 146.55 11.6099C147.29 11.2099 148.1 10.9099 148.97 10.6999C149.85 10.4899 150.82 10.3799 151.91 10.3799C153.34 10.3799 154.6 10.6399 155.69 11.1599C156.78 11.6799 157.63 12.4099 158.24 13.3499C158.84 14.2899 159.15 15.3599 159.15 16.5699C159.15 17.6199 158.96 18.6099 158.6 19.5299C158.23 20.4499 157.66 21.3999 156.88 22.3699C156.1 23.3399 154.74 24.7199 152.78 26.5099L149.84 29.2799V29.4999H159.79V33.5599Z" fill="white"/>
<path d="M201.21 0.350098L225.36 23.3201L201.21 47.6301H248.48L272.04 23.9901L248.48 0.350098H201.21Z" fill="#F1677D"/>
<path d="M249.13 15.8299C249.13 17.2599 248.7 18.4699 247.83 19.4699C246.96 20.4699 245.75 21.1599 244.19 21.5299V21.6199C246.03 21.8499 247.43 22.4099 248.38 23.2999C249.33 24.1899 249.8 25.3899 249.8 26.8999C249.8 29.0999 249 30.8099 247.41 32.0299C245.82 33.2499 243.54 33.8699 240.58 33.8699C238.1 33.8699 235.9 33.4599 233.99 32.6399V28.5299C234.88 28.9799 235.85 29.3399 236.91 29.6199C237.97 29.8999 239.02 30.0399 240.07 30.0399C241.66 30.0399 242.84 29.7699 243.6 29.2299C244.36 28.6899 244.74 27.8199 244.74 26.6199C244.74 25.5499 244.3 24.7899 243.43 24.3399C242.55 23.8899 241.16 23.6699 239.24 23.6699H237.51V19.9699H239.27C241.04 19.9699 242.34 19.7399 243.15 19.2699C243.97 18.8099 244.38 18.0099 244.38 16.8899C244.38 15.1599 243.3 14.2999 241.13 14.2999C240.38 14.2999 239.62 14.4199 238.84 14.6799C238.06 14.9399 237.2 15.3599 236.25 15.9799L234.02 12.6499C236.1 11.1499 238.59 10.3999 241.47 10.3999C243.83 10.3999 245.7 10.8799 247.07 11.8399C248.44 12.7899 249.13 14.1199 249.13 15.8299Z" fill="white"/>
<path d="M290.96 0L315.11 22.96L290.96 47.27H338.24L361.79 23.64L338.24 0H290.96Z" fill="#F1677D"/>
<path d="M340.29 28.4699H337.54V33.1999H332.82V28.4699H323.07V25.1099L333.09 10.3599H337.54V24.7199H340.29V28.4699ZM332.82 24.7199V20.8399C332.82 20.1899 332.85 19.2599 332.9 18.0299C332.95 16.7999 332.99 16.0899 333.02 15.8899H332.9C332.51 16.7399 332.05 17.5799 331.51 18.3899L327.32 24.7199H332.82Z" fill="white"/>
<path d="M380.75 0L404.9 22.96L380.75 47.27H428.03L451.58 23.64L428.03 0H380.75Z" fill="#F1677D"/>
<path d="M421.91 18.6099C424.12 18.6099 425.88 19.2299 427.18 20.4699C428.49 21.7099 429.14 23.4099 429.14 25.5599C429.14 28.1099 428.35 30.0799 426.78 31.4499C425.21 32.8299 422.96 33.5099 420.03 33.5099C417.49 33.5099 415.44 33.0999 413.87 32.2799V28.1099C414.69 28.5499 415.65 28.8999 416.75 29.1799C417.84 29.4599 418.88 29.5899 419.86 29.5899C422.81 29.5899 424.28 28.3799 424.28 25.9699C424.28 23.6699 422.75 22.5199 419.7 22.5199C419.15 22.5199 418.54 22.5699 417.87 22.6799C417.2 22.7899 416.66 22.9099 416.25 23.0299L414.33 21.9999L415.19 10.3599H427.58V14.4499H419.42L419 18.9299L419.55 18.8199C420.18 18.6899 420.97 18.6099 421.91 18.6099Z" fill="white"/>
<path d="M458.18 82.6001H16.68C7.48 82.6001 0 74.2701 0 64.0201V41.4702C0 31.2302 7.48 22.8901 16.68 22.8901H25.13V25.0901H16.68C8.7 25.0901 2.2 32.4402 2.2 41.4702V64.0201C2.2 73.0501 8.69 80.4001 16.68 80.4001H458.17C466.15 80.4001 472.65 73.0501 472.65 64.0201V34.1201C472.65 29.1401 469.09 25.0901 464.72 25.0901V22.8901C470.3 22.8901 474.85 27.9301 474.85 34.1201V64.0201C474.85 74.2601 467.37 82.6001 458.18 82.6001Z" fill="#426A80"/>
<path d="M31.5119 55.8182H33.6646V62.4304C33.6646 63.1728 33.4873 63.8224 33.1326 64.3793C32.7813 64.9361 32.2891 65.3703 31.6561 65.6818C31.023 65.9901 30.2856 66.1442 29.4437 66.1442C28.5985 66.1442 27.8594 65.9901 27.2264 65.6818C26.5933 65.3703 26.1011 64.9361 25.7498 64.3793C25.3985 63.8224 25.2228 63.1728 25.2228 62.4304V55.8182H27.3755V62.2464C27.3755 62.6342 27.46 62.9789 27.6291 63.2805C27.8014 63.5821 28.0434 63.8191 28.3549 63.9915C28.6665 64.1638 29.0294 64.25 29.4437 64.25C29.8613 64.25 30.2243 64.1638 30.5325 63.9915C30.844 63.8191 31.0843 63.5821 31.2534 63.2805C31.4257 62.9789 31.5119 62.6342 31.5119 62.2464V55.8182ZM41.7496 60.5412L39.8107 60.6605C39.7776 60.4948 39.7063 60.3456 39.5969 60.2131C39.4876 60.0772 39.3434 59.9695 39.1644 59.8899C38.9888 59.8071 38.7783 59.7656 38.533 59.7656C38.2049 59.7656 37.9281 59.8352 37.7028 59.9744C37.4774 60.1103 37.3647 60.2926 37.3647 60.5213C37.3647 60.7036 37.4376 60.8577 37.5835 60.9837C37.7293 61.1096 37.9795 61.2107 38.3342 61.2869L39.7163 61.5653C40.4587 61.7178 41.0122 61.9631 41.3768 62.3011C41.7414 62.6392 41.9237 63.0833 41.9237 63.6335C41.9237 64.134 41.7762 64.5732 41.4812 64.951C41.1895 65.3288 40.7885 65.6238 40.2781 65.8359C39.771 66.0447 39.186 66.1491 38.5231 66.1491C37.5122 66.1491 36.7068 65.9387 36.1069 65.5178C35.5103 65.0935 35.1606 64.5168 35.0579 63.7876L37.141 63.6783C37.204 63.9865 37.3564 64.2218 37.5984 64.3842C37.8403 64.5433 38.1502 64.6229 38.5281 64.6229C38.8993 64.6229 39.1976 64.5516 39.4229 64.4091C39.6516 64.2633 39.7676 64.076 39.771 63.8473C39.7676 63.6551 39.6864 63.4976 39.5273 63.375C39.3683 63.2491 39.123 63.1529 38.7915 63.0866L37.4691 62.8232C36.7234 62.674 36.1682 62.4155 35.8036 62.0476C35.4424 61.6797 35.2617 61.2107 35.2617 60.6406C35.2617 60.1501 35.3943 59.7275 35.6594 59.3729C35.9279 59.0182 36.3041 58.7448 36.788 58.5526C37.2752 58.3603 37.8453 58.2642 38.4982 58.2642C39.4627 58.2642 40.2217 58.468 40.7752 58.8757C41.332 59.2834 41.6568 59.8385 41.7496 60.5412ZM46.7374 66.1491C45.9519 66.1491 45.2757 65.9901 44.709 65.6719C44.1455 65.3504 43.7114 64.8963 43.4064 64.3097C43.1015 63.7197 42.949 63.022 42.949 62.2166C42.949 61.4311 43.1015 60.7417 43.4064 60.1484C43.7114 59.5552 44.1406 59.0928 44.6941 58.7614C45.2509 58.4299 45.9038 58.2642 46.6529 58.2642C47.1567 58.2642 47.6257 58.3454 48.0598 58.5078C48.4973 58.6669 48.8785 58.9072 49.2033 59.2287C49.5314 59.5502 49.7866 59.9545 49.9689 60.4418C50.1512 60.9257 50.2424 61.4924 50.2424 62.142V62.7237H43.7942V61.4112H48.2488C48.2488 61.1063 48.1825 60.8362 48.0499 60.6009C47.9173 60.3655 47.7334 60.1816 47.498 60.049C47.266 59.9131 46.9959 59.8452 46.6877 59.8452C46.3662 59.8452 46.0811 59.9197 45.8326 60.0689C45.5873 60.2147 45.3951 60.4119 45.2559 60.6605C45.1167 60.9058 45.0454 61.1792 45.0421 61.4808V62.7287C45.0421 63.1065 45.1117 63.433 45.2509 63.7081C45.3934 63.9832 45.5939 64.1953 45.8525 64.3445C46.111 64.4936 46.4176 64.5682 46.7722 64.5682C47.0075 64.5682 47.223 64.535 47.4185 64.4688C47.6141 64.4025 47.7814 64.303 47.9206 64.1705C48.0598 64.0379 48.1659 63.8755 48.2388 63.6832L50.1976 63.8125C50.0982 64.2831 49.8944 64.6941 49.5861 65.0455C49.2812 65.3935 48.8868 65.6652 48.4029 65.8608C47.9223 66.053 47.3671 66.1491 46.7374 66.1491ZM51.6245 66V58.3636H53.6777V59.696H53.7573C53.8965 59.2221 54.1301 58.8641 54.4583 58.6222C54.7864 58.3769 55.1642 58.2543 55.5918 58.2543C55.6979 58.2543 55.8122 58.2609 55.9348 58.2741C56.0575 58.2874 56.1652 58.3056 56.258 58.3288V60.2081C56.1586 60.1783 56.021 60.1518 55.8453 60.1286C55.6697 60.1054 55.5089 60.0938 55.3631 60.0938C55.0516 60.0938 54.7731 60.1617 54.5279 60.2976C54.2859 60.4302 54.0937 60.6158 53.9512 60.8544C53.812 61.093 53.7424 61.3681 53.7424 61.6797V66H51.6245ZM60.2452 57.593V55.8182H68.6074V57.593H65.4902V66H63.3624V57.593H60.2452ZM72.3175 66.1491C71.532 66.1491 70.8558 65.9901 70.2891 65.6719C69.7256 65.3504 69.2914 64.8963 68.9865 64.3097C68.6816 63.7197 68.5291 63.022 68.5291 62.2166C68.5291 61.4311 68.6816 60.7417 68.9865 60.1484C69.2914 59.5552 69.7206 59.0928 70.2741 58.7614C70.831 58.4299 71.4839 58.2642 72.233 58.2642C72.7367 58.2642 73.2057 58.3454 73.6399 58.5078C74.0774 58.6669 74.4586 58.9072 74.7834 59.2287C75.1115 59.5502 75.3667 59.9545 75.549 60.4418C75.7313 60.9257 75.8224 61.4924 75.8224 62.142V62.7237H69.3743V61.4112H73.8288C73.8288 61.1063 73.7625 60.8362 73.63 60.6009C73.4974 60.3655 73.3134 60.1816 73.0781 60.049C72.8461 59.9131 72.576 59.8452 72.2678 59.8452C71.9463 59.8452 71.6612 59.9197 71.4126 60.0689C71.1674 60.2147 70.9751 60.4119 70.8359 60.6605C70.6967 60.9058 70.6255 61.1792 70.6222 61.4808V62.7287C70.6222 63.1065 70.6918 63.433 70.831 63.7081C70.9735 63.9832 71.174 64.1953 71.4325 64.3445C71.6911 64.4936 71.9976 64.5682 72.3523 64.5682C72.5876 64.5682 72.803 64.535 72.9986 64.4688C73.1941 64.4025 73.3615 64.303 73.5007 64.1705C73.6399 64.0379 73.746 63.8755 73.8189 63.6832L75.7777 63.8125C75.6783 64.2831 75.4744 64.6941 75.1662 65.0455C74.8613 65.3935 74.4669 65.6652 73.983 65.8608C73.5024 66.053 72.9472 66.1491 72.3175 66.1491ZM83.5582 60.5412L81.6193 60.6605C81.5862 60.4948 81.5149 60.3456 81.4055 60.2131C81.2962 60.0772 81.152 59.9695 80.973 59.8899C80.7973 59.8071 80.5869 59.7656 80.3416 59.7656C80.0135 59.7656 79.7367 59.8352 79.5114 59.9744C79.286 60.1103 79.1733 60.2926 79.1733 60.5213C79.1733 60.7036 79.2462 60.8577 79.392 60.9837C79.5379 61.1096 79.7881 61.2107 80.1428 61.2869L81.5249 61.5653C82.2673 61.7178 82.8208 61.9631 83.1854 62.3011C83.55 62.6392 83.7322 63.0833 83.7322 63.6335C83.7322 64.134 83.5848 64.5732 83.2898 64.951C82.9981 65.3288 82.5971 65.6238 82.0866 65.8359C81.5795 66.0447 80.9946 66.1491 80.3317 66.1491C79.3208 66.1491 78.5154 65.9387 77.9155 65.5178C77.3189 65.0935 76.9692 64.5168 76.8665 63.7876L78.9496 63.6783C79.0125 63.9865 79.165 64.2218 79.407 64.3842C79.6489 64.5433 79.9588 64.6229 80.3366 64.6229C80.7079 64.6229 81.0062 64.5516 81.2315 64.4091C81.4602 64.2633 81.5762 64.076 81.5795 63.8473C81.5762 63.6551 81.495 63.4976 81.3359 63.375C81.1768 63.2491 80.9316 63.1529 80.6001 63.0866L79.2777 62.8232C78.532 62.674 77.9768 62.4155 77.6122 62.0476C77.2509 61.6797 77.0703 61.2107 77.0703 60.6406C77.0703 60.1501 77.2029 59.7275 77.468 59.3729C77.7365 59.0182 78.1127 58.7448 78.5966 58.5526C79.0838 58.3603 79.6539 58.2642 80.3068 58.2642C81.2713 58.2642 82.0303 58.468 82.5838 58.8757C83.1406 59.2834 83.4654 59.8385 83.5582 60.5412ZM89.1277 58.3636V59.9545H84.5289V58.3636H89.1277ZM85.573 56.5341H87.6909V63.6534C87.6909 63.849 87.7207 64.0014 87.7804 64.1108C87.84 64.2169 87.9229 64.2914 88.0289 64.3345C88.1383 64.3776 88.2643 64.3991 88.4068 64.3991C88.5062 64.3991 88.6056 64.3909 88.7051 64.3743C88.8045 64.3544 88.8807 64.3395 88.9338 64.3295L89.2669 65.9055C89.1608 65.9387 89.0117 65.9768 88.8194 66.0199C88.6272 66.0663 88.3935 66.0945 88.1184 66.1044C87.608 66.1243 87.1606 66.0563 86.7761 65.9006C86.3949 65.7448 86.0983 65.5028 85.8862 65.1747C85.6741 64.8466 85.5697 64.4323 85.573 63.9318V56.5341Z" fill="#426A80"/>
<path d="M117.211 66H114.904L118.419 55.8182H121.193L124.703 66H122.397L119.846 58.1449H119.767L117.211 66ZM117.067 61.9979H122.516V63.6783H117.067V61.9979ZM128.007 61.5852V66H125.889V58.3636H127.908V59.7109H127.997C128.166 59.2668 128.449 58.9155 128.847 58.657C129.245 58.3951 129.727 58.2642 130.294 58.2642C130.824 58.2642 131.287 58.3802 131.681 58.6122C132.075 58.8442 132.382 59.1757 132.601 59.6065C132.82 60.0341 132.929 60.5445 132.929 61.1378V66H130.811V61.5156C130.814 61.0483 130.695 60.6837 130.453 60.4219C130.211 60.1567 129.878 60.0241 129.454 60.0241C129.169 60.0241 128.917 60.0855 128.698 60.2081C128.483 60.3307 128.314 60.5097 128.191 60.745C128.072 60.977 128.01 61.2571 128.007 61.5852ZM136.776 66.1442C136.288 66.1442 135.854 66.0597 135.473 65.8906C135.092 65.7183 134.79 65.4647 134.568 65.13C134.35 64.7919 134.24 64.371 134.24 63.8672C134.24 63.4429 134.318 63.0866 134.474 62.7983C134.63 62.5099 134.842 62.2779 135.11 62.1023C135.379 61.9266 135.684 61.794 136.025 61.7045C136.37 61.6151 136.731 61.5521 137.109 61.5156C137.553 61.4692 137.911 61.4261 138.183 61.3864C138.454 61.3433 138.652 61.2803 138.774 61.1974C138.897 61.1146 138.958 60.992 138.958 60.8295V60.7997C138.958 60.4848 138.859 60.2412 138.66 60.0689C138.464 59.8965 138.186 59.8104 137.825 59.8104C137.444 59.8104 137.14 59.8949 136.915 60.0639C136.689 60.2296 136.54 60.4384 136.467 60.6903L134.509 60.5312C134.608 60.0672 134.804 59.6662 135.095 59.3281C135.387 58.9867 135.763 58.7249 136.224 58.5426C136.688 58.357 137.225 58.2642 137.835 58.2642C138.259 58.2642 138.665 58.3139 139.053 58.4134C139.444 58.5128 139.79 58.6669 140.092 58.8757C140.397 59.0845 140.637 59.353 140.813 59.6811C140.988 60.0059 141.076 60.3954 141.076 60.8494V66H139.068V64.9411H139.008C138.885 65.1797 138.721 65.3902 138.516 65.5724C138.31 65.7514 138.063 65.8923 137.775 65.995C137.487 66.0945 137.153 66.1442 136.776 66.1442ZM137.382 64.6825C137.694 64.6825 137.969 64.6212 138.207 64.4986C138.446 64.3726 138.633 64.2036 138.769 63.9915C138.905 63.7794 138.973 63.5391 138.973 63.2706V62.4602C138.907 62.5033 138.816 62.5431 138.7 62.5795C138.587 62.6127 138.459 62.6442 138.317 62.674C138.174 62.7005 138.032 62.7254 137.889 62.7486C137.747 62.7685 137.618 62.7867 137.502 62.8033C137.253 62.8397 137.036 62.8977 136.85 62.9773C136.665 63.0568 136.52 63.1645 136.418 63.3004C136.315 63.433 136.264 63.5987 136.264 63.7976C136.264 64.0859 136.368 64.3063 136.577 64.4588C136.789 64.608 137.057 64.6825 137.382 64.6825ZM144.837 55.8182V66H142.719V55.8182H144.837ZM147.841 68.8636C147.573 68.8636 147.321 68.8421 147.085 68.799C146.853 68.7592 146.661 68.7079 146.509 68.6449L146.986 67.0639C147.235 67.1402 147.458 67.1816 147.657 67.1882C147.859 67.1948 148.033 67.1484 148.179 67.049C148.328 66.9496 148.449 66.7805 148.542 66.5419L148.666 66.2188L145.927 58.3636H148.154L149.735 63.9716H149.815L151.411 58.3636H153.653L150.685 66.8253C150.542 67.2363 150.349 67.5942 150.103 67.8991C149.861 68.2074 149.555 68.4444 149.184 68.6101C148.812 68.7791 148.365 68.8636 147.841 68.8636ZM161.09 60.5412L159.152 60.6605C159.118 60.4948 159.047 60.3456 158.938 60.2131C158.828 60.0772 158.684 59.9695 158.505 59.8899C158.33 59.8071 158.119 59.7656 157.874 59.7656C157.546 59.7656 157.269 59.8352 157.044 59.9744C156.818 60.1103 156.706 60.2926 156.706 60.5213C156.706 60.7036 156.778 60.8577 156.924 60.9837C157.07 61.1096 157.32 61.2107 157.675 61.2869L159.057 61.5653C159.8 61.7178 160.353 61.9631 160.718 62.3011C161.082 62.6392 161.264 63.0833 161.264 63.6335C161.264 64.134 161.117 64.5732 160.822 64.951C160.53 65.3288 160.129 65.6238 159.619 65.8359C159.112 66.0447 158.527 66.1491 157.864 66.1491C156.853 66.1491 156.048 65.9387 155.448 65.5178C154.851 65.0935 154.501 64.5168 154.399 63.7876L156.482 63.6783C156.545 63.9865 156.697 64.2218 156.939 64.3842C157.181 64.5433 157.491 64.6229 157.869 64.6229C158.24 64.6229 158.538 64.5516 158.764 64.4091C158.992 64.2633 159.108 64.076 159.112 63.8473C159.108 63.6551 159.027 63.4976 158.868 63.375C158.709 63.2491 158.464 63.1529 158.132 63.0866L156.81 62.8232C156.064 62.674 155.509 62.4155 155.144 62.0476C154.783 61.6797 154.603 61.2107 154.603 60.6406C154.603 60.1501 154.735 59.7275 155 59.3729C155.269 59.0182 155.645 58.7448 156.129 58.5526C156.616 58.3603 157.186 58.2642 157.839 58.2642C158.804 58.2642 159.563 58.468 160.116 58.8757C160.673 59.2834 160.998 59.8385 161.09 60.5412ZM162.598 66V58.3636H164.716V66H162.598ZM163.662 57.3793C163.347 57.3793 163.077 57.2749 162.852 57.0661C162.63 56.8539 162.519 56.6004 162.519 56.3054C162.519 56.0137 162.63 55.7635 162.852 55.5547C163.077 55.3426 163.347 55.2365 163.662 55.2365C163.977 55.2365 164.245 55.3426 164.467 55.5547C164.693 55.7635 164.805 56.0137 164.805 56.3054C164.805 56.6004 164.693 56.8539 164.467 57.0661C164.245 57.2749 163.977 57.3793 163.662 57.3793ZM172.766 60.5412L170.827 60.6605C170.794 60.4948 170.723 60.3456 170.614 60.2131C170.504 60.0772 170.36 59.9695 170.181 59.8899C170.005 59.8071 169.795 59.7656 169.55 59.7656C169.222 59.7656 168.945 59.8352 168.719 59.9744C168.494 60.1103 168.381 60.2926 168.381 60.5213C168.381 60.7036 168.454 60.8577 168.6 60.9837C168.746 61.1096 168.996 61.2107 169.351 61.2869L170.733 61.5653C171.475 61.7178 172.029 61.9631 172.393 62.3011C172.758 62.6392 172.94 63.0833 172.94 63.6335C172.94 64.134 172.793 64.5732 172.498 64.951C172.206 65.3288 171.805 65.6238 171.295 65.8359C170.788 66.0447 170.203 66.1491 169.54 66.1491C168.529 66.1491 167.723 65.9387 167.123 65.5178C166.527 65.0935 166.177 64.5168 166.074 63.7876L168.158 63.6783C168.221 63.9865 168.373 64.2218 168.615 64.3842C168.857 64.5433 169.167 64.6229 169.545 64.6229C169.916 64.6229 170.214 64.5516 170.44 64.4091C170.668 64.2633 170.784 64.076 170.788 63.8473C170.784 63.6551 170.703 63.4976 170.544 63.375C170.385 63.2491 170.14 63.1529 169.808 63.0866L168.486 62.8232C167.74 62.674 167.185 62.4155 166.82 62.0476C166.459 61.6797 166.278 61.2107 166.278 60.6406C166.278 60.1501 166.411 59.7275 166.676 59.3729C166.945 59.0182 167.321 58.7448 167.805 58.5526C168.292 58.3603 168.862 58.2642 169.515 58.2642C170.479 58.2642 171.238 58.468 171.792 58.8757C172.349 59.2834 172.673 59.8385 172.766 60.5412Z" fill="#426A80"/>
<path d="M214.572 66H210.963V55.8182H214.602C215.626 55.8182 216.508 56.022 217.247 56.4297C217.986 56.834 218.555 57.4157 218.952 58.1747C219.353 58.9337 219.554 59.8419 219.554 60.8991C219.554 61.9598 219.353 62.8712 218.952 63.6335C218.555 64.3958 217.983 64.9808 217.237 65.3885C216.495 65.7962 215.607 66 214.572 66ZM213.116 64.1555H214.483C215.119 64.1555 215.655 64.0429 216.089 63.8175C216.526 63.5888 216.854 63.2358 217.073 62.7585C217.295 62.2779 217.406 61.6581 217.406 60.8991C217.406 60.1468 217.295 59.532 217.073 59.0547C216.854 58.5774 216.528 58.2261 216.094 58.0007C215.66 57.7753 215.124 57.6626 214.488 57.6626H213.116V64.1555ZM224.589 66.1491C223.803 66.1491 223.127 65.9901 222.561 65.6719C221.997 65.3504 221.563 64.8963 221.258 64.3097C220.953 63.7197 220.801 63.022 220.801 62.2166C220.801 61.4311 220.953 60.7417 221.258 60.1484C221.563 59.5552 221.992 59.0928 222.546 58.7614C223.102 58.4299 223.755 58.2642 224.504 58.2642C225.008 58.2642 225.477 58.3454 225.911 58.5078C226.349 58.6669 226.73 58.9072 227.055 59.2287C227.383 59.5502 227.638 59.9545 227.82 60.4418C228.003 60.9257 228.094 61.4924 228.094 62.142V62.7237H221.646V61.4112H226.1C226.1 61.1063 226.034 60.8362 225.901 60.6009C225.769 60.3655 225.585 60.1816 225.35 60.049C225.118 59.9131 224.847 59.8452 224.539 59.8452C224.218 59.8452 223.933 59.9197 223.684 60.0689C223.439 60.2147 223.247 60.4119 223.107 60.6605C222.968 60.9058 222.897 61.1792 222.894 61.4808V62.7287C222.894 63.1065 222.963 63.433 223.102 63.7081C223.245 63.9832 223.445 64.1953 223.704 64.3445C223.963 64.4936 224.269 64.5682 224.624 64.5682C224.859 64.5682 225.075 64.535 225.27 64.4688C225.466 64.4025 225.633 64.303 225.772 64.1705C225.911 64.0379 226.017 63.8755 226.09 63.6832L228.049 63.8125C227.95 64.2831 227.746 64.6941 227.438 65.0455C227.133 65.3935 226.738 65.6652 226.254 65.8608C225.774 66.053 225.219 66.1491 224.589 66.1491ZM233.583 58.3636V59.9545H228.869V58.3636H233.583ZM229.948 66V57.8118C229.948 57.2583 230.056 56.7992 230.271 56.4347C230.49 56.0701 230.789 55.7966 231.166 55.6143C231.544 55.4321 231.973 55.3409 232.454 55.3409C232.779 55.3409 233.075 55.3658 233.344 55.4155C233.616 55.4652 233.818 55.5099 233.95 55.5497L233.573 57.1406C233.49 57.1141 233.387 57.0893 233.264 57.0661C233.145 57.0429 233.022 57.0312 232.896 57.0312C232.585 57.0312 232.368 57.1042 232.245 57.25C232.123 57.3925 232.061 57.593 232.061 57.8516V66H229.948ZM234.876 66V58.3636H236.994V66H234.876ZM235.94 57.3793C235.625 57.3793 235.355 57.2749 235.13 57.0661C234.908 56.8539 234.797 56.6004 234.797 56.3054C234.797 56.0137 234.908 55.7635 235.13 55.5547C235.355 55.3426 235.625 55.2365 235.94 55.2365C236.255 55.2365 236.524 55.3426 236.746 55.5547C236.971 55.7635 237.084 56.0137 237.084 56.3054C237.084 56.6004 236.971 56.8539 236.746 57.0661C236.524 57.2749 236.255 57.3793 235.94 57.3793ZM240.809 61.5852V66H238.691V58.3636H240.709V59.7109H240.799C240.968 59.2668 241.251 58.9155 241.649 58.657C242.047 58.3951 242.529 58.2642 243.096 58.2642C243.626 58.2642 244.088 58.3802 244.483 58.6122C244.877 58.8442 245.184 59.1757 245.403 59.6065C245.621 60.0341 245.731 60.5445 245.731 61.1378V66H243.613V61.5156C243.616 61.0483 243.497 60.6837 243.255 60.4219C243.013 60.1567 242.68 60.0241 242.256 60.0241C241.97 60.0241 241.719 60.0855 241.5 60.2081C241.284 60.3307 241.115 60.5097 240.993 60.745C240.873 60.977 240.812 61.2571 240.809 61.5852ZM250.88 66.1491C250.094 66.1491 249.418 65.9901 248.852 65.6719C248.288 65.3504 247.854 64.8963 247.549 64.3097C247.244 63.7197 247.092 63.022 247.092 62.2166C247.092 61.4311 247.244 60.7417 247.549 60.1484C247.854 59.5552 248.283 59.0928 248.837 58.7614C249.393 58.4299 250.046 58.2642 250.795 58.2642C251.299 58.2642 251.768 58.3454 252.202 58.5078C252.64 58.6669 253.021 58.9072 253.346 59.2287C253.674 59.5502 253.929 59.9545 254.112 60.4418C254.294 60.9257 254.385 61.4924 254.385 62.142V62.7237H247.937V61.4112H252.391C252.391 61.1063 252.325 60.8362 252.192 60.6009C252.06 60.3655 251.876 60.1816 251.641 60.049C251.409 59.9131 251.138 59.8452 250.83 59.8452C250.509 59.8452 250.224 59.9197 249.975 60.0689C249.73 60.2147 249.538 60.4119 249.398 60.6605C249.259 60.9058 249.188 61.1792 249.185 61.4808V62.7287C249.185 63.1065 249.254 63.433 249.393 63.7081C249.536 63.9832 249.737 64.1953 249.995 64.3445C250.254 64.4936 250.56 64.5682 250.915 64.5682C251.15 64.5682 251.366 64.535 251.561 64.4688C251.757 64.4025 251.924 64.303 252.063 64.1705C252.202 64.0379 252.308 63.8755 252.381 63.6832L254.34 63.8125C254.241 64.2831 254.037 64.6941 253.729 65.0455C253.424 65.3935 253.029 65.6652 252.545 65.8608C252.065 66.053 251.51 66.1491 250.88 66.1491Z" fill="#426A80"/>
<path d="M298.891 58.7464C298.851 58.3454 298.68 58.0339 298.379 57.8118C298.077 57.5897 297.668 57.4787 297.151 57.4787C296.799 57.4787 296.503 57.5284 296.261 57.6278C296.019 57.724 295.833 57.8582 295.704 58.0305C295.578 58.2029 295.515 58.3984 295.515 58.6172C295.508 58.7995 295.547 58.9586 295.629 59.0945C295.716 59.2304 295.833 59.348 295.982 59.4474C296.132 59.5436 296.304 59.6281 296.499 59.701C296.695 59.7706 296.904 59.8303 297.126 59.88L298.041 60.0987C298.485 60.1982 298.892 60.3307 299.264 60.4964C299.635 60.6622 299.956 60.866 300.228 61.108C300.5 61.3499 300.71 61.6349 300.86 61.9631C301.012 62.2912 301.09 62.6674 301.093 63.0916C301.09 63.7147 300.931 64.255 300.616 64.7124C300.304 65.1664 299.854 65.5194 299.264 65.7713C298.677 66.0199 297.969 66.1442 297.141 66.1442C296.319 66.1442 295.603 66.0182 294.993 65.7663C294.387 65.5144 293.913 65.1416 293.571 64.6477C293.233 64.1506 293.056 63.5357 293.039 62.8033H295.122C295.146 63.1446 295.243 63.4297 295.416 63.6584C295.591 63.8838 295.825 64.0545 296.117 64.1705C296.412 64.2831 296.745 64.3395 297.116 64.3395C297.481 64.3395 297.797 64.2865 298.066 64.1804C298.337 64.0743 298.548 63.9268 298.697 63.7379C298.846 63.549 298.921 63.3319 298.921 63.0866C298.921 62.858 298.853 62.6657 298.717 62.5099C298.584 62.3542 298.389 62.2216 298.13 62.1122C297.875 62.0028 297.562 61.9034 297.191 61.8139L296.082 61.5355C295.223 61.3267 294.546 61.0002 294.048 60.5561C293.551 60.112 293.304 59.5137 293.308 58.7614C293.304 58.1449 293.468 57.6063 293.8 57.1456C294.135 56.6849 294.594 56.3253 295.177 56.0668C295.76 55.8082 296.423 55.679 297.166 55.679C297.921 55.679 298.581 55.8082 299.144 56.0668C299.711 56.3253 300.152 56.6849 300.467 57.1456C300.782 57.6063 300.944 58.1399 300.954 58.7464H298.891ZM306.563 58.3636V59.9545H301.964V58.3636H306.563ZM303.009 56.5341H305.126V63.6534C305.126 63.849 305.156 64.0014 305.216 64.1108C305.276 64.2169 305.358 64.2914 305.464 64.3345C305.574 64.3776 305.7 64.3991 305.842 64.3991C305.942 64.3991 306.041 64.3909 306.141 64.3743C306.24 64.3544 306.316 64.3395 306.369 64.3295L306.702 65.9055C306.596 65.9387 306.447 65.9768 306.255 66.0199C306.063 66.0663 305.829 66.0945 305.554 66.1044C305.044 66.1243 304.596 66.0563 304.212 65.9006C303.83 65.7448 303.534 65.5028 303.322 65.1747C303.11 64.8466 303.005 64.4323 303.009 63.9318V56.5341ZM307.943 66V58.3636H309.996V59.696H310.076C310.215 59.2221 310.449 58.8641 310.777 58.6222C311.105 58.3769 311.483 58.2543 311.91 58.2543C312.016 58.2543 312.131 58.2609 312.253 58.2741C312.376 58.2874 312.484 58.3056 312.576 58.3288V60.2081C312.477 60.1783 312.339 60.1518 312.164 60.1286C311.988 60.1054 311.827 60.0938 311.681 60.0938C311.37 60.0938 311.092 60.1617 310.846 60.2976C310.604 60.4302 310.412 60.6158 310.27 60.8544C310.13 61.093 310.061 61.3681 310.061 61.6797V66H307.943ZM315.63 66.1442C315.143 66.1442 314.709 66.0597 314.328 65.8906C313.946 65.7183 313.645 65.4647 313.423 65.13C313.204 64.7919 313.095 64.371 313.095 63.8672C313.095 63.4429 313.173 63.0866 313.328 62.7983C313.484 62.5099 313.696 62.2779 313.965 62.1023C314.233 61.9266 314.538 61.794 314.879 61.7045C315.224 61.6151 315.585 61.5521 315.963 61.5156C316.407 61.4692 316.765 61.4261 317.037 61.3864C317.309 61.3433 317.506 61.2803 317.629 61.1974C317.751 61.1146 317.813 60.992 317.813 60.8295V60.7997C317.813 60.4848 317.713 60.2412 317.514 60.0689C317.319 59.8965 317.04 59.8104 316.679 59.8104C316.298 59.8104 315.995 59.8949 315.769 60.0639C315.544 60.2296 315.395 60.4384 315.322 60.6903L313.363 60.5312C313.463 60.0672 313.658 59.6662 313.95 59.3281C314.241 58.9867 314.618 58.7249 315.078 58.5426C315.542 58.357 316.079 58.2642 316.689 58.2642C317.113 58.2642 317.519 58.3139 317.907 58.4134C318.298 58.5128 318.645 58.6669 318.946 58.8757C319.251 59.0845 319.491 59.353 319.667 59.6811C319.843 60.0059 319.931 60.3954 319.931 60.8494V66H317.922V64.9411H317.862C317.74 65.1797 317.576 65.3902 317.37 65.5724C317.165 65.7514 316.918 65.8923 316.629 65.995C316.341 66.0945 316.008 66.1442 315.63 66.1442ZM316.237 64.6825C316.548 64.6825 316.823 64.6212 317.062 64.4986C317.301 64.3726 317.488 64.2036 317.624 63.9915C317.76 63.7794 317.828 63.5391 317.828 63.2706V62.4602C317.761 62.5033 317.67 62.5431 317.554 62.5795C317.441 62.6127 317.314 62.6442 317.171 62.674C317.029 62.7005 316.886 62.7254 316.744 62.7486C316.601 62.7685 316.472 62.7867 316.356 62.8033C316.107 62.8397 315.89 62.8977 315.705 62.9773C315.519 63.0568 315.375 63.1645 315.272 63.3004C315.169 63.433 315.118 63.5987 315.118 63.7976C315.118 64.0859 315.222 64.3063 315.431 64.4588C315.643 64.608 315.912 64.6825 316.237 64.6825ZM325.635 58.3636V59.9545H321.037V58.3636H325.635ZM322.081 56.5341H324.199V63.6534C324.199 63.849 324.229 64.0014 324.288 64.1108C324.348 64.2169 324.431 64.2914 324.537 64.3345C324.646 64.3776 324.772 64.3991 324.915 64.3991C325.014 64.3991 325.113 64.3909 325.213 64.3743C325.312 64.3544 325.389 64.3395 325.442 64.3295L325.775 65.9055C325.669 65.9387 325.519 65.9768 325.327 66.0199C325.135 66.0663 324.901 66.0945 324.626 66.1044C324.116 66.1243 323.668 66.0563 323.284 65.9006C322.903 65.7448 322.606 65.5028 322.394 65.1747C322.182 64.8466 322.077 64.4323 322.081 63.9318V56.5341ZM330.413 66.1491C329.628 66.1491 328.952 65.9901 328.385 65.6719C327.821 65.3504 327.387 64.8963 327.082 64.3097C326.777 63.7197 326.625 63.022 326.625 62.2166C326.625 61.4311 326.777 60.7417 327.082 60.1484C327.387 59.5552 327.816 59.0928 328.37 58.7614C328.927 58.4299 329.58 58.2642 330.329 58.2642C330.832 58.2642 331.301 58.3454 331.736 58.5078C332.173 58.6669 332.554 58.9072 332.879 59.2287C333.207 59.5502 333.462 59.9545 333.645 60.4418C333.827 60.9257 333.918 61.4924 333.918 62.142V62.7237H327.47V61.4112H331.925C331.925 61.1063 331.858 60.8362 331.726 60.6009C331.593 60.3655 331.409 60.1816 331.174 60.049C330.942 59.9131 330.672 59.8452 330.363 59.8452C330.042 59.8452 329.757 59.9197 329.508 60.0689C329.263 60.2147 329.071 60.4119 328.932 60.6605C328.792 60.9058 328.721 61.1792 328.718 61.4808V62.7287C328.718 63.1065 328.787 63.433 328.927 63.7081C329.069 63.9832 329.27 64.1953 329.528 64.3445C329.787 64.4936 330.093 64.5682 330.448 64.5682C330.683 64.5682 330.899 64.535 331.094 64.4688C331.29 64.4025 331.457 64.303 331.596 64.1705C331.736 64.0379 331.842 63.8755 331.915 63.6832L333.873 63.8125C333.774 64.2831 333.57 64.6941 333.262 65.0455C332.957 65.3935 332.563 65.6652 332.079 65.8608C331.598 66.053 331.043 66.1491 330.413 66.1491ZM338.741 69.0227C338.055 69.0227 337.466 68.9283 336.976 68.7393C336.488 68.5537 336.101 68.3002 335.812 67.9787C335.524 67.6572 335.337 67.2959 335.251 66.8949L337.209 66.6314C337.269 66.7839 337.363 66.9264 337.493 67.0589C337.622 67.1915 337.793 67.2976 338.005 67.3771C338.22 67.46 338.482 67.5014 338.79 67.5014C339.251 67.5014 339.631 67.3887 339.929 67.1634C340.23 66.9413 340.381 66.5684 340.381 66.0447V64.6477H340.292C340.199 64.8598 340.06 65.0604 339.874 65.2493C339.689 65.4382 339.45 65.5923 339.158 65.7116C338.867 65.831 338.519 65.8906 338.114 65.8906C337.541 65.8906 337.019 65.758 336.548 65.4929C336.081 65.2244 335.708 64.8151 335.43 64.2649C335.154 63.7114 335.017 63.0121 335.017 62.1669C335.017 61.3018 335.158 60.5793 335.439 59.9993C335.721 59.4193 336.096 58.9851 336.563 58.6967C337.034 58.4084 337.549 58.2642 338.109 58.2642C338.537 58.2642 338.895 58.3371 339.183 58.483C339.471 58.6255 339.703 58.8045 339.879 59.0199C340.058 59.232 340.196 59.4408 340.292 59.6463H340.371V58.3636H342.474V66.0746C342.474 66.7242 342.315 67.2678 341.997 67.7053C341.679 68.1428 341.238 68.4709 340.675 68.6896C340.114 68.9117 339.47 69.0227 338.741 69.0227ZM338.785 64.2997C339.127 64.2997 339.415 64.2152 339.65 64.0462C339.889 63.8738 340.071 63.6286 340.197 63.3104C340.327 62.9889 340.391 62.6044 340.391 62.157C340.391 61.7095 340.328 61.3217 340.202 60.9936C340.076 60.6622 339.894 60.4053 339.655 60.223C339.417 60.0407 339.127 59.9496 338.785 59.9496C338.437 59.9496 338.144 60.044 337.905 60.233C337.667 60.4186 337.486 60.6771 337.363 61.0085C337.241 61.34 337.18 61.7228 337.18 62.157C337.18 62.5978 337.241 62.9789 337.363 63.3004C337.489 63.6186 337.67 63.8655 337.905 64.0412C338.144 64.2135 338.437 64.2997 338.785 64.2997ZM345.467 68.8636C345.199 68.8636 344.947 68.8421 344.711 68.799C344.479 68.7592 344.287 68.7079 344.135 68.6449L344.612 67.0639C344.861 67.1402 345.084 67.1816 345.283 67.1882C345.485 67.1948 345.659 67.1484 345.805 67.049C345.954 66.9496 346.075 66.7805 346.168 66.5419L346.292 66.2188L343.553 58.3636H345.78L347.361 63.9716H347.441L349.037 58.3636H351.279L348.311 66.8253C348.168 67.2363 347.974 67.5942 347.729 67.8991C347.487 68.2074 347.181 68.4444 346.809 68.6101C346.438 68.7791 345.991 68.8636 345.467 68.8636Z" fill="#426A80"/>
<path d="M392.518 55.8182V66H390.365V55.8182H392.518ZM397.063 66.1243C396.483 66.1243 395.958 65.9751 395.487 65.6768C395.02 65.3752 394.649 64.9328 394.374 64.3494C394.102 63.7628 393.966 63.0436 393.966 62.1918C393.966 61.3168 394.107 60.5893 394.389 60.0092C394.67 59.4259 395.045 58.9901 395.512 58.7017C395.983 58.41 396.498 58.2642 397.058 58.2642C397.486 58.2642 397.842 58.3371 398.127 58.483C398.416 58.6255 398.648 58.8045 398.823 59.0199C399.002 59.232 399.138 59.4408 399.231 59.6463H399.296V55.8182H401.409V66H399.32V64.777H399.231C399.132 64.9891 398.991 65.1996 398.808 65.4084C398.629 65.6139 398.396 65.7846 398.107 65.9205C397.822 66.0563 397.474 66.1243 397.063 66.1243ZM397.735 64.4389C398.076 64.4389 398.364 64.3461 398.6 64.1605C398.838 63.9716 399.021 63.7081 399.146 63.37C399.276 63.032 399.34 62.6359 399.34 62.1818C399.34 61.7277 399.277 61.3333 399.151 60.9986C399.026 60.6638 398.843 60.4053 398.605 60.223C398.366 60.0407 398.076 59.9496 397.735 59.9496C397.387 59.9496 397.093 60.044 396.855 60.233C396.616 60.4219 396.435 60.6837 396.313 61.0185C396.19 61.3532 396.129 61.741 396.129 62.1818C396.129 62.6259 396.19 63.0187 396.313 63.3601C396.439 63.6982 396.619 63.9633 396.855 64.1555C397.093 64.3445 397.387 64.4389 397.735 64.4389ZM406.63 66.1491C405.844 66.1491 405.168 65.9901 404.602 65.6719C404.038 65.3504 403.604 64.8963 403.299 64.3097C402.994 63.7197 402.842 63.022 402.842 62.2166C402.842 61.4311 402.994 60.7417 403.299 60.1484C403.604 59.5552 404.033 59.0928 404.587 58.7614C405.143 58.4299 405.796 58.2642 406.545 58.2642C407.049 58.2642 407.518 58.3454 407.952 58.5078C408.39 58.6669 408.771 58.9072 409.096 59.2287C409.424 59.5502 409.679 59.9545 409.862 60.4418C410.044 60.9257 410.135 61.4924 410.135 62.142V62.7237H403.687V61.4112H408.141C408.141 61.1063 408.075 60.8362 407.942 60.6009C407.81 60.3655 407.626 60.1816 407.391 60.049C407.159 59.9131 406.888 59.8452 406.58 59.8452C406.259 59.8452 405.974 59.9197 405.725 60.0689C405.48 60.2147 405.288 60.4119 405.148 60.6605C405.009 60.9058 404.938 61.1792 404.935 61.4808V62.7287C404.935 63.1065 405.004 63.433 405.143 63.7081C405.286 63.9832 405.487 64.1953 405.745 64.3445C406.004 64.4936 406.31 64.5682 406.665 64.5682C406.9 64.5682 407.116 64.535 407.311 64.4688C407.507 64.4025 407.674 64.303 407.813 64.1705C407.952 64.0379 408.058 63.8755 408.131 63.6832L410.09 63.8125C409.991 64.2831 409.787 64.6941 409.479 65.0455C409.174 65.3935 408.779 65.6652 408.295 65.8608C407.815 66.053 407.26 66.1491 406.63 66.1491ZM413.695 66.1442C413.207 66.1442 412.773 66.0597 412.392 65.8906C412.011 65.7183 411.709 65.4647 411.487 65.13C411.268 64.7919 411.159 64.371 411.159 63.8672C411.159 63.4429 411.237 63.0866 411.393 62.7983C411.549 62.5099 411.761 62.2779 412.029 62.1023C412.298 61.9266 412.603 61.794 412.944 61.7045C413.289 61.6151 413.65 61.5521 414.028 61.5156C414.472 61.4692 414.83 61.4261 415.102 61.3864C415.373 61.3433 415.571 61.2803 415.693 61.1974C415.816 61.1146 415.877 60.992 415.877 60.8295V60.7997C415.877 60.4848 415.778 60.2412 415.579 60.0689C415.383 59.8965 415.105 59.8104 414.744 59.8104C414.362 59.8104 414.059 59.8949 413.834 60.0639C413.608 60.2296 413.459 60.4384 413.386 60.6903L411.428 60.5312C411.527 60.0672 411.723 59.6662 412.014 59.3281C412.306 58.9867 412.682 58.7249 413.143 58.5426C413.607 58.357 414.144 58.2642 414.754 58.2642C415.178 58.2642 415.584 58.3139 415.972 58.4134C416.363 58.5128 416.709 58.6669 417.011 58.8757C417.316 59.0845 417.556 59.353 417.732 59.6811C417.907 60.0059 417.995 60.3954 417.995 60.8494V66H415.987V64.9411H415.927C415.804 65.1797 415.64 65.3902 415.435 65.5724C415.229 65.7514 414.982 65.8923 414.694 65.995C414.406 66.0945 414.072 66.1442 413.695 66.1442ZM414.301 64.6825C414.613 64.6825 414.888 64.6212 415.126 64.4986C415.365 64.3726 415.552 64.2036 415.688 63.9915C415.824 63.7794 415.892 63.5391 415.892 63.2706V62.4602C415.826 62.5033 415.735 62.5431 415.619 62.5795C415.506 62.6127 415.378 62.6442 415.236 62.674C415.093 62.7005 414.951 62.7254 414.808 62.7486C414.666 62.7685 414.536 62.7867 414.42 62.8033C414.172 62.8397 413.955 62.8977 413.769 62.9773C413.584 63.0568 413.439 63.1645 413.337 63.3004C413.234 63.433 413.183 63.5987 413.183 63.7976C413.183 64.0859 413.287 64.3063 413.496 64.4588C413.708 64.608 413.976 64.6825 414.301 64.6825ZM423.7 58.3636V59.9545H419.101V58.3636H423.7ZM420.145 56.5341H422.263V63.6534C422.263 63.849 422.293 64.0014 422.353 64.1108C422.412 64.2169 422.495 64.2914 422.601 64.3345C422.711 64.3776 422.837 64.3991 422.979 64.3991C423.078 64.3991 423.178 64.3909 423.277 64.3743C423.377 64.3544 423.453 64.3395 423.506 64.3295L423.839 65.9055C423.733 65.9387 423.584 65.9768 423.392 66.0199C423.199 66.0663 422.966 66.0945 422.691 66.1044C422.18 66.1243 421.733 66.0563 421.348 65.9006C420.967 65.7448 420.671 65.5028 420.458 65.1747C420.246 64.8466 420.142 64.4323 420.145 63.9318V56.5341ZM428.478 66.1491C427.692 66.1491 427.016 65.9901 426.449 65.6719C425.886 65.3504 425.452 64.8963 425.147 64.3097C424.842 63.7197 424.689 63.022 424.689 62.2166C424.689 61.4311 424.842 60.7417 425.147 60.1484C425.452 59.5552 425.881 59.0928 426.434 58.7614C426.991 58.4299 427.644 58.2642 428.393 58.2642C428.897 58.2642 429.366 58.3454 429.8 58.5078C430.238 58.6669 430.619 58.9072 430.944 59.2287C431.272 59.5502 431.527 59.9545 431.709 60.4418C431.891 60.9257 431.983 61.4924 431.983 62.142V62.7237H425.534V61.4112H429.989C429.989 61.1063 429.923 60.8362 429.79 60.6009C429.658 60.3655 429.474 60.1816 429.238 60.049C429.006 59.9131 428.736 59.8452 428.428 59.8452C428.106 59.8452 427.821 59.9197 427.573 60.0689C427.328 60.2147 427.135 60.4119 426.996 60.6605C426.857 60.9058 426.786 61.1792 426.782 61.4808V62.7287C426.782 63.1065 426.852 63.433 426.991 63.7081C427.134 63.9832 427.334 64.1953 427.593 64.3445C427.851 64.4936 428.158 64.5682 428.512 64.5682C428.748 64.5682 428.963 64.535 429.159 64.4688C429.354 64.4025 429.522 64.303 429.661 64.1705C429.8 64.0379 429.906 63.8755 429.979 63.6832L431.938 63.8125C431.838 64.2831 431.635 64.6941 431.326 65.0455C431.021 65.3935 430.627 65.6652 430.143 65.8608C429.663 66.053 429.107 66.1491 428.478 66.1491Z" fill="#426A80"/>
</svg>
